<?xml version="1.0" encoding="utf-8"?>
<!-- Generator: Adobe Illustrator 16.0.0, SVG Export Plug-In . SVG Version: 6.00 Build 0)  -->
<!DOCTYPE svg PUBLIC "-//W3C//DTD SVG 1.1//EN" "http://www.w3.org/Graphics/SVG/1.1/DTD/svg11.dtd">
<svg version="1.1"
	 id="svg5118" xmlns:dc="http://purl.org/dc/elements/1.1/" xmlns:sodipodi="http://sodipodi.sourceforge.net/DTD/sodipodi-0.dtd" xmlns:inkscape="http://www.inkscape.org/namespaces/inkscape" xmlns:rdf="http://www.w3.org/1999/02/22-rdf-syntax-ns#" xmlns:cc="http://creativecommons.org/ns#" xmlns:svg="http://www.w3.org/2000/svg" sodipodi:docname="logo_cobis_2017.svg" inkscape:version="0.91 r13725"
	 xmlns="http://www.w3.org/2000/svg" xmlns:xlink="http://www.w3.org/1999/xlink" x="0px" y="0px" width="156.217px"
	 height="71.741px" viewBox="0 0 156.217 71.741" enable-background="new 0 0 156.217 71.741" xml:space="preserve">
<sodipodi:namedview  id="base" showgrid="false" pagecolor="#ffffff" bordercolor="#666666" inkscape:cy="-266.64572" fit-margin-left="0" inkscape:cx="622.50302" fit-margin-top="0" inkscape:zoom="0.35" borderopacity="1.0" inkscape:window-maximized="1" inkscape:window-y="-8" inkscape:window-x="-8" inkscape:window-height="705" inkscape:window-width="1366" fit-margin-bottom="0" fit-margin-right="0" inkscape:current-layer="layer1" inkscape:document-units="px" inkscape:pageshadow="2" inkscape:pageopacity="0.0">
	</sodipodi:namedview>
<path fill="#FFFFFF" stroke="#2B478F" stroke-width="0.75" stroke-miterlimit="10" d="M144.891,71.742H11.178
	C5.557,71.742,1,67.186,1,61.564V11.179C1,5.557,5.557,1,11.178,1h133.712c5.623,0,10.18,4.557,10.18,10.179v50.385
	C155.07,67.186,150.514,71.742,144.891,71.742z"/>
<path fill-rule="evenodd" clip-rule="evenodd" fill="#BA2380" d="M36.512,35.394c1.118-1.69,1.225-3.489,0.987-5.399
	c-0.744-6.033-8.363-9.852-21.804-8.128c-1.994,0.255-2.4,0.36-3.53,0.628l4.817-7.448c1.121-0.263,2.3-0.474,3.514-0.62
	c10.437-1.285,20.203,2.351,21.811,8.123c0.516,1.872,0.18,3.766-0.955,5.479L36.512,35.394z"/>
<path fill-rule="evenodd" clip-rule="evenodd" fill="#BA2380" d="M37.186,31.449c0.036,1.352-0.341,2.776-1.166,4.023
	c-1.547,2.363-4.713,4.535-7.859,4.941l4.763-7.403C34.068,33.078,36.217,32.121,37.186,31.449"/>
<path fill-rule="evenodd" clip-rule="evenodd" fill="#2B478F" d="M17.198,34.908c2.164,6.824,9.717,10.262,21.803,8.127
	c1.213-0.217,2.908-0.863,3.951-1.381l-5.236,8.195c-1.126,0.27-2.3,0.477-3.525,0.627c-10.431,1.283-20.196-2.359-21.804-8.123
	c-0.437-1.578-0.319-3.051,0.423-4.529c1.034-1.402,2.651-3.023,4.235-3.874C17.033,34.229,17.091,34.571,17.198,34.908"/>
<path fill-rule="evenodd" clip-rule="evenodd" fill="#2B478F" d="M13.384,36.767c2.188-3.26,4.449-6.683,4.833-7.253
	c1.541-2.361,4.115-4.231,7.711-4.868l-4.761,7.401C17.775,32.442,15.581,34.207,13.384,36.767"/>
<path fill-rule="evenodd" clip-rule="evenodd" fill="#BA2380" d="M48.675,41.182l2.824-13.28c0.401-1.414,1.201-2.612,2.403-3.616
	c1.313-1.103,2.798-1.662,4.472-1.662c1.461,0,2.659,0.332,3.596,1.006c0.938,0.694,1.402,1.674,1.402,2.944
	c0,0.263-0.014,0.476-0.052,0.626c-0.035,0.174-0.052,0.294-0.052,0.366c-0.264,1.075-0.61,1.907-1.042,2.495
	c-0.315,0.4-0.835,0.85-1.562,1.356c0.609,0.384,1.061,0.849,1.356,1.397c0.289,0.58,0.437,1.179,0.437,1.807
	c0,0.167-0.01,0.359-0.031,0.571c-0.03,0.2-0.06,0.372-0.075,0.495c-0.271,1.68-1.036,3.014-2.296,4.006s-2.693,1.488-4.309,1.488
	h-3.684l0.502-2.285h3.509c0.906,0,1.687-0.23,2.351-0.691c0.778-0.531,1.262-1.305,1.434-2.313
	c0.055-0.299,0.076-0.558,0.076-0.777c0-0.771-0.268-1.333-0.811-1.704c-0.531-0.342-1.213-0.517-2.048-0.517h-3.239l0.471-2.285
	h2.873c1.109,0,1.994-0.336,2.658-0.998c0.5-0.514,0.816-1.153,0.957-1.918c0.029-0.279,0.045-0.473,0.045-0.572
	c0-0.727-0.258-1.283-0.771-1.665c-0.544-0.364-1.233-0.544-2.089-0.544c-1.078,0-1.988,0.334-2.732,1.012
	c-0.66,0.603-1.121,1.37-1.373,2.293l-2.761,12.965H48.675z"/>
<path fill-rule="evenodd" clip-rule="evenodd" fill="#BA2380" d="M72.187,41.182l1.541-7.224c0.033-0.229,0.052-0.418,0.052-0.547
	c0-0.846-0.304-1.522-0.892-2.042c-0.612-0.509-1.47-0.76-2.584-0.76c-0.947,0-1.858,0.285-2.732,0.857
	c-1.159,0.767-1.898,1.883-2.219,3.357c-0.098,0.43-0.144,0.805-0.144,1.122c0,1.024,0.31,1.831,0.944,2.431
	c0.615,0.576,1.398,0.871,2.334,0.871c1.197,0,2.387-0.578,3.568-1.742l-0.606,2.76c-0.728,0.414-1.235,0.68-1.521,0.797
	c-0.619,0.248-1.313,0.369-2.115,0.369c-1.37,0-2.527-0.438-3.469-1.32c-0.981-0.939-1.474-2.182-1.474-3.723
	c0-0.328,0.009-0.584,0.024-0.744c0.016-0.186,0.07-0.452,0.152-0.82c0.383-1.82,1.252-3.318,2.6-4.499
	c1.465-1.271,3.236-1.906,5.32-1.906c1.678,0,2.979,0.439,3.898,1.308c0.854,0.802,1.271,1.848,1.271,3.143
	c0,0.491-0.041,0.919-0.125,1.286l-1.485,7.015L72.187,41.182z"/>
<path fill-rule="evenodd" clip-rule="evenodd" fill="#BA2380" d="M76.083,41.182l1.625-7.627c0.299-1.424,1.08-2.645,2.354-3.672
	c1.244-1.012,2.631-1.516,4.152-1.516c1.047,0,1.965,0.296,2.766,0.884c1.041,0.767,1.563,1.843,1.563,3.233
	c0,0.188-0.011,0.391-0.027,0.613c-0.014,0.215-0.049,0.43-0.096,0.66l-1.596,7.424h-2.302l1.581-7.375
	c0.046-0.263,0.076-0.502,0.076-0.722c0-0.713-0.217-1.31-0.651-1.793c-0.429-0.491-1.024-0.733-1.767-0.733
	c-0.857,0-1.642,0.291-2.354,0.873c-0.727,0.604-1.177,1.334-1.346,2.177l-1.61,7.573H76.083z"/>
<path fill-rule="evenodd" clip-rule="evenodd" fill="#BA2380" d="M89.767,34.974c0.421-1.724,1.268-3.174,2.529-4.349
	c1.408-1.291,3.072-1.938,5.011-1.938h2.282l-0.467,2.186h-1.985c-0.927,0-1.854,0.303-2.783,0.902
	c-1.16,0.786-1.879,1.873-2.158,3.248c-0.05,0.249-0.069,0.494-0.069,0.743c0,0.862,0.254,1.595,0.774,2.185
	c0.608,0.693,1.479,1.043,2.621,1.043h1.888l-0.474,2.188h-2.288c-1.654,0-2.927-0.539-3.826-1.617
	c-0.787-0.934-1.182-2.068-1.182-3.38C89.64,35.818,89.681,35.418,89.767,34.974"/>
<path fill-rule="evenodd" clip-rule="evenodd" fill="#BA2380" d="M101.326,34.725c-0.109,0.416-0.161,0.846-0.161,1.295
	c0,0.941,0.245,1.686,0.733,2.236c0.57,0.662,1.463,0.992,2.686,0.992c1.227,0,2.259-0.344,3.086-1.043
	c0.959-0.795,1.579-1.992,1.872-3.584c0.047-0.295,0.08-0.576,0.08-0.84c0-0.979-0.305-1.75-0.908-2.314
	c-0.61-0.572-1.41-0.858-2.415-0.858c-1.338,0-2.477,0.456-3.42,1.358C102.105,32.709,101.588,33.629,101.326,34.725 M98.902,34.772
	c0.418-1.801,1.434-3.333,3.053-4.59c1.525-1.175,3.109-1.765,4.752-1.765c1.453,0,2.688,0.418,3.698,1.259
	c1.109,0.915,1.668,2.151,1.668,3.713c0,0.457-0.051,0.937-0.154,1.435c-0.348,1.635-1.156,3.094-2.416,4.377
	c-1.485,1.484-3.178,2.232-5.083,2.232c-1.791,0-3.188-0.494-4.198-1.488c-1.02-0.965-1.535-2.219-1.535-3.76
	c0-0.389,0.043-0.828,0.129-1.311L98.902,34.772z"/>
<path fill-rule="evenodd" clip-rule="evenodd" fill="#2B478F" d="M114.52,41.182l2.658-12.545c0.553-2.033,1.543-3.534,2.945-4.486
	c1.18-0.815,2.627-1.223,4.354-1.223h2.627l-0.496,2.288h-2.627c-1.182,0-2.127,0.291-2.838,0.866
	c-0.709,0.568-1.205,1.397-1.488,2.505l-0.496,2.364h6.252l-0.494,2.3h-6.25l-1.693,7.932H114.52z"/>
<path fill-rule="evenodd" clip-rule="evenodd" fill="#2B478F" d="M125.773,41.182l2.672-12.494h2.289l-2.654,12.494H125.773z
	 M128.83,25.811c0.123-0.362,0.354-0.672,0.68-0.925c0.311-0.263,0.633-0.39,0.979-0.397c0.336,0,0.602,0.101,0.82,0.299
	c0.18,0.2,0.271,0.468,0.271,0.8c0,0.114-0.008,0.216-0.021,0.287c-0.086,0.416-0.273,0.744-0.572,0.979
	c-0.314,0.269-0.646,0.393-1.016,0.393c-0.336,0-0.621-0.093-0.85-0.283c-0.234-0.188-0.348-0.449-0.348-0.779
	C128.773,26.117,128.795,25.993,128.83,25.811"/>
<path fill-rule="evenodd" clip-rule="evenodd" fill="#2B478F" d="M135.115,35.218l6.965-3.442c-0.381-0.463-0.752-0.775-1.119-0.926
	c-0.391-0.162-0.914-0.24-1.561-0.24c-1.254,0-2.352,0.453-3.281,1.357c-0.969,0.913-1.535,1.968-1.709,3.177
	c-0.018,0.165-0.023,0.313-0.023,0.433c-0.018,0.144-0.023,0.248-0.023,0.316c0,0.96,0.262,1.734,0.787,2.338
	c0.584,0.682,1.434,1.018,2.533,1.018c1.242,0,2.27-0.344,3.092-1.043c0.723-0.621,1.355-1.579,1.898-2.887l2.217,0.326
	c-0.314,1.342-1.133,2.596-2.453,3.756c-1.596,1.385-3.4,2.086-5.418,2.086c-1.473,0-2.693-0.492-3.666-1.453
	c-0.979-0.973-1.467-2.17-1.467-3.594c0-0.246,0.012-0.437,0.025-0.572c0.012-0.115,0.055-0.334,0.107-0.649
	c0.404-2.171,1.461-3.892,3.18-5.158c1.479-1.095,3.033-1.641,4.668-1.641c1.414,0,2.539,0.325,3.383,0.966
	c0.828,0.66,1.459,1.66,1.889,2.998l-9.414,4.684L135.115,35.218z"/>
<path fill="#BA2380" d="M97.128,48.422c-0.188,0.193-0.279,0.418-0.279,0.686c0,0.256,0.092,0.484,0.279,0.668
	c0.191,0.186,0.409,0.277,0.674,0.277c0.262,0,0.489-0.092,0.674-0.277c0.188-0.184,0.279-0.412,0.279-0.668
	c0-0.268-0.092-0.492-0.279-0.686C98.103,48.057,97.503,48.051,97.128,48.422"/>
<polygon fill="#BA2380" points="96.048,58.094 97.304,58.094 98.33,50.605 97.061,50.605 "/>
<path fill="#BA2380" d="M104.316,48.107c-0.732,0-1.424,0.184-2.054,0.547c-0.626,0.365-1.134,0.881-1.513,1.523
	c-0.367,0.652-0.563,1.332-0.563,2.039c0,0.859,0.286,1.65,0.846,2.344c0.57,0.701,1.422,1.055,2.543,1.055
	c0.636,0,1.24-0.131,1.797-0.395c0.555-0.262,1.01-0.621,1.354-1.063l0.117-0.148l-0.95-0.777l-0.117,0.164
	c-0.25,0.32-0.568,0.58-0.939,0.762c-0.379,0.182-0.803,0.273-1.242,0.273c-0.667,0-1.188-0.207-1.581-0.631
	c-0.36-0.381-0.55-0.906-0.578-1.568h6.019l0.018-0.174c0.027-0.24,0.041-0.453,0.041-0.631c0-0.957-0.305-1.756-0.904-2.375
	C106.004,48.422,105.234,48.107,104.316,48.107 M101.672,51.082c0.206-0.502,0.517-0.908,0.932-1.215
	c0.491-0.359,1.036-0.535,1.669-0.535c0.582,0,1.041,0.176,1.424,0.537c0.324,0.32,0.521,0.719,0.574,1.213H101.672z"/>
<path fill="#BA2380" d="M112.578,48.301c-0.693-0.303-1.342-0.234-1.947,0.104c-0.164,0.09-0.326,0.203-0.467,0.33l0.059-0.449
	h-1.27l-0.965,7.158h1.243l0.424-3.037c0.119-0.902,0.279-1.559,0.455-1.939c0.164-0.377,0.387-0.654,0.652-0.844
	c0.266-0.197,0.518-0.281,0.785-0.281c0.117,0,0.271,0.033,0.467,0.111l0.16,0.07l0.592-1.137L112.578,48.301z"/>
<path fill="#BA2380" d="M116.428,48.107c-0.729,0-1.428,0.184-2.049,0.547c-0.631,0.365-1.141,0.881-1.51,1.523
	c-0.375,0.652-0.564,1.332-0.564,2.039c0,0.859,0.283,1.65,0.844,2.344c0.568,0.701,1.42,1.055,2.545,1.055
	c0.633,0,1.242-0.131,1.793-0.395c0.557-0.262,1.012-0.621,1.359-1.063l0.117-0.148l-0.955-0.777l-0.125,0.164
	c-0.244,0.32-0.559,0.58-0.936,0.762c-0.375,0.182-0.793,0.273-1.234,0.273c-0.672,0-1.189-0.207-1.584-0.631
	c-0.363-0.381-0.555-0.906-0.574-1.568h6.008l0.02-0.174c0.027-0.24,0.045-0.453,0.045-0.631c0-0.957-0.301-1.756-0.908-2.375
	C118.119,48.422,117.348,48.107,116.428,48.107 M113.787,51.082c0.201-0.502,0.518-0.914,0.932-1.215
	c0.48-0.355,1.043-0.535,1.674-0.535c0.574,0,1.037,0.176,1.414,0.537c0.338,0.32,0.523,0.719,0.576,1.213H113.787z"/>
<path fill="#BA2380" d="M122.91,49.318c0.455,0,0.85,0.238,1.197,0.734l0.164,0.232l0.705-1.059l-0.09-0.111
	c-0.297-0.369-0.602-0.627-0.9-0.779c-0.305-0.152-0.643-0.229-1.008-0.229c-0.629,0-1.154,0.199-1.566,0.586
	c-0.416,0.385-0.625,0.863-0.625,1.418c0,0.359,0.098,0.688,0.295,0.971c0.195,0.279,0.578,0.615,1.176,1.02
	c0.627,0.434,0.85,0.635,0.926,0.723c0.16,0.203,0.236,0.4,0.236,0.609c0,0.258-0.102,0.479-0.313,0.678s-0.457,0.305-0.742,0.305
	c-0.533,0-1.02-0.283-1.484-0.842l-0.15-0.188l-0.781,0.912l0.102,0.129c0.6,0.783,1.367,1.186,2.266,1.186
	c0.682,0,1.244-0.201,1.682-0.609c0.436-0.412,0.652-0.932,0.652-1.555c0-0.443-0.113-0.846-0.338-1.195
	c-0.225-0.34-0.666-0.715-1.336-1.148c-0.531-0.344-0.727-0.533-0.805-0.639c-0.105-0.129-0.156-0.258-0.156-0.398
	c0-0.184,0.086-0.344,0.258-0.512C122.445,49.402,122.656,49.318,122.91,49.318"/>
<polygon fill="#BA2380" points="132.203,45.75 130.961,45.75 130.619,48.285 129.465,48.285 129.303,49.43 130.465,49.43 
	129.652,55.443 130.918,55.443 131.715,49.43 133.082,49.43 133.234,48.285 131.871,48.285 "/>
<polygon fill="#BA2380" points="140.154,45.113 138.23,45.113 136.266,47.416 137.621,47.416 "/>
<path fill="#BA2380" d="M138.664,51.838c-0.117,0.889-0.199,1.23-0.234,1.361c-0.129,0.371-0.332,0.664-0.625,0.885
	c-0.283,0.227-0.613,0.336-1.008,0.336c-0.475,0-0.834-0.143-1.121-0.424c-0.279-0.287-0.422-0.646-0.422-1.098
	c0-0.213,0.064-0.74,0.186-1.561l0.439-3.053h-1.262l-0.396,2.74l-0.094,0.852c-0.055,0.404-0.078,0.738-0.078,1.033
	c0,0.762,0.254,1.414,0.764,1.926c0.502,0.523,1.156,0.777,1.943,0.777c0.688,0,1.279-0.178,1.758-0.533
	c0.48-0.359,0.826-0.816,1.008-1.365c0.18-0.525,0.346-1.395,0.506-2.648l0.361-2.781h-1.242L138.664,51.838z"/>
<polygon fill="#BA2380" points="144.023,45.672 142.766,45.672 141.752,53.156 143.018,53.156 "/>
<path fill="#BA2380" d="M141.553,53.994c-0.184,0.184-0.277,0.41-0.277,0.668c0,0.256,0.094,0.486,0.277,0.67
	c0.188,0.188,0.412,0.287,0.674,0.287c0.266,0,0.492-0.1,0.68-0.287c0.188-0.184,0.277-0.414,0.277-0.67
	c0-0.258-0.09-0.484-0.277-0.67C142.533,53.611,141.924,53.619,141.553,53.994"/>
</svg>
