<?xml version="1.0" encoding="utf-8"?>
<!-- Generator: Adobe Illustrator 21.1.0, SVG Export Plug-In . SVG Version: 6.00 Build 0)  -->
<svg version="1.1" id="Layer_1" xmlns="http://www.w3.org/2000/svg" xmlns:xlink="http://www.w3.org/1999/xlink" x="0px" y="0px"
	 viewBox="0 0 446.9 446.9" style="enable-background:new 0 0 446.9 446.9;" xml:space="preserve">
<style type="text/css">
	.st0{fill:#73879C;}
</style>
<g id="XMLID_745_">
	<g>
		<g>
			<path class="st0" d="M326.4,233.2v-30.3c0-48.3-33.2-88.8-78-99.9V72.1c0-13.8-11.2-25-25-25s-25,11.2-25,25V103
				c-44.8,11.2-78,51.7-78,99.9v30.3c0,32.4-12.9,63.5-35.8,86.5c-10.1,10.1-13.1,25.2-7.6,38.4s18.3,21.8,32.6,21.8h62.1
				c0,28.6,23.2,51.7,51.7,51.7s51.7-23.2,51.7-51.7h62.1c14.3,0,27.1-8.6,32.6-21.8c5.5-13.2,2.4-28.3-7.6-38.4
				C339.3,296.8,326.4,265.7,326.4,233.2z M223.4,401.6c-12,0-21.7-9.8-21.7-21.7h43.5C245.1,391.9,235.4,401.6,223.4,401.6z
				 M342.1,346.7c-0.8,2-2.7,3.2-4.9,3.2H109.5c-2.1,0-4-1.3-4.9-3.2c-0.8-2-0.4-4.2,1.1-5.7c28.8-28.8,44.6-67,44.6-107.7v-30.3
				c0-40.3,32.7-73,73-73s73,32.7,73,73v30.3c0,40.7,15.8,78.9,44.6,107.7C342.5,342.4,343,344.7,342.1,346.7z"/>
			<path class="st0" d="M86.1,233.1c7.8-2.7,12-11.2,9.4-19c-16.6-48.6,9.5-101.6,58.1-118.2c7.8-2.7,12-11.2,9.4-19
				c-2.7-7.8-11.2-12-19-9.4c-64.3,21.9-98.8,92-76.9,156.3c2.1,6.2,8,10.2,14.2,10.2C82.9,233.9,84.5,233.6,86.1,233.1z"/>
			<path class="st0" d="M130.1,44.4c7.8-2.7,12-11.2,9.4-19c-2.7-7.8-11.2-12-19-9.4C27.7,47.6-22.1,148.8,9.5,241.5
				c2.1,6.2,8,10.2,14.2,10.2c1.6,0,3.2-0.3,4.8-0.8c7.8-2.7,12-11.2,9.4-19C11.6,154.7,53,70.7,130.1,44.4z"/>
			<path class="st0" d="M302.8,67.4c-7.8-2.7-16.4,1.5-19,9.4c-2.7,7.8,1.5,16.4,9.4,19c48.6,16.6,74.7,69.6,58.1,118.2
				c-2.7,7.8,1.5,16.4,9.4,19c1.6,0.5,3.2,0.8,4.8,0.8c6.2,0,12.1-3.9,14.2-10.2C401.6,159.4,367.1,89.3,302.8,67.4z"/>
			<path class="st0" d="M428.5,105.8C407.6,63.2,371.3,31.3,326.4,16c-7.8-2.7-16.4,1.5-19,9.4s1.5,16.4,9.4,19
				c37.3,12.7,67.5,39.2,84.9,74.6s20,75.5,7.3,112.8c-2.7,7.8,1.5,16.4,9.4,19c1.6,0.5,3.2,0.8,4.8,0.8c6.2,0,12.1-3.9,14.2-10.2
				C452.6,196.6,449.5,148.4,428.5,105.8z"/>
		</g>
	</g>
</g>
</svg>
