<?xml version="1.0" encoding="UTF-8" standalone="no"?>
<svg
   xmlns:dc="http://purl.org/dc/elements/1.1/"
   xmlns:cc="http://creativecommons.org/ns#"
   xmlns:rdf="http://www.w3.org/1999/02/22-rdf-syntax-ns#"
   xmlns:svg="http://www.w3.org/2000/svg"
   xmlns="http://www.w3.org/2000/svg"
   xmlns:sodipodi="http://sodipodi.sourceforge.net/DTD/sodipodi-0.dtd"
   xmlns:inkscape="http://www.inkscape.org/namespaces/inkscape"
   viewBox="0 0 436.823 36.058"
   version="1.1"
   id="svg14"
   sodipodi:docname="logo-cobis-service-desk-w.svg"
   inkscape:version="0.92.2 5c3e80d, 2017-08-06">
  <metadata
     id="metadata20">
    <rdf:RDF>
      <cc:Work
         rdf:about="">
        <dc:format>image/svg+xml</dc:format>
        <dc:type
           rdf:resource="http://purl.org/dc/dcmitype/StillImage" />
        <dc:title></dc:title>
      </cc:Work>
    </rdf:RDF>
  </metadata>
  <defs
     id="defs18" />
  <sodipodi:namedview
     pagecolor="#ffffff"
     bordercolor="#666666"
     borderopacity="1"
     objecttolerance="10"
     gridtolerance="10"
     guidetolerance="10"
     inkscape:pageopacity="0"
     inkscape:pageshadow="2"
     inkscape:window-width="1316"
     inkscape:window-height="524"
     id="namedview16"
     showgrid="false"
     inkscape:zoom="0.94546304"
     inkscape:cx="80.912735"
     inkscape:cy="18.028999"
     inkscape:window-x="0"
     inkscape:window-y="0"
     inkscape:window-maximized="0"
     inkscape:current-layer="svg14" />
  <g
     id="g4"
     style="fill:#ffffff">
    <path
       d="m 40.074,9.676 -4.959,1.772 C 31.779,7.901 27.11,6.128 21.106,6.128 c -4.55,0 -8.256,1.168 -11.122,3.502 -2.865,2.336 -4.298,5.307 -4.298,8.915 0,3.73 1.416,6.74 4.253,9.03 2.835,2.288 6.665,3.433 11.485,3.433 5.822,0 10.401,-1.803 13.737,-5.412 l 4.685,2.594 c -2.366,2.758 -5.042,4.752 -8.029,5.98 -2.986,1.23 -6.557,1.842 -10.71,1.842 -5.823,0 -10.66,-1.456 -14.51,-4.366 C 2.198,28.31 0,23.943 0,18.545 0,13.24 2.229,8.902 6.686,5.535 c 3.883,-2.94 8.689,-4.41 14.42,-4.41 8.248,0 14.57,2.85 18.968,8.55 m 40.392,8.917 c 0,-3.852 -1.637,-6.974 -4.912,-9.372 -2.822,-2.062 -6.323,-3.092 -10.508,-3.092 -4.579,0 -8.31,1.175 -11.19,3.526 -2.881,2.349 -4.321,5.329 -4.321,8.938 0,3.728 1.41,6.738 4.23,9.028 2.82,2.29 6.58,3.435 11.281,3.435 4.669,0 8.408,-1.152 11.211,-3.458 2.805,-2.303 4.21,-5.305 4.21,-9.005 m 5.684,0 c 0,5.397 -2.214,9.763 -6.641,13.098 -3.881,2.913 -8.703,4.368 -14.464,4.368 -5.821,0 -10.675,-1.47 -14.556,-4.413 -4.428,-3.335 -6.641,-7.687 -6.641,-13.053 0,-5.278 2.243,-9.613 6.732,-13.01 3.941,-2.972 8.764,-4.457 14.465,-4.457 5.733,0 10.538,1.485 14.418,4.457 4.458,3.397 6.687,7.732 6.687,13.01 m 31.931,11.598 c 4.548,0 6.823,-1.5 6.823,-4.502 0,-3.215 -1.985,-4.823 -5.959,-4.823 H 97.25 v 9.325 z m 0.409,-14.237 c 1.516,0 2.781,-0.434 3.799,-1.303 1.015,-0.867 1.525,-1.927 1.525,-3.177 0,-1.342 -0.457,-2.41 -1.367,-3.2 -0.91,-0.793 -2.152,-1.19 -3.728,-1.19 H 97.25 v 8.87 z m 6.367,2.183 c 3.762,1.274 5.642,4.048 5.642,8.325 0,5.762 -4.155,8.642 -12.464,8.642 H 91.791 V 2.17 h 26.61 c 3.335,0 5.957,0.819 7.869,2.456 1.91,1.638 2.866,3.822 2.866,6.55 0,3.003 -1.426,5.323 -4.278,6.96 m 16.832,16.966 h -5.459 V 2.17 h 5.459 z M 177.94,9.904 c -4.88,-2.487 -9.854,-3.73 -14.92,-3.73 -3.364,0 -5.942,0.393 -7.73,1.182 -1.79,0.788 -2.685,1.88 -2.685,3.276 0,1.454 0.956,2.518 2.866,3.183 1.365,0.485 3.594,0.817 6.687,1.001 4.548,0.303 7.55,0.545 9.007,0.726 4.123,0.547 7.17,1.564 9.14,3.05 1.972,1.485 2.958,3.592 2.958,6.322 0,3.487 -1.547,6.186 -4.638,8.096 -3.094,1.911 -7.537,2.866 -13.33,2.866 -8.398,0 -14.934,-1.85 -19.603,-5.549 l 3.003,-3.958 c 5.153,3.155 10.703,4.73 16.647,4.73 3.85,0 6.838,-0.53 8.96,-1.59 2.033,-1.033 3.048,-2.442 3.048,-4.232 0,-2.09 -1.334,-3.486 -4.003,-4.185 -1.395,-0.363 -5.155,-0.742 -11.28,-1.136 -5.43,-0.364 -9.234,-1.092 -11.417,-2.184 -2.548,-1.273 -3.82,-3.41 -3.82,-6.413 0,-3.093 1.446,-5.534 4.343,-7.324 2.895,-1.789 6.982,-2.684 12.258,-2.684 7.096,0 13.039,1.623 17.831,4.869 z"
       id="path2"
       inkscape:connector-curvature="0"
       style="fill:#ffffff" />
  </g>
  <g
     aria-label="Onboarding"
     id="g10"
     style="fill:#ffffff">
    <g
       aria-label="Service Desk"
       font-size="47.5"
       font-weight="400"
       letter-spacing="0"
       style="font-weight:400;font-size:47.5px;line-height:1.25;font-family:'Futura PT';-inkscape-font-specification:'Futura PT';letter-spacing:0;word-spacing:0;fill:#ffffff;stroke-width:1.05499995"
       word-spacing="0"
       id="g8">
      <path
         d="m 221.199,7.362 c -0.713,-1.377 -1.805,-2.66 -3.088,-3.515 -1.567,-1.045 -3.135,-1.425 -5.082,-1.425 -5.13,0 -8.883,3.278 -8.883,8.17 0,2.375 0.808,3.848 2.185,5.178 1.425,1.377 2.993,2.042 4.228,2.612 l 2.85,1.33 c 1.662,0.76 2.897,1.33 3.8,2.185 1.14,1.045 1.567,2.28 1.567,3.705 0,3.183 -2.042,6.27 -6.365,6.27 -1.615,0 -3.182,-0.38 -4.56,-1.757 -0.902,-0.95 -1.662,-2.375 -1.9,-4.038 l -3.42,0.95 c 0.428,1.9 1.378,4.085 2.945,5.605 2.185,2.138 4.798,2.565 6.888,2.565 5.7,0 10.022,-3.895 10.022,-9.737 0,-2.28 -0.665,-4.133 -2.28,-5.748 -1.33,-1.33 -3.04,-2.185 -4.892,-2.992 l -3.04,-1.33 c -1.188,-0.523 -2.375,-1.045 -3.325,-1.995 -0.855,-0.808 -1.188,-1.52 -1.188,-2.755 0,-2.945 2.185,-4.893 5.32,-4.893 1.805,0 2.945,0.618 3.563,1.093 0.712,0.57 1.425,1.52 1.852,2.375 z m 21.402,20.663 a 7.853,7.853 0 0 1 -2.042,2.707 c -1.14,0.95 -2.423,1.425 -4.038,1.425 -3.42,0 -6.222,-2.612 -6.27,-6.697 h 15.343 c 0.095,-2.613 -0.618,-5.653 -1.853,-7.41 -1.187,-1.71 -3.61,-3.61 -7.457,-3.61 -5.938,0 -9.548,4.56 -9.548,10.45 0,7.315 4.988,10.307 9.738,10.307 2.517,0 4.75,-0.807 6.555,-2.422 0.997,-0.903 1.852,-2.09 2.422,-3.183 z M 230.49,22.61 c 0.522,-2.945 2.897,-5.13 5.795,-5.13 2.897,0 5.225,2.042 5.795,5.13 z m 20.303,12.017 h 3.42 V 24.225 c 0,-3.23 0.57,-4.56 1.14,-5.32 0.523,-0.665 1.378,-1.235 2.755,-1.235 0.523,0 1.235,0.142 1.995,0.665 l 1.615,-3.088 c -0.855,-0.427 -1.995,-0.807 -3.04,-0.807 -2.66,0 -4.132,2.09 -4.465,2.612 v -2.137 h -3.42 z m 12.273,-19.712 9.69,20.995 9.69,-20.995 h -3.8 l -5.89,13.3 -5.89,-13.3 z m 22.981,0 v 19.712 h 3.42 V 14.915 Z m -0.712,-7.458 a 2.433,2.433 0 0 0 2.422,2.423 2.433,2.433 0 0 0 2.423,-2.423 2.433,2.433 0 0 0 -2.423,-2.422 2.433,2.433 0 0 0 -2.422,2.422 z m 26.077,8.883 c -0.95,-0.665 -2.993,-1.9 -6.128,-1.9 -6.08,0 -10.545,4.417 -10.545,10.45 0,5.937 4.418,10.307 10.545,10.307 1.853,0 4.133,-0.475 6.27,-2.042 V 29.07 c -1.805,2.185 -4.322,3.087 -6.365,3.087 -3.515,0 -6.935,-2.517 -6.935,-7.315 0,-4.797 3.325,-7.362 6.983,-7.362 1.757,0 4.37,0.665 6.175,2.945 z m 19.973,11.685 a 7.853,7.853 0 0 1 -2.042,2.707 c -1.14,0.95 -2.423,1.425 -4.038,1.425 -3.42,0 -6.222,-2.612 -6.27,-6.697 h 15.343 c 0.095,-2.613 -0.618,-5.653 -1.853,-7.41 -1.187,-1.71 -3.61,-3.61 -7.457,-3.61 -5.938,0 -9.548,4.56 -9.548,10.45 0,7.315 4.988,10.307 9.738,10.307 2.517,0 4.75,-0.807 6.555,-2.422 0.997,-0.903 1.852,-2.09 2.422,-3.183 z M 319.273,22.61 c 0.522,-2.945 2.897,-5.13 5.795,-5.13 2.897,0 5.225,2.042 5.795,5.13 z m 32.2,12.017 h 6.412 c 5.653,0 8.693,-1.187 11.59,-3.657 2.28,-1.948 5.558,-5.51 5.558,-12.16 0,-5.7 -2.518,-9.738 -5.415,-12.16 -3.99,-3.373 -8.503,-3.705 -11.685,-3.705 h -6.46 z M 354.988,6.27 h 3.087 c 8.028,0 13.348,4.94 13.348,12.54 0,4.512 -1.9,7.647 -4.275,9.642 -3.088,2.565 -6.555,2.85 -9.073,2.85 h -3.087 z m 40.318,21.755 a 7.853,7.853 0 0 1 -2.042,2.707 c -1.14,0.95 -2.423,1.425 -4.038,1.425 -3.42,0 -6.222,-2.612 -6.27,-6.697 H 398.3 c 0.095,-2.613 -0.618,-5.653 -1.853,-7.41 -1.187,-1.71 -3.61,-3.61 -7.457,-3.61 -5.938,0 -9.548,4.56 -9.548,10.45 0,7.315 4.988,10.307 9.738,10.307 2.517,0 4.75,-0.807 6.555,-2.422 0.997,-0.903 1.852,-2.09 2.422,-3.183 z M 383.194,22.61 c 0.522,-2.945 2.897,-5.13 5.795,-5.13 2.897,0 5.225,2.042 5.795,5.13 z m 31.23,-4.608 c -1.568,-3.372 -4.37,-3.562 -5.415,-3.562 -3.325,0 -5.748,2.042 -5.748,5.51 0,0.997 0.143,1.947 0.903,2.897 0.902,1.093 2.422,1.853 4.797,2.898 1.853,0.807 3.183,1.425 3.183,3.277 0,1.473 -0.998,3.135 -3.23,3.135 -2.47,0 -3.61,-2.184 -3.99,-3.23 l -2.945,1.235 c 1.662,4.94 6.08,5.035 6.887,5.035 3.8,0 6.793,-2.327 6.793,-6.46 0,-1.092 -0.19,-2.137 -1.045,-3.182 -0.76,-0.95 -2.09,-1.853 -4.94,-3.04 -2.233,-0.95 -3.183,-1.378 -3.183,-2.803 0,-1.52 1.14,-2.232 2.375,-2.232 1.283,0 2.28,0.855 2.755,1.995 z M 420.198,0 v 34.627 h 3.42 v -8.122 l 0.855,-0.855 7.885,8.977 h 4.465 l -9.975,-11.257 8.455,-8.455 h -4.465 l -7.22,7.315 V 0 Z"
         style="-inkscape-font-specification:'Futura PT';fill:#ffffff"
         id="path6"
         inkscape:connector-curvature="0" />
    </g>
  </g>
  <text
     x="-485.838"
     y="311.787"
     fill="#00a7cd"
     stroke-width=".938"
     font-family="Futura PT"
     font-size="37.5"
     font-weight="400"
     letter-spacing="0"
     style="line-height:1.25;-inkscape-font-specification:'Futura PT'"
     transform="translate(756.653 -204.642)"
     word-spacing="0"
     id="text12" />
</svg>
