<?xml version="1.0" encoding="UTF-8" standalone="no"?>
<svg xmlns:svg="http://www.w3.org/2000/svg" xmlns="http://www.w3.org/2000/svg" viewBox="0 0 436.823 36.058">
  <g fill="#596164">
    <path d="M40.074 9.676l-4.959 1.772c-3.336-3.547-8.005-5.32-14.009-5.32-4.55 0-8.256 1.168-11.122 3.502-2.865 2.336-4.298 5.307-4.298 8.915 0 3.73 1.416 6.74 4.253 9.03 2.835 2.288 6.665 3.433 11.485 3.433 5.822 0 10.401-1.803 13.737-5.412l4.685 2.594c-2.366 2.758-5.042 4.752-8.029 5.98-2.986 1.23-6.557 1.842-10.71 1.842-5.823 0-10.66-1.456-14.51-4.366C2.198 28.31 0 23.943 0 18.545c0-5.305 2.229-9.643 6.686-13.01 3.883-2.94 8.689-4.41 14.42-4.41 8.248 0 14.57 2.85 18.968 8.55M80.466 18.592c0-3.852-1.637-6.974-4.912-9.372-2.822-2.062-6.323-3.092-10.508-3.092-4.579 0-8.31 1.175-11.19 3.526-2.881 2.349-4.321 5.329-4.321 8.938 0 3.728 1.41 6.738 4.23 9.028 2.82 2.29 6.58 3.435 11.281 3.435 4.669 0 8.408-1.152 11.211-3.458 2.805-2.303 4.21-5.305 4.21-9.005m5.684 0c0 5.397-2.214 9.763-6.641 13.098-3.881 2.913-8.703 4.368-14.464 4.368-5.821 0-10.675-1.47-14.556-4.413-4.428-3.335-6.641-7.687-6.641-13.053 0-5.278 2.243-9.613 6.732-13.01 3.941-2.972 8.764-4.457 14.465-4.457 5.733 0 10.538 1.485 14.418 4.457 4.458 3.397 6.687 7.732 6.687 13.01M118.082 30.19c4.548 0 6.823-1.5 6.823-4.502 0-3.215-1.985-4.823-5.959-4.823H97.25v9.325zm.409-14.237c1.516 0 2.781-.434 3.799-1.303 1.015-.867 1.525-1.927 1.525-3.177 0-1.342-.457-2.41-1.367-3.2-.91-.793-2.152-1.19-3.728-1.19H97.25v8.87zm6.367 2.183c3.762 1.274 5.642 4.048 5.642 8.325 0 5.762-4.155 8.642-12.464 8.642H91.791V2.17h26.61c3.335 0 5.957.819 7.869 2.456 1.91 1.638 2.866 3.822 2.866 6.55 0 3.003-1.426 5.323-4.278 6.96M141.69 35.102h-5.459V2.17h5.459zM177.94 9.904c-4.88-2.487-9.854-3.73-14.92-3.73-3.364 0-5.942.393-7.73 1.182-1.79.788-2.685 1.88-2.685 3.276 0 1.454.956 2.518 2.866 3.183 1.365.485 3.594.817 6.687 1.001 4.548.303 7.55.545 9.007.726 4.123.547 7.17 1.564 9.14 3.05 1.972 1.485 2.958 3.592 2.958 6.322 0 3.487-1.547 6.186-4.638 8.096-3.094 1.911-7.537 2.866-13.33 2.866-8.398 0-14.934-1.85-19.603-5.549l3.003-3.958c5.153 3.155 10.703 4.73 16.647 4.73 3.85 0 6.838-.53 8.96-1.59 2.033-1.033 3.048-2.442 3.048-4.232 0-2.09-1.334-3.486-4.003-4.185-1.395-.363-5.155-.742-11.28-1.136-5.43-.364-9.234-1.092-11.417-2.184-2.548-1.273-3.82-3.41-3.82-6.413 0-3.093 1.446-5.534 4.343-7.324 2.895-1.789 6.982-2.684 12.258-2.684 7.096 0 13.039 1.623 17.831 4.869z"/>
  </g>
  <g aria-label="Onboarding">
    <g fill="#00a7cd" stroke-width="1.055" aria-label="Service Desk" font-family="Futura PT" font-size="47.5" font-weight="400" letter-spacing="0" style="line-height:1.25;-inkscape-font-specification:'Futura PT'" word-spacing="0">
      <path d="M221.199 7.362c-.713-1.377-1.805-2.66-3.088-3.515-1.567-1.045-3.135-1.425-5.082-1.425-5.13 0-8.883 3.278-8.883 8.17 0 2.375.808 3.848 2.185 5.178 1.425 1.377 2.993 2.042 4.228 2.612l2.85 1.33c1.662.76 2.897 1.33 3.8 2.185 1.14 1.045 1.567 2.28 1.567 3.705 0 3.183-2.042 6.27-6.365 6.27-1.615 0-3.182-.38-4.56-1.757-.902-.95-1.662-2.375-1.9-4.038l-3.42.95c.428 1.9 1.378 4.085 2.945 5.605 2.185 2.138 4.798 2.565 6.888 2.565 5.7 0 10.022-3.895 10.022-9.737 0-2.28-.665-4.133-2.28-5.748-1.33-1.33-3.04-2.185-4.892-2.992l-3.04-1.33c-1.188-.523-2.375-1.045-3.325-1.995-.855-.808-1.188-1.52-1.188-2.755 0-2.945 2.185-4.893 5.32-4.893 1.805 0 2.945.618 3.563 1.093.712.57 1.425 1.52 1.852 2.375zM242.601 28.025a7.853 7.853 0 0 1-2.042 2.707c-1.14.95-2.423 1.425-4.038 1.425-3.42 0-6.222-2.612-6.27-6.697h15.343c.095-2.613-.618-5.653-1.853-7.41-1.187-1.71-3.61-3.61-7.457-3.61-5.938 0-9.548 4.56-9.548 10.45 0 7.315 4.988 10.307 9.738 10.307 2.517 0 4.75-.807 6.555-2.422.997-.903 1.852-2.09 2.422-3.183zM230.49 22.61c.522-2.945 2.897-5.13 5.795-5.13 2.897 0 5.225 2.042 5.795 5.13zM250.793 34.627h3.42V24.225c0-3.23.57-4.56 1.14-5.32.523-.665 1.378-1.235 2.755-1.235.523 0 1.235.142 1.995.665l1.615-3.088c-.855-.427-1.995-.807-3.04-.807-2.66 0-4.132 2.09-4.465 2.612v-2.137h-3.42zM263.066 14.915l9.69 20.995 9.69-20.995h-3.8l-5.89 13.3-5.89-13.3zM286.047 14.915v19.712h3.42V14.915zm-.712-7.458a2.433 2.433 0 0 0 2.422 2.423 2.433 2.433 0 0 0 2.423-2.423 2.433 2.433 0 0 0-2.423-2.422 2.433 2.433 0 0 0-2.422 2.422zM311.412 16.34c-.95-.665-2.993-1.9-6.128-1.9-6.08 0-10.545 4.417-10.545 10.45 0 5.937 4.418 10.307 10.545 10.307 1.853 0 4.133-.475 6.27-2.042V29.07c-1.805 2.185-4.322 3.087-6.365 3.087-3.515 0-6.935-2.517-6.935-7.315 0-4.797 3.325-7.362 6.983-7.362 1.757 0 4.37.665 6.175 2.945zM331.385 28.025a7.853 7.853 0 0 1-2.042 2.707c-1.14.95-2.423 1.425-4.038 1.425-3.42 0-6.222-2.612-6.27-6.697h15.343c.095-2.613-.618-5.653-1.853-7.41-1.187-1.71-3.61-3.61-7.457-3.61-5.938 0-9.548 4.56-9.548 10.45 0 7.315 4.988 10.307 9.738 10.307 2.517 0 4.75-.807 6.555-2.422.997-.903 1.852-2.09 2.422-3.183zm-12.112-5.415c.522-2.945 2.897-5.13 5.795-5.13 2.897 0 5.225 2.042 5.795 5.13zM351.473 34.627h6.412c5.653 0 8.693-1.187 11.59-3.657 2.28-1.948 5.558-5.51 5.558-12.16 0-5.7-2.518-9.738-5.415-12.16-3.99-3.373-8.503-3.705-11.685-3.705h-6.46zm3.515-28.357h3.087c8.028 0 13.348 4.94 13.348 12.54 0 4.512-1.9 7.647-4.275 9.642-3.088 2.565-6.555 2.85-9.073 2.85h-3.087zM395.306 28.025a7.853 7.853 0 0 1-2.042 2.707c-1.14.95-2.423 1.425-4.038 1.425-3.42 0-6.222-2.612-6.27-6.697H398.3c.095-2.613-.618-5.653-1.853-7.41-1.187-1.71-3.61-3.61-7.457-3.61-5.938 0-9.548 4.56-9.548 10.45 0 7.315 4.988 10.307 9.738 10.307 2.517 0 4.75-.807 6.555-2.422.997-.903 1.852-2.09 2.422-3.183zm-12.112-5.415c.522-2.945 2.897-5.13 5.795-5.13 2.897 0 5.225 2.042 5.795 5.13zM414.424 18.002c-1.568-3.372-4.37-3.562-5.415-3.562-3.325 0-5.748 2.042-5.748 5.51 0 .997.143 1.947.903 2.897.902 1.093 2.422 1.853 4.797 2.898 1.853.807 3.183 1.425 3.183 3.277 0 1.473-.998 3.135-3.23 3.135-2.47 0-3.61-2.184-3.99-3.23l-2.945 1.235c1.662 4.94 6.08 5.035 6.887 5.035 3.8 0 6.793-2.327 6.793-6.46 0-1.092-.19-2.137-1.045-3.182-.76-.95-2.09-1.853-4.94-3.04-2.233-.95-3.183-1.378-3.183-2.803 0-1.52 1.14-2.232 2.375-2.232 1.283 0 2.28.855 2.755 1.995zM420.198 0v34.627h3.42v-8.122l.855-.855 7.885 8.977h4.465l-9.975-11.257 8.455-8.455h-4.465l-7.22 7.315V0z" style="-inkscape-font-specification:'Futura PT'"/>
    </g>
  </g>
  <text x="-485.838" y="311.787" fill="#00a7cd" stroke-width=".938" font-family="Futura PT" font-size="37.5" font-weight="400" letter-spacing="0" style="line-height:1.25;-inkscape-font-specification:'Futura PT'" transform="translate(756.653 -204.642)" word-spacing="0"/>
</svg>
