<svg
	xmlns="http://www.w3.org/2000/svg"
	xmlns:xlink="http://www.w3.org/1999/xlink">
	<defs>
		<symbol id="calendar" viewBox="0 0 24 24">
			<path stroke-width="1.5" stroke-linecap="round" stroke-linejoin="round" d="M1.994 3.977h20.071v18.034h-20.071z"></path>
			<path stroke-width="1.5" stroke-linecap="round" stroke-linejoin="round" d="M5.994 2.009v4.104"></path>
			<path stroke-width="1.5" stroke-linecap="round" stroke-linejoin="round" d="M18.006 2.058v4.104"></path>
			<path stroke-width="1" stroke-linecap="butt" stroke-linejoin="round" d="M1.776 9.491h20.448"></path>
			<path stroke-width="1" stroke-linecap="butt" stroke-linejoin="round" d="M2.074 15.507h19.912"></path>
			<path stroke-width="1" stroke-linecap="butt" stroke-linejoin="round" d="M15.548 9.156l-0.040 12.735"></path>
			<path stroke-width="1" stroke-linecap="butt" stroke-linejoin="round" d="M8.511 9.024v12.928"></path>
		</symbol>
		<symbol id="close" viewBox="0 0 24 24">
			<path stroke-width="2" stroke-linecap="round" stroke-linejoin="round" d="M1.497 22.491l21.007-21.007"></path>
			<path stroke-width="2" stroke-linecap="round" stroke-linejoin="round" d="M22.503 22.491l-21.007-21.007"></path>
		</symbol>
		<symbol id="contribute" viewBox="0 0 24 24">
			<path stroke-width="1.5" stroke-linecap="butt" stroke-linejoin="round" d="M22.298 15.809c0 3.16-2.562 5.722-5.722 5.722s-5.722-2.562-5.722-5.722c0-3.16 2.562-5.722 5.722-5.722s5.722 2.562 5.722 5.722z"></path>
			<path stroke-width="1.5" stroke-linecap="round" stroke-linejoin="round" d="M19.441 8.314l-1.125-5.845-14.966 2.553 2.553 14.114 3.041-0.563"></path>
			<path stroke-width="1.5" stroke-linecap="butt" stroke-linejoin="round" d="M12.127 3.498l-9.512-0.887-0.913 14.815 3.666 0.41"></path>
			<path stroke-width="1" stroke-linecap="round" stroke-linejoin="round" d="M13.764 15.457l2.813-2.813 2.813 2.813"></path>
			<path stroke-width="1" stroke-linecap="round" stroke-linejoin="round" d="M16.577 12.654v6.459"></path>
		</symbol>
		<symbol id="explore" viewBox="0 0 24 24">
			<path stroke-width="1.5" stroke-linecap="round" stroke-linejoin="round" d="M22.5 12c0 5.799-4.701 10.5-10.5 10.5s-10.5-4.701-10.5-10.5c0-5.799 4.701-10.5 10.5-10.5s10.5 4.701 10.5 10.5z"></path>
			<path stroke-width="1.5" stroke-linecap="round" stroke-linejoin="round" d="M11.949 5.453v-1.169"></path>
			<path stroke-width="1.5" stroke-linecap="round" stroke-linejoin="round" d="M11.949 19.57v-1.169"></path>
			<path stroke-width="1.5" stroke-linecap="round" stroke-linejoin="round" d="M18.39 12.025h1.169"></path>
			<path stroke-width="1.5" stroke-linecap="round" stroke-linejoin="round" d="M4.405 12.091h1.169"></path>
			<path stroke-width="1.5" stroke-linecap="round" stroke-linejoin="round" d="M7.449 7.475l6.051 3.153 3.051 5.898-6.051-3.102z"></path>
			<path stroke-width="1" stroke-linecap="round" stroke-linejoin="round" d="M11.976 12h0.049"></path>
		</symbol>
		<symbol id="event-do" viewBox="0 0 24 24">
			<path stroke-width="1.5" stroke-linecap="round" stroke-linejoin="round" d="M1.994 3.977h20.071v18.034h-20.071z"></path>
			<path stroke-width="1.5" stroke-linecap="round" stroke-linejoin="miter" d="M5.994 2.009v4.104"></path>
			<path stroke-width="1.5" stroke-linecap="round" stroke-linejoin="miter" d="M18.006 2.058v4.104"></path>
			<path stroke-width="1" stroke-linecap="round" stroke-linejoin="miter" d="M1.776 9.491h20.448"></path>
			<path stroke-width="1.5" stroke-linecap="round" stroke-linejoin="round" d="M8.501 15l3 3 4-6"></path>
		</symbol>
		<symbol id="home" viewBox="0 0 24 24">
			<path stroke-width="1.5" stroke-linecap="round" stroke-linejoin="round" d="M12 3.006l-9.994 8.051h3.010v9.936h13.967v-9.936h3.010z"></path>
			<path stroke-width="1" stroke-linecap="round" stroke-linejoin="round" d="M9.488 13.488h5.024v7.024h-5.024v-7.024z"></path>
		</symbol>
		<symbol id="save" viewBox="0 0 24 24">
			<path stroke-width="1.5" stroke-linecap="butt" stroke-linejoin="round" d="M6.219 1.96h11.549c0.695 0 1.254 0.549 1.254 1.23v17.484c0 1.653-1.254 1.23-1.254 1.23l-5.775-4.32-5.775 4.32c0 0-1.254 0.487-1.254-1.23v-17.484c0-0.682 0.559-1.23 1.254-1.23z"></path>
		</symbol>
		<symbol id="sign-out" viewBox="0 0 24 24">
			<path stroke-width="2" stroke-linecap="round" stroke-linejoin="round" d="M16.081 5.029c2.935 1.518 4.907 4.53 4.907 8.003v0c0 4.96-4.021 8.981-8.981 8.981s-8.981-4.021-8.981-8.981c0-3.473 1.971-6.485 4.856-7.98"></path>
			<path stroke-width="2" stroke-linecap="round" stroke-linejoin="round" d="M12 2.041v10.951"></path>
		</symbol>
		<symbol id="post" viewBox="0 0 24 24">
			<path stroke-width="1.5" stroke-linecap="round" stroke-linejoin="round" d="M8.796 12.745l10.739-10.739c0.331-0.332 0.865-0.331 1.196 0l2.116 2.116c0.331 0.331 0.331 0.864 0 1.196l-10.739 10.739-4.856 1.581z"></path>
			<path stroke-width="1" stroke-linecap="round" stroke-linejoin="round" d="M21.259 6.879l-3.249-3.249"></path>
			<path stroke-width="1" stroke-linecap="round" stroke-linejoin="round" d="M11.685 15.624l-2.938-2.938"></path>
			<path stroke-width="1" stroke-linecap="round" stroke-linejoin="round" d="M11.44 12.512l6.715-6.715"></path>
			<path stroke-width="1.5" stroke-linecap="round" stroke-linejoin="round" d="M20.333 11.733l0 7.615c0 0.51-0.411 0.921-0.921 0.921l-14.74-0c-0.51 0-0.921-0.411-0.921-0.921l-0-14.74c-0-0.511 0.411-0.921 0.921-0.921l9.322 0"></path>
		</symbol>
		<symbol id="menu" viewBox="0 0 24 24">
			<path stroke-width="2" stroke-linecap="round" stroke-linejoin="round" d="M21.967 6h-19.935"></path>
			<path stroke-width="2" stroke-linecap="round" stroke-linejoin="round" d="M21.967 12h-19.935"></path>
			<path stroke-width="2" stroke-linecap="round" stroke-linejoin="round" d="M21.967 18h-19.935"></path>
		</symbol>
		<symbol id="account" viewBox="0 0 24 24">
			<path stroke-width="1.5" stroke-linecap="round" stroke-linejoin="round" d="M22 12c0 5.523-4.477 10-10 10s-10-4.477-10-10c0-5.523 4.477-10 10-10s10 4.477 10 10z"></path>
			<path stroke-width="1.5" stroke-linecap="round" stroke-linejoin="round" d="M14.791 10.875c0 1.541-1.249 2.791-2.791 2.791s-2.791-1.249-2.791-2.791c0-1.541 1.249-2.791 2.791-2.791s2.791 1.249 2.791 2.791z"></path>
			<path stroke-width="1.5" stroke-linecap="round" stroke-linejoin="round" d="M12 14.418c-0 0-0 0-0.001 0-3.083 0-5.581 2.499-5.581 5.581 0 0 0 0 0 0.001 0.001 0.107 0.004 0.211 0.011 0.315 1.563 1.048 3.493 1.684 5.571 1.685 2.077-0.003 4.005-0.639 5.602-1.725-0.028-0.060-0.022-0.163-0.019-0.267 0-0.008 0-0.008 0-0.008 0-3.083-2.499-5.581-5.581-5.581-0 0-0 0-0.001 0z"></path>
		</symbol>
		<symbol id="share" viewBox="0 0 24 24">
			<path stroke-width="1.5" stroke-linecap="round" stroke-linejoin="round" d="M9 12c0-1.657-1.343-3-3-3s-3 1.343-3 3c0 1.657 1.343 3 3 3s3-1.343 3-3z"></path>
			<path stroke-width="1.5" stroke-linecap="round" stroke-linejoin="round" d="M21 6c0-1.657-1.343-3-3-3s-3 1.343-3 3c0 1.657 1.343 3 3 3s3-1.343 3-3z"></path>
			<path stroke-width="1.5" stroke-linecap="round" stroke-linejoin="round" d="M21 18c0-1.657-1.343-3-3-3s-3 1.343-3 3c0 1.657 1.343 3 3 3s3-1.343 3-3z"></path>
			<path stroke-width="1.5" stroke-linecap="butt" stroke-linejoin="miter" d="M8.711 10.666l6.622-3.342"></path>
			<path stroke-width="1.5" stroke-linecap="butt" stroke-linejoin="miter" d="M8.532 13.27l6.887 3.47"></path>
		</symbol>
		<symbol id="search" viewBox="0 0 24 24">
			<path stroke-width="1.5" stroke-linecap="round" stroke-linejoin="round" d="M16.261 9.003c0 4.013-3.253 7.266-7.266 7.266s-7.266-3.253-7.266-7.266c0-4.013 3.253-7.266 7.266-7.266s7.266 3.253 7.266 7.266z"></path>
			<path stroke-width="1.5" stroke-linecap="round" stroke-linejoin="round" d="M16.579 15.707l5.675 5.675-0.866 0.866-5.675-5.675 0.866-0.866z"></path>
			<path stroke-width="1.5" stroke-linecap="butt" stroke-linejoin="miter" d="M14.351 14.361l1.441 1.441"></path>
			<path stroke-width="1" stroke-linecap="round" stroke-linejoin="round" d="M5.254 5.988c0.9-1.11 2.275-1.82 3.816-1.82 1.551 0 2.933 0.719 3.833 1.841"></path>
		</symbol>
		<symbol id="maximize" viewBox="0 0 24 24">
			<path stroke-width="1.5" stroke-linecap="round" stroke-linejoin="round" d="M20.365 3.6l-8.122 8.122"></path>
			<path stroke-width="1.5" stroke-linecap="round" stroke-linejoin="round" d="M15.756 3.607h4.636v4.69"></path>
			<path stroke-width="1.5" stroke-linecap="round" stroke-linejoin="round" d="M20.355 11.854v6.826c0 0.925-0.745 1.671-1.671 1.671h-13.365c-0.926 0-1.671-0.745-1.671-1.671v-13.365c0-0.926 0.745-1.671 1.671-1.671h6.867"></path>
		</symbol>
		<symbol id="directions" viewBox="0 0 24 24">
			<path stroke-width="1.5" stroke-linecap="round" stroke-linejoin="round" d="M13.5 2.366l8.134 8.134c0.822 0.822 0.822 2.154 0 2.976l-8.134 8.134c-0.822 0.822-2.154 0.822-2.976 0l-8.134-8.134c-0.822-0.822-0.822-2.154 0-2.976l8.134-8.134c0.822-0.822 2.154-0.822 2.976 0z"></path>
			<path stroke-width="1.5" stroke-linecap="round" stroke-linejoin="round" d="M15.063 10.724h-5.211c-1.166 0-2.104 0.938-2.104 2.104v2.041"></path>
			<path stroke-width="1.5" stroke-linecap="round" stroke-linejoin="round" d="M12.776 12.72l4-2-4-2z"></path>
		</symbol>
		<symbol id="calendar-add" viewBox="0 0 24 24">
			<path stroke-width="1.5" stroke-linecap="round" stroke-linejoin="round" d="M11.987 22.011h-9.992v-18.034h20.071v8.092"></path>
			<path stroke-width="1.5" stroke-linecap="round" stroke-linejoin="miter" d="M5.994 2.009v4.104"></path>
			<path stroke-width="1.5" stroke-linecap="round" stroke-linejoin="miter" d="M18.006 2.058v4.104"></path>
			<path stroke-width="1" stroke-linecap="butt" stroke-linejoin="miter" d="M1.776 9.491h20.448"></path>
			<path stroke-width="1" stroke-linecap="butt" stroke-linejoin="miter" d="M2.074 15.507h11.286"></path>
			<path stroke-width="1" stroke-linecap="butt" stroke-linejoin="miter" d="M15.548 9.156l-0.040 4.669"></path>
			<path stroke-width="1" stroke-linecap="butt" stroke-linejoin="miter" d="M8.511 9.024v12.928"></path>
			<path stroke-width="1.5" stroke-linecap="round" stroke-linejoin="round" d="M23.159 18.011c0 2.839-2.302 5.141-5.141 5.141s-5.141-2.302-5.141-5.141c0-2.839 2.302-5.141 5.141-5.141s5.141 2.302 5.141 5.141z"></path>
			<path stroke-width="1.5" stroke-linecap="butt" stroke-linejoin="miter" d="M17.984 15.033v5.958"></path>
			<path stroke-width="1.5" stroke-linecap="butt" stroke-linejoin="miter" d="M15.077 18.040l5.943-0.056"></path>
			<path stroke-width="1" stroke-linecap="butt" stroke-linejoin="miter" d="M11 22v0"></path>
		</symbol>
		<symbol id="phone" viewBox="0 0 24 24">
			<path stroke-width="1.5" stroke-linecap="butt" stroke-linejoin="miter" d="M17.524 21.206c-8.134 0-14.73-6.596-14.73-14.73 0-2.032 1.65-3.683 3.683-3.683 0.209 0 0.415 0.017 0.613 0.052 0.037 0.006 0.074 0.013 0.109 0.020 0.304 0.060 0.552 0.276 0.657 0.567l1.619 4.519c0.090 0.252-0.001 0.534-0.223 0.685l-1.78 1.212c-0.231 0.157-0.318 0.453-0.214 0.713 1.153 2.893 3.535 5.2 6.461 6.288 0.129 0.047 0.274-0.002 0.349-0.116l1.298-1.974c0.15-0.228 0.435-0.323 0.692-0.231 1.014 0.364 3.513 1.259 4.515 1.618 0.29 0.105 0.504 0.352 0.564 0.654 0.008 0.037 0.015 0.074 0.021 0.112 0.033 0.197 0.051 0.403 0.051 0.612 0 2.032-1.65 3.683-3.683 3.683z"></path>
		</symbol>
		<symbol id="check" viewBox="0 0 24 24">
			<path stroke-width="1.5" stroke-linecap="butt" stroke-linejoin="round" d="M21.29 12c0 5.131-4.159 9.29-9.29 9.29s-9.29-4.159-9.29-9.29c0-5.131 4.159-9.29 9.29-9.29s9.29 4.159 9.29 9.29z"></path>
			<path stroke-width="2" stroke-linecap="round" stroke-linejoin="round" d="M7.789 12.649l3 3 6-7"></path>
		</symbol>
		<symbol id="star" viewBox="0 0 24 24">
			<path stroke-width="1.5" stroke-linecap="round" stroke-linejoin="round" d="M18.416 21.702c-1.154 0.849-4.93-3.305-6.363-3.296-1.433 0.010-5.158 4.208-6.322 3.373s1.62-5.709 1.168-7.070c-0.451-1.36-5.596-3.605-5.161-4.971s5.93-0.224 7.085-1.073c1.154-0.849 1.699-6.436 3.132-6.445 1.433-0.010 2.046 5.571 3.21 6.406s6.646-0.373 7.097 0.987c0.451 1.36-4.666 3.667-5.101 5.033s2.408 6.206 1.254 7.055z"></path>
		</symbol>
		<symbol id="questions" viewBox="0 0 24 24">
			<path stroke-width="1.5" stroke-linecap="round" stroke-linejoin="round" d="M9.092 2.777h11.014c1.208 0 2.181 0.973 2.181 2.181v5.707c0 1.208-0.968 2.181-2.176 2.181v3.377l-4.276-3.377h-6.743c-1.208 0-2.181-0.973-2.181-2.181v-5.707c0-1.208 0.973-2.181 2.181-2.181z"></path>
			<path stroke-width="1.5" stroke-linecap="round" stroke-linejoin="round" d="M6.67 7.718h-2.715c-1.208 0-2.181 0.973-2.181 2.181v5.707c0 1.208 0.968 2.181 2.176 2.181v3.437l4.276-3.437h4.226c1.208 0 2.181-0.973 2.181-2.181v-2.612"></path>
			<path stroke-width="1.5" stroke-linecap="round" stroke-linejoin="round" d="M14.78 10.71v0.040"></path>
			<path stroke-width="1.5" stroke-linecap="round" stroke-linejoin="round" d="M12.904 6.444c0 0 0.298-1.492 1.961-1.492s1.8 1.364 1.791 1.705c-0.039 1.462-1.919 2.217-1.919 2.217"></path>
		</symbol>
		<symbol id="phone-circle" viewBox="0 0 24 24">
			<path stroke-width="1.5" stroke-linecap="butt" stroke-linejoin="miter" d="M15.077 17.128c-4.53 0-8.204-3.674-8.204-8.204 0-1.132 0.919-2.051 2.051-2.051 0.117 0 0.231 0.010 0.342 0.029 0.021 0.003 0.041 0.007 0.061 0.011 0.169 0.033 0.308 0.154 0.366 0.316l0.902 2.517c0.050 0.14-0.001 0.297-0.124 0.381l-0.992 0.675c-0.129 0.087-0.177 0.253-0.119 0.397 0.642 1.611 1.969 2.896 3.598 3.502 0.072 0.026 0.153-0.001 0.194-0.065l0.723-1.099c0.083-0.127 0.242-0.18 0.385-0.129 0.565 0.203 1.957 0.701 2.514 0.901 0.162 0.058 0.281 0.196 0.314 0.364 0.004 0.021 0.008 0.041 0.012 0.062 0.019 0.11 0.028 0.224 0.028 0.341 0 1.132-0.919 2.051-2.051 2.051z"></path>
			<path stroke-width="1.5" stroke-linecap="butt" stroke-linejoin="miter" d="M12 1.745c-5.664 0-10.255 4.591-10.255 10.255s4.591 10.255 10.255 10.255c5.664 0 10.255-4.591 10.255-10.255s-4.591-10.255-10.255-10.255z"></path>
		</symbol>
		<symbol id="book" viewBox="0 0 24 24">
			<path stroke-width="1.5" stroke-linecap="round" stroke-linejoin="round" d="M6.575 20.25h-0.681c-1.2 0-2.166-0.966-2.166-2.166v-13.175c0-1.2 0.966-2.166 2.166-2.166h12.162c1.2 0 2.166 0.966 2.166 2.166v13.175c0 1.2-0.966 2.166-2.166 2.166h-7.069"></path>
			<path stroke-width="1" stroke-linecap="round" stroke-linejoin="round" d="M20.222 16.098c0 1.2-0.966 2.166-2.166 2.166h-12.162"></path>
			<path stroke-width="1.5" stroke-linecap="butt" stroke-linejoin="round" d="M20.21 14.041c0 1.135-0.86 2.156-1.973 2.156-2.275-0-10.042 0.014-12.343 0.014-1.2 0-2.166 0.898-2.166 2.013"></path>
			<path stroke-width="1.5" stroke-linecap="butt" stroke-linejoin="round" d="M10.684 18.372v3.853l-1.796-0.993-1.712 0.993v-3.853"></path>
			<path stroke-width="1.5" stroke-linecap="butt" stroke-linejoin="miter" d="M6.776 2.103v14.178"></path>
		</symbol>
		<symbol id="email" viewBox="0 0 24 24">
			<path stroke-width="1.5" stroke-linecap="round" stroke-linejoin="round" d="M9.084 3.742l2.96-2.051 2.823 1.883M20.19 7.196l2.099 1.787v12.329h-20.578v-12.329l1.948-1.648"></path>
			<path stroke-width="1.5" stroke-linecap="round" stroke-linejoin="round" d="M1.711 8.983l10.334 8.052 10.245-8.052"></path>
			<path stroke-width="1.5" stroke-linecap="round" stroke-linejoin="round" d="M3.84 10.454v-6.704h16.321v6.704"></path>
			<path fill="#333" stroke-width="0" d="M13.917 7.618l-0.302 2.466q-0.027 0.253-0.027 0.439 0 0.231 0.214 0.231 0.396 0 0.764-0.5t0.368-1.252q0-1.099-0.802-1.824t-1.967-0.725q-1.263 0-2.131 0.884-0.868 0.879-0.868 2.197 0 1.214 0.807 2.115 0.813 0.901 2.291 0.901 1.143 0 2.351-0.632l0.363 0.901q-1.324 0.681-2.714 0.681-1.928 0-3.065-1.17-1.137-1.176-1.137-2.802 0-1.697 1.192-2.834 1.198-1.143 2.895-1.143 1.615 0 2.703 1.005 1.088 1 1.088 2.422 0 1.121-0.665 1.917-0.665 0.791-1.577 0.791-0.621 0-0.939-0.478-0.423 0.5-1.016 0.5-0.665 0-1.137-0.56-0.472-0.566-0.472-1.483 0-0.939 0.533-1.533 0.533-0.599 1.28-0.599 0.472 0 0.868 0.324l0.066-0.242h1.038zM11.808 10.656q0.379 0 0.654-0.368 0.275-0.374 0.275-0.851 0-0.385-0.225-0.615-0.22-0.231-0.505-0.231-0.33 0-0.555 0.308-0.22 0.308-0.22 0.807 0 0.406 0.159 0.681 0.159 0.269 0.417 0.269z"></path>
		</symbol>
	</defs>
</svg>