<?xml version="1.0" encoding="UTF-8" standalone="no"?>
<!-- Created with Inkscape (http://www.inkscape.org/) -->

<svg
   xmlns:dc="http://purl.org/dc/elements/1.1/"
   xmlns:cc="http://creativecommons.org/ns#"
   xmlns:rdf="http://www.w3.org/1999/02/22-rdf-syntax-ns#"
   xmlns:svg="http://www.w3.org/2000/svg"
   xmlns="http://www.w3.org/2000/svg"
   xmlns:sodipodi="http://sodipodi.sourceforge.net/DTD/sodipodi-0.dtd"
   xmlns:inkscape="http://www.inkscape.org/namespaces/inkscape"
   width="111.22531mm"
   height="9.8589392mm"
   viewBox="0 0 394.10546 34.933248"
   id="svg5118"
   version="1.1"
   inkscape:version="0.92.2 5c3e80d, 2017-08-06"
   sodipodi:docname="logo-cobis-mainstreet.svg">
  <defs
     id="defs5120" />
  <sodipodi:namedview
     id="base"
     pagecolor="#ffffff"
     bordercolor="#666666"
     borderopacity="1.0"
     inkscape:pageopacity="0.0"
     inkscape:pageshadow="2"
     inkscape:zoom="2"
     inkscape:cx="220.42188"
     inkscape:cy="5.7677968"
     inkscape:document-units="px"
     inkscape:current-layer="text878"
     showgrid="false"
     fit-margin-top="0"
     fit-margin-left="0"
     fit-margin-right="0"
     fit-margin-bottom="0"
     inkscape:window-width="1440"
     inkscape:window-height="798"
     inkscape:window-x="0"
     inkscape:window-y="1"
     inkscape:window-maximized="1"
     showguides="true"
     inkscape:guide-bbox="true">
    <sodipodi:guide
       position="148.24785,34.169461"
       orientation="0,1"
       id="guide820"
       inkscape:locked="false" />
    <sodipodi:guide
       position="157.42637,1.5699073"
       orientation="0,1"
       id="guide822"
       inkscape:locked="false" />
    <sodipodi:guide
       position="190.78126,21.442938"
       orientation="0,1"
       id="guide837"
       inkscape:locked="false" />
  </sodipodi:namedview>
  <metadata
     id="metadata5123">
    <rdf:RDF>
      <cc:Work
         rdf:about="">
        <dc:format>image/svg+xml</dc:format>
        <dc:type
           rdf:resource="http://purl.org/dc/dcmitype/StillImage" />
        <dc:title></dc:title>
      </cc:Work>
    </rdf:RDF>
  </metadata>
  <g
     inkscape:label="Layer 1"
     inkscape:groupmode="layer"
     id="layer1"
     transform="translate(756.6532,-205.7671)">
    <g
       id="g874"
       transform="translate(-93.749995)">
      <path
         d="m -622.82946,214.31835 -4.95876,1.7725 c -3.33625,-3.5475 -8.005,-5.32 -14.00875,-5.32 -4.55,0 -8.25624,1.1675 -11.12249,3.50125 -2.865,2.33625 -4.2975,5.3075 -4.2975,8.915 0,3.73125 1.41625,6.74 4.2525,9.03 2.835,2.28875 6.66499,3.43375 11.48499,3.43375 5.8225,0 10.40125,-1.80375 13.7375,-5.4125 l 4.685,2.59375 c -2.36625,2.75875 -5.0425,4.7525 -8.02875,5.98125 -2.98625,1.22875 -6.5575,1.84125 -10.71125,1.84125 -5.8225,0 -10.65999,-1.45625 -14.50999,-4.36625 -4.3975,-3.33625 -6.59625,-7.7025 -6.59625,-13.10125 0,-5.305 2.22875,-9.6425 6.68625,-13.00875 3.8825,-2.94 8.68874,-4.41125 14.41999,-4.41125 8.24751,0 14.57,2.85 18.96751,8.55125"
         style="fill:#596164;fill-opacity:1;fill-rule:nonzero;stroke:none"
         id="path148"
         inkscape:connector-curvature="0" />
      <path
         d="m -582.43709,223.2341 c 0,-3.85125 -1.6375,-6.97375 -4.9125,-9.37125 -2.82125,-2.0625 -6.3225,-3.0925 -10.5075,-3.0925 -4.57875,0 -8.31,1.175 -11.19,3.52625 -2.88125,2.34875 -4.32125,5.32875 -4.32125,8.9375 0,3.72875 1.41,6.73875 4.23,9.02875 2.82,2.29 6.58,3.435 11.28125,3.435 4.66875,0 8.4075,-1.1525 11.21125,-3.45875 2.805,-2.3025 4.20875,-5.305 4.20875,-9.005 m 5.685,0 c 0,5.3975 -2.21375,9.76375 -6.64125,13.09875 -3.88125,2.9125 -8.7025,4.3675 -14.46375,4.3675 -5.82125,0 -10.675,-1.47 -14.55625,-4.4125 -4.4275,-3.335 -6.64125,-7.6875 -6.64125,-13.05375 0,-5.2775 2.24375,-9.6125 6.7325,-13.01 3.94125,-2.97125 8.76375,-4.45625 14.465,-4.45625 5.7325,0 10.5375,1.485 14.4175,4.45625 4.45875,3.3975 6.6875,7.7325 6.6875,13.01"
         style="fill:#596164;fill-opacity:1;fill-rule:nonzero;stroke:none"
         id="path152"
         inkscape:connector-curvature="0" />
      <path
         d="m -544.82097,234.83248 c 4.5475,0 6.82251,-1.5 6.82251,-4.5025 0,-3.215 -1.98501,-4.8225 -5.95876,-4.8225 h -21.69625 v 9.325 z m 0.40875,-14.2375 c 1.51625,0 2.78125,-0.43375 3.79875,-1.3025 1.015,-0.8675 1.525,-1.9275 1.525,-3.1775 0,-1.34125 -0.45625,-2.40875 -1.36625,-3.2 -0.91,-0.7925 -2.1525,-1.19 -3.72875,-1.19 h -21.47 v 8.87 z m 6.3675,2.18375 c 3.76125,1.27375 5.64125,4.0475 5.64125,8.325 0,5.76125 -4.155,8.64125 -12.46375,8.64125 h -26.245 v -32.9325 h 26.61 c 3.335,0 5.9575,0.81875 7.86875,2.45625 1.91,1.6375 2.86625,3.82125 2.86625,6.55 0,3.0025 -1.42625,5.3225 -4.2775,6.96"
         style="fill:#596164;fill-opacity:1;fill-rule:nonzero;stroke:none"
         id="path156"
         inkscape:connector-curvature="0" />
      <path
         inkscape:connector-curvature="0"
         id="path158"
         style="fill:#596164;fill-opacity:1;fill-rule:nonzero;stroke:none"
         d="m -521.21334,239.74485 h -5.45875 v -32.9325 h 5.45875 z" />
      <path
         d="m -484.96234,214.54598 c -4.88125,-2.48625 -9.855,-3.73 -14.92,-3.73 -3.365,0 -5.9425,0.39375 -7.73125,1.1825 -1.79,0.7875 -2.685,1.88 -2.685,3.27625 0,1.45375 0.95625,2.5175 2.86625,3.1825 1.365,0.485 3.59375,0.8175 6.6875,1.00125 4.5475,0.3025 7.55,0.545 9.00625,0.72625 4.12375,0.54625 7.17125,1.56375 9.14125,3.04875 1.97125,1.48625 2.9575,3.5925 2.9575,6.3225 0,3.4875 -1.5475,6.18625 -4.63875,8.09625 -3.09375,1.91125 -7.53625,2.86625 -13.32875,2.86625 -8.39875,0 -14.935,-1.85 -19.60375,-5.54875 l 3.0025,-3.95875 c 5.15375,3.155 10.70375,4.73125 16.6475,4.73125 3.85,0 6.8375,-0.53 8.96,-1.59125 2.0325,-1.0325 3.0475,-2.44125 3.0475,-4.23125 0,-2.09125 -1.33375,-3.48625 -4.0025,-4.185 -1.395,-0.36375 -5.155,-0.7425 -11.28,-1.13625 -5.43,-0.36375 -9.23375,-1.0925 -11.4175,-2.18375 -2.5475,-1.27375 -3.82,-3.41125 -3.82,-6.41375 0,-3.0925 1.44625,-5.53375 4.34375,-7.32375 2.895,-1.78875 6.98125,-2.68375 12.2575,-2.68375 7.09625,0 13.03875,1.6225 17.83125,4.86875 z"
         style="fill:#596164;fill-opacity:1;fill-rule:nonzero;stroke:none"
         id="path162"
         inkscape:connector-curvature="0" />
    </g>
    <g
       aria-label="Onboarding"
       style="font-style:normal;font-variant:normal;font-weight:normal;font-stretch:normal;font-size:45.01560211px;line-height:1.25;font-family:'Futura PT';-inkscape-font-specification:'Futura PT';letter-spacing:0px;word-spacing:0px;fill:#00a7cd;fill-opacity:1;stroke:none;stroke-width:1.12539005"
       id="text878">
      <g
         aria-label="Mainstreet"
         style="font-style:normal;font-variant:normal;font-weight:normal;font-stretch:normal;font-size:47.5px;line-height:1.25;font-family:'Futura PT';-inkscape-font-specification:'Futura PT';letter-spacing:0px;word-spacing:0px;fill:#00a7cd;fill-opacity:1;stroke:none;stroke-width:1.05505323"
         id="text835">
        <path
           d="m -549.89445,239.26991 3.135,-22.04 10.64,23.37 10.7825,-23.37 2.9925,22.04 h 3.61 l -4.94,-33.4875 -12.3975,26.79 -12.16,-26.7425 -5.2725,33.44 z"
           style="font-style:normal;font-variant:normal;font-weight:normal;font-stretch:normal;font-size:47.5px;font-family:'Futura PT';-inkscape-font-specification:'Futura PT';fill:#00a7cd;fill-opacity:1;stroke-width:1.05505323"
           id="path903"
           inkscape:connector-curvature="0" />
        <path
           d="m -497.15609,222.35991 c -0.9025,-1.1875 -2.945,-3.2775 -6.745,-3.2775 -5.035,0 -9.595,3.515 -9.595,10.3075 0,6.935 4.6075,10.45 9.595,10.45 3.4675,0 5.605,-1.8525 6.745,-3.325 v 2.755 h 3.42 v -19.7125 h -3.42 z m -6.365,-0.2375 c 3.04,0 6.555,2.2325 6.555,7.315 0,3.895 -2.375,7.3625 -6.555,7.3625 -4.085,0 -6.46,-3.1825 -6.46,-7.41 0,-4.7975 3.0875,-7.2675 6.46,-7.2675 z"
           style="font-style:normal;font-variant:normal;font-weight:normal;font-stretch:normal;font-size:47.5px;font-family:'Futura PT';-inkscape-font-specification:'Futura PT';fill:#00a7cd;fill-opacity:1;stroke-width:1.05505323"
           id="path905"
           inkscape:connector-curvature="0" />
        <path
           d="m -487.30503,219.55741 v 19.7125 h 3.42 v -19.7125 z m -0.7125,-7.4575 c 0,1.33 1.0925,2.4225 2.4225,2.4225 1.33,0 2.4225,-1.0925 2.4225,-2.4225 0,-1.33 -1.0925,-2.4225 -2.4225,-2.4225 -1.33,0 -2.4225,1.0925 -2.4225,2.4225 z"
           style="font-style:normal;font-variant:normal;font-weight:normal;font-stretch:normal;font-size:47.5px;font-family:'Futura PT';-inkscape-font-specification:'Futura PT';fill:#00a7cd;fill-opacity:1;stroke-width:1.05505323"
           id="path907"
           inkscape:connector-curvature="0" />
        <path
           d="m -477.37828,239.26991 h 3.42 v -10.3075 c 0,-1.425 0.095,-3.7525 1.425,-5.32 0.9975,-1.1875 2.28,-1.52 3.4675,-1.52 1.52,0 2.565,0.57 3.23,1.425 0.8075,1.045 0.9025,2.4225 0.9025,3.61 v 12.1125 h 3.42 v -12.2075 c 0,-2.185 -0.1425,-3.8 -1.14,-5.2725 -1.1875,-1.7575 -3.325,-2.7075 -5.6525,-2.7075 -3.2775,0 -5.035,1.9475 -5.6525,2.755 v -2.28 h -3.42 z"
           style="font-style:normal;font-variant:normal;font-weight:normal;font-stretch:normal;font-size:47.5px;font-family:'Futura PT';-inkscape-font-specification:'Futura PT';fill:#00a7cd;fill-opacity:1;stroke-width:1.05505323"
           id="path909"
           inkscape:connector-curvature="0" />
        <path
           d="m -444.09488,222.64491 c -1.5675,-3.3725 -4.37,-3.5625 -5.415,-3.5625 -3.325,0 -5.7475,2.0425 -5.7475,5.51 0,0.9975 0.1425,1.9475 0.9025,2.8975 0.9025,1.0925 2.4225,1.8525 4.7975,2.8975 1.8525,0.8075 3.1825,1.425 3.1825,3.2775 0,1.4725 -0.9975,3.135 -3.23,3.135 -2.47,0 -3.61,-2.185 -3.99,-3.23 l -2.945,1.235 c 1.6625,4.94 6.08,5.035 6.8875,5.035 3.8,0 6.7925,-2.3275 6.7925,-6.46 0,-1.0925 -0.19,-2.1375 -1.045,-3.1825 -0.76,-0.95 -2.09,-1.8525 -4.94,-3.04 -2.2325,-0.95 -3.1825,-1.3775 -3.1825,-2.8025 0,-1.52 1.14,-2.2325 2.375,-2.2325 1.2825,0 2.28,0.855 2.755,1.995 z"
           style="font-style:normal;font-variant:normal;font-weight:normal;font-stretch:normal;font-size:47.5px;font-family:'Futura PT';-inkscape-font-specification:'Futura PT';fill:#00a7cd;fill-opacity:1;stroke-width:1.05505323"
           id="path911"
           inkscape:connector-curvature="0" />
        <path
           d="m -431.38566,222.69241 v -3.135 h -3.42 v -7.125 h -3.42 v 7.125 h -2.09 v 3.135 h 2.09 v 16.5775 h 3.42 v -16.5775 z"
           style="font-style:normal;font-variant:normal;font-weight:normal;font-stretch:normal;font-size:47.5px;font-family:'Futura PT';-inkscape-font-specification:'Futura PT';fill:#00a7cd;fill-opacity:1;stroke-width:1.05505323"
           id="path913"
           inkscape:connector-curvature="0" />
        <path
           d="m -428.11558,239.26991 h 3.42 v -10.4025 c 0,-3.23 0.57,-4.56 1.14,-5.32 0.5225,-0.665 1.3775,-1.235 2.755,-1.235 0.5225,0 1.235,0.1425 1.995,0.665 l 1.615,-3.0875 c -0.855,-0.4275 -1.995,-0.8075 -3.04,-0.8075 -2.66,0 -4.1325,2.09 -4.465,2.6125 v -2.1375 h -3.42 z"
           style="font-style:normal;font-variant:normal;font-weight:normal;font-stretch:normal;font-size:47.5px;font-family:'Futura PT';-inkscape-font-specification:'Futura PT';fill:#00a7cd;fill-opacity:1;stroke-width:1.05505323"
           id="path915"
           inkscape:connector-curvature="0" />
        <path
           d="m -400.4973,232.66741 c -0.4275,0.95 -1.14,1.9475 -2.0425,2.7075 -1.14,0.95 -2.4225,1.425 -4.0375,1.425 -3.42,0 -6.2225,-2.6125 -6.27,-6.6975 h 15.3425 c 0.095,-2.6125 -0.6175,-5.6525 -1.8525,-7.41 -1.1875,-1.71 -3.61,-3.61 -7.4575,-3.61 -5.9375,0 -9.5475,4.56 -9.5475,10.45 0,7.315 4.9875,10.3075 9.7375,10.3075 2.5175,0 4.75,-0.8075 6.555,-2.4225 0.9975,-0.9025 1.8525,-2.09 2.4225,-3.1825 z m -12.1125,-5.415 c 0.5225,-2.945 2.8975,-5.13 5.795,-5.13 2.8975,0 5.225,2.0425 5.795,5.13 z"
           style="font-style:normal;font-variant:normal;font-weight:normal;font-stretch:normal;font-size:47.5px;font-family:'Futura PT';-inkscape-font-specification:'Futura PT';fill:#00a7cd;fill-opacity:1;stroke-width:1.05505323"
           id="path917"
           inkscape:connector-curvature="0" />
        <path
           d="m -377.67503,232.66741 c -0.4275,0.95 -1.14,1.9475 -2.0425,2.7075 -1.14,0.95 -2.4225,1.425 -4.0375,1.425 -3.42,0 -6.2225,-2.6125 -6.27,-6.6975 h 15.3425 c 0.095,-2.6125 -0.6175,-5.6525 -1.8525,-7.41 -1.1875,-1.71 -3.61,-3.61 -7.4575,-3.61 -5.9375,0 -9.5475,4.56 -9.5475,10.45 0,7.315 4.9875,10.3075 9.7375,10.3075 2.5175,0 4.75,-0.8075 6.555,-2.4225 0.9975,-0.9025 1.8525,-2.09 2.4225,-3.1825 z m -12.1125,-5.415 c 0.5225,-2.945 2.8975,-5.13 5.795,-5.13 2.8975,0 5.225,2.0425 5.795,5.13 z"
           style="font-style:normal;font-variant:normal;font-weight:normal;font-stretch:normal;font-size:47.5px;font-family:'Futura PT';-inkscape-font-specification:'Futura PT';fill:#00a7cd;fill-opacity:1;stroke-width:1.05505323"
           id="path919"
           inkscape:connector-curvature="0" />
        <path
           d="m -362.54777,222.69241 v -3.135 h -3.42 v -7.125 h -3.42 v 7.125 h -2.09 v 3.135 h 2.09 v 16.5775 h 3.42 v -16.5775 z"
           style="font-style:normal;font-variant:normal;font-weight:normal;font-stretch:normal;font-size:47.5px;font-family:'Futura PT';-inkscape-font-specification:'Futura PT';fill:#00a7cd;fill-opacity:1;stroke-width:1.05505323"
           id="path921"
           inkscape:connector-curvature="0" />
      </g>
    </g>
    <text
       xml:space="preserve"
       style="font-style:normal;font-variant:normal;font-weight:normal;font-stretch:normal;font-size:37.5px;line-height:1.25;font-family:'Futura PT';-inkscape-font-specification:'Futura PT';letter-spacing:0px;word-spacing:0px;fill:#00a7cd;fill-opacity:1;stroke:none;stroke-width:0.9375"
       x="-485.8381"
       y="311.78668"
       id="text826"><tspan
         sodipodi:role="line"
         id="tspan824"
         x="-485.8381"
         y="345.08667"
         style="font-style:normal;font-variant:normal;font-weight:normal;font-stretch:normal;font-family:'Futura PT';-inkscape-font-specification:'Futura PT';fill:#00a7cd;fill-opacity:1;stroke-width:0.9375" /></text>
  </g>
</svg>
