<?xml version="1.0" encoding="UTF-8" standalone="no"?>
<!-- Created with Inkscape (http://www.inkscape.org/) -->

<svg
   xmlns:dc="http://purl.org/dc/elements/1.1/"
   xmlns:cc="http://creativecommons.org/ns#"
   xmlns:rdf="http://www.w3.org/1999/02/22-rdf-syntax-ns#"
   xmlns:svg="http://www.w3.org/2000/svg"
   xmlns="http://www.w3.org/2000/svg"
   xmlns:sodipodi="http://sodipodi.sourceforge.net/DTD/sodipodi-0.dtd"
   xmlns:inkscape="http://www.inkscape.org/namespaces/inkscape"
   version="1.1"
   id="svg2"
   xml:space="preserve"
   width="304.93494"
   height="61.599331"
   viewBox="0 0 304.93495 61.599331"
   sodipodi:docname="logo.svg"
   inkscape:version="0.92.2 5c3e80d, 2017-08-06"><metadata
     id="metadata8"><rdf:RDF><cc:Work
         rdf:about=""><dc:format>image/svg+xml</dc:format><dc:type
           rdf:resource="http://purl.org/dc/dcmitype/StillImage" /><dc:title></dc:title></cc:Work></rdf:RDF></metadata><defs
     id="defs6"><linearGradient
       x1="0"
       y1="0"
       x2="1"
       y2="0"
       gradientUnits="userSpaceOnUse"
       gradientTransform="matrix(731.17969,511.97766,-511.97766,731.17969,147.51953,430.5)"
       spreadMethod="pad"
       id="linearGradient40"><stop
         style="stop-opacity:1;stop-color:#4ab039"
         offset="0"
         id="stop32" /><stop
         style="stop-opacity:1;stop-color:#4ab039"
         offset="0.193266"
         id="stop34" /><stop
         style="stop-opacity:1;stop-color:#2f7d36"
         offset="0.9854554"
         id="stop36" /><stop
         style="stop-opacity:1;stop-color:#2f7d36"
         offset="1"
         id="stop38" /></linearGradient><clipPath
       clipPathUnits="userSpaceOnUse"
       id="clipPath50"><path
         d="M 0,731.524 H 1024 V 0 H 0 Z"
         id="path48"
         inkscape:connector-curvature="0" /></clipPath><clipPath
       clipPathUnits="userSpaceOnUse"
       id="clipPath182"><path
         d="M 0,731.524 H 1024 V 0 H 0 Z"
         id="path180"
         inkscape:connector-curvature="0" /></clipPath><clipPath
       clipPathUnits="userSpaceOnUse"
       id="clipPath202"><path
         d="M 0,731.524 H 1024 V 0 H 0 Z"
         id="path200"
         inkscape:connector-curvature="0" /></clipPath><clipPath
       clipPathUnits="userSpaceOnUse"
       id="clipPath278"><path
         d="M 0,731.524 H 1024 V 0 H 0 Z"
         id="path276"
         inkscape:connector-curvature="0" /></clipPath><clipPath
       clipPathUnits="userSpaceOnUse"
       id="clipPath294"><path
         d="M 0,731.524 H 1024 V 0 H 0 Z"
         id="path292"
         inkscape:connector-curvature="0" /></clipPath><linearGradient
       x1="0"
       y1="0"
       x2="1"
       y2="0"
       gradientUnits="userSpaceOnUse"
       gradientTransform="matrix(-71.680359,-6.3e-6,-6.3e-6,71.680359,704.93848,479.26172)"
       spreadMethod="pad"
       id="linearGradient382"><stop
         style="stop-opacity:1;stop-color:#66b831"
         offset="0"
         id="stop378" /><stop
         style="stop-opacity:1;stop-color:#2f7d36"
         offset="1"
         id="stop380" /></linearGradient><linearGradient
       x1="0"
       y1="0"
       x2="1"
       y2="0"
       gradientUnits="userSpaceOnUse"
       gradientTransform="matrix(-71.680809,-6.3e-6,-6.3e-6,71.680809,704.93945,453.29297)"
       spreadMethod="pad"
       id="linearGradient402"><stop
         style="stop-opacity:1;stop-color:#66b831"
         offset="0"
         id="stop398" /><stop
         style="stop-opacity:1;stop-color:#2f7d36"
         offset="1"
         id="stop400" /></linearGradient><linearGradient
       x1="0"
       y1="0"
       x2="1"
       y2="0"
       gradientUnits="userSpaceOnUse"
       gradientTransform="matrix(-71.68058,-6.3e-6,-6.3e-6,71.68058,704.93848,426.91797)"
       spreadMethod="pad"
       id="linearGradient422"><stop
         style="stop-opacity:1;stop-color:#66b831"
         offset="0"
         id="stop418" /><stop
         style="stop-opacity:1;stop-color:#2f7d36"
         offset="1"
         id="stop420" /></linearGradient><linearGradient
       x1="0"
       y1="0"
       x2="1"
       y2="0"
       gradientUnits="userSpaceOnUse"
       gradientTransform="matrix(-71.680283,-6.3e-6,-6.3e-6,71.680283,704.93848,400.54297)"
       spreadMethod="pad"
       id="linearGradient442"><stop
         style="stop-opacity:1;stop-color:#66b831"
         offset="0"
         id="stop438" /><stop
         style="stop-opacity:1;stop-color:#2f7d36"
         offset="1"
         id="stop440" /></linearGradient><linearGradient
       x1="0"
       y1="0"
       x2="1"
       y2="0"
       gradientUnits="userSpaceOnUse"
       gradientTransform="matrix(-65.973419,5.8e-6,5.8e-6,65.973419,713.32227,321.41895)"
       spreadMethod="pad"
       id="linearGradient466"><stop
         style="stop-opacity:1;stop-color:#f9b50a"
         offset="0"
         id="stop458" /><stop
         style="stop-opacity:1;stop-color:#f79c0e"
         offset="0.193266"
         id="stop460" /><stop
         style="stop-opacity:1;stop-color:#d55415"
         offset="0.9854554"
         id="stop462" /><stop
         style="stop-opacity:1;stop-color:#d55415"
         offset="1"
         id="stop464" /></linearGradient><linearGradient
       x1="0"
       y1="0"
       x2="1"
       y2="0"
       gradientUnits="userSpaceOnUse"
       gradientTransform="matrix(-65.973213,5.8e-6,5.8e-6,65.973213,713.32227,295.85547)"
       spreadMethod="pad"
       id="linearGradient490"><stop
         style="stop-opacity:1;stop-color:#f9b50a"
         offset="0"
         id="stop482" /><stop
         style="stop-opacity:1;stop-color:#f79c0e"
         offset="0.193266"
         id="stop484" /><stop
         style="stop-opacity:1;stop-color:#d55415"
         offset="0.9854554"
         id="stop486" /><stop
         style="stop-opacity:1;stop-color:#d55415"
         offset="1"
         id="stop488" /></linearGradient><clipPath
       clipPathUnits="userSpaceOnUse"
       id="clipPath534"><path
         d="M 0,731.524 H 1024 V 0 H 0 Z"
         id="path532"
         inkscape:connector-curvature="0" /></clipPath><clipPath
       clipPathUnits="userSpaceOnUse"
       id="clipPath552"><path
         d="M 0,731.524 H 1024 V 0 H 0 Z"
         id="path550"
         inkscape:connector-curvature="0" /></clipPath><clipPath
       clipPathUnits="userSpaceOnUse"
       id="clipPath580"><path
         d="m 811.115,167.601 h 29.817 v -23.813 h -29.817 z"
         id="path578"
         inkscape:connector-curvature="0" /></clipPath><clipPath
       clipPathUnits="userSpaceOnUse"
       id="clipPath652"><path
         d="M 492.375,194.913 H 896.142 V 118.521 H 492.375 Z"
         id="path650"
         inkscape:connector-curvature="0" /></clipPath></defs><sodipodi:namedview
     pagecolor="#ffffff"
     bordercolor="#666666"
     borderopacity="1"
     objecttolerance="10"
     gridtolerance="10"
     guidetolerance="10"
     inkscape:pageopacity="0"
     inkscape:pageshadow="2"
     inkscape:window-width="1220"
     inkscape:window-height="662"
     id="namedview4"
     showgrid="false"
     fit-margin-top="0"
     fit-margin-left="0"
     fit-margin-right="0"
     fit-margin-bottom="0"
     inkscape:zoom="0.24196061"
     inkscape:cx="-849.33194"
     inkscape:cy="-398.67733"
     inkscape:window-x="0"
     inkscape:window-y="0"
     inkscape:window-maximized="0"
     inkscape:current-layer="g10" /><g
     id="g10"
     inkscape:groupmode="layer"
     inkscape:label="Pantallas para credito Diseño - CPN"
     transform="matrix(1.3333333,0,0,-1.3333333,-994.72104,947.95931)"><g
       id="g44"><g
         id="g46"
         clip-path="url(#clipPath50)"><g
           id="g52"
           transform="translate(797.1758,701.5933)"><path
             d="m 0,0 -14.674,0.004 v -5.546 l 14.26,0.007 c 2.58,0 4.674,-2.094 4.674,-4.673 0,-2.587 -2.094,-4.679 -4.674,-4.679 l -14.26,0.009 0.01,-21.726 h 5.373 V -20.45 H 0 c 5.648,0 10.232,4.569 10.232,10.219 C 10.232,-4.583 5.648,0 0,0"
             style="fill:#ffffff;fill-opacity:1;fill-rule:nonzero;stroke:none"
             id="path54"
             inkscape:connector-curvature="0" /></g><g
           id="g56"
           transform="translate(766.293,669.231)"><path
             d="m 0,0 c -6.934,0 -12.555,5.621 -12.555,12.555 0,2.173 0.549,4.209 1.516,5.989 l -4.838,-0.658 c -0.584,-1.712 -0.9,-3.543 -0.9,-5.448 0,-9.335 7.562,-16.899 16.896,-16.899 5.748,0 10.822,2.87 13.871,7.257 H 7.895 C 5.736,1.048 2.99,0 0,0"
             style="fill:#f57f13;fill-opacity:1;fill-rule:nonzero;stroke:none"
             id="path58"
             inkscape:connector-curvature="0" /></g><g
           id="g60"
           transform="translate(809.6641,665.0308)"><path
             d="M 0,0 V 26.948 L 26.996,0 h -5.68 L 5.344,15.944 V 0 Z"
             style="fill:#ffffff;fill-opacity:1;fill-rule:nonzero;stroke:none"
             id="path62"
             inkscape:connector-curvature="0" /></g><g
           id="g64"
           transform="translate(836.6602,701.5649)"><path
             d="m 0,0 v -32.352 l -26.994,26.949 0.019,5.461 21.631,-21.602 V 0 Z"
             style="fill:#ffffff;fill-opacity:1;fill-rule:nonzero;stroke:none"
             id="path66"
             inkscape:connector-curvature="0" /></g><g
           id="g68"
           transform="translate(752.6758,696.0845)"><path
             d="m 0,0 h 24.354 v 5.435 l -30.989,9.45 z"
             style="fill:#ffffff;fill-opacity:1;fill-rule:evenodd;stroke:none"
             id="path70"
             inkscape:connector-curvature="0" /></g><g
           id="g72"
           transform="translate(752.6758,694.8535)"><path
             d="m 0,0 -5.855,-5.868 30.209,4.135 V 0 Z"
             style="fill:#ffffff;fill-opacity:1;fill-rule:evenodd;stroke:none"
             id="path74"
             inkscape:connector-curvature="0" /></g><g
           id="g76"
           transform="translate(857.2305,698.0835)"><path
             d="m 0,0 -1.232,-0.949 c -0.682,0.888 -1.498,1.56 -2.454,2.017 -0.953,0.456 -2,0.686 -3.142,0.686 -1.252,0 -2.406,-0.298 -3.469,-0.898 -1.06,-0.598 -1.889,-1.405 -2.471,-2.418 -0.582,-1.006 -0.878,-2.146 -0.878,-3.405 0,-1.908 0.658,-3.501 1.964,-4.779 1.307,-1.274 2.955,-1.914 4.95,-1.914 2.193,0 4.027,0.86 5.5,2.574 L 0,-10.021 c -0.781,-0.991 -1.754,-1.76 -2.918,-2.299 -1.164,-0.543 -2.471,-0.817 -3.91,-0.817 -2.738,0 -4.897,0.913 -6.479,2.734 -1.324,1.538 -1.988,3.398 -1.988,5.575 0,2.287 0.807,4.218 2.408,5.778 1.606,1.564 3.619,2.347 6.037,2.347 1.461,0 2.778,-0.288 3.959,-0.868 C -1.717,1.854 -0.752,1.037 0,0"
             style="fill:#ffffff;fill-opacity:1;fill-rule:nonzero;stroke:none"
             id="path78"
             inkscape:connector-curvature="0" /></g><g
           id="g80"
           transform="translate(865.6016,695.7515)"><path
             d="m 0,0 c -1.244,0 -2.307,-0.455 -3.195,-1.37 -0.891,-0.914 -1.334,-2.021 -1.334,-3.321 0,-0.832 0.201,-1.614 0.609,-2.336 0.404,-0.724 0.951,-1.283 1.643,-1.674 0.691,-0.398 1.445,-0.591 2.277,-0.591 0.82,0 1.576,0.193 2.27,0.591 0.691,0.391 1.236,0.95 1.644,1.674 0.404,0.722 0.611,1.504 0.611,2.336 0,1.3 -0.449,2.407 -1.345,3.321 C 2.289,-0.455 1.229,0 0,0 m 0.002,1.46 c 1.783,0 3.262,-0.644 4.43,-1.935 1.07,-1.181 1.599,-2.575 1.599,-4.185 0,-1.614 -0.562,-3.025 -1.687,-4.236 -1.127,-1.209 -2.574,-1.814 -4.342,-1.814 -1.775,0 -3.227,0.605 -4.356,1.814 -1.126,1.211 -1.691,2.622 -1.691,4.236 0,1.605 0.537,2.995 1.604,4.172 1.173,1.298 2.652,1.948 4.443,1.948"
             style="fill:#ffffff;fill-opacity:1;fill-rule:nonzero;stroke:none"
             id="path82"
             inkscape:connector-curvature="0" /></g><g
           id="g84"
           transform="translate(879.8613,695.7515)"><path
             d="m 0,0 c -1.238,0 -2.307,-0.455 -3.193,-1.37 -0.891,-0.914 -1.334,-2.021 -1.334,-3.321 0,-0.832 0.203,-1.614 0.605,-2.336 0.408,-0.724 0.957,-1.283 1.651,-1.674 0.687,-0.398 1.447,-0.591 2.271,-0.591 0.826,0 1.584,0.193 2.27,0.591 0.693,0.391 1.24,0.95 1.644,1.674 0.408,0.722 0.609,1.504 0.609,2.336 0,1.3 -0.447,2.407 -1.337,3.321 C 2.295,-0.455 1.23,0 0,0 m 0.004,1.46 c 1.781,0 3.26,-0.644 4.433,-1.935 1.067,-1.181 1.594,-2.575 1.594,-4.185 0,-1.614 -0.56,-3.025 -1.685,-4.236 -1.125,-1.209 -2.573,-1.814 -4.342,-1.814 -1.775,0 -3.225,0.605 -4.352,1.814 -1.127,1.211 -1.689,2.622 -1.689,4.236 0,1.605 0.533,2.995 1.6,4.172 1.171,1.298 2.652,1.948 4.441,1.948"
             style="fill:#ffffff;fill-opacity:1;fill-rule:nonzero;stroke:none"
             id="path86"
             inkscape:connector-curvature="0" /></g><g
           id="g88"
           transform="translate(894.6309,695.7788)"><path
             d="m 0,0 c -1.289,0 -2.373,-0.451 -3.256,-1.352 -0.877,-0.9 -1.316,-2.017 -1.316,-3.359 0,-0.88 0.193,-1.666 0.59,-2.372 0.392,-0.697 0.949,-1.254 1.679,-1.67 0.737,-0.407 1.508,-0.608 2.324,-0.608 0.801,0 1.553,0.203 2.254,0.618 0.705,0.416 1.266,0.993 1.68,1.739 0.418,0.744 0.633,1.524 0.633,2.335 0,0.824 -0.215,1.602 -0.629,2.339 -0.41,0.734 -0.969,1.306 -1.67,1.716 C 1.592,-0.208 0.83,0 0,0 m -5.959,1.135 h 1.492 v -2.132 c 0.586,0.811 1.26,1.422 2.031,1.823 0.764,0.404 1.614,0.607 2.559,0.607 1.641,0 3.049,-0.591 4.217,-1.777 1.17,-1.187 1.754,-2.61 1.754,-4.275 0,-1.705 -0.58,-3.146 -1.737,-4.333 -1.16,-1.191 -2.554,-1.785 -4.193,-1.785 -0.92,0 -1.762,0.193 -2.539,0.574 -0.77,0.385 -1.475,0.955 -2.092,1.715 v -6.224 h -1.492 z"
             style="fill:#ffffff;fill-opacity:1;fill-rule:nonzero;stroke:none"
             id="path90"
             inkscape:connector-curvature="0" /></g><g
           id="g92"
           transform="translate(913.2539,692.2964)"><path
             d="M 0,0 C -0.199,0.798 -0.488,1.429 -0.867,1.905 -1.248,2.377 -1.75,2.766 -2.373,3.052 -2.998,3.34 -3.652,3.488 -4.342,3.488 -5.479,3.488 -6.459,3.126 -7.273,2.395 -7.869,1.861 -8.32,1.063 -8.627,0 Z m 0,-3.116 1.256,-0.66 C 0.846,-4.584 0.367,-5.238 -0.17,-5.733 -0.709,-6.23 -1.314,-6.609 -1.992,-6.861 -2.668,-7.125 -3.43,-7.255 -4.281,-7.255 c -1.887,0 -3.364,0.618 -4.428,1.856 -1.062,1.24 -1.598,2.637 -1.598,4.199 0,1.467 0.45,2.773 1.35,3.924 1.146,1.462 2.676,2.192 4.594,2.192 1.97,0 3.547,-0.751 4.724,-2.245 C 1.199,1.612 1.625,0.294 1.639,-1.286 H -8.773 c 0.029,-1.348 0.455,-2.447 1.287,-3.306 0.832,-0.861 1.855,-1.291 3.076,-1.291 0.59,0 1.164,0.103 1.721,0.311 0.556,0.201 1.031,0.472 1.423,0.812 0.389,0.343 0.813,0.891 1.266,1.644"
             style="fill:#ffffff;fill-opacity:1;fill-rule:nonzero;stroke:none"
             id="path94"
             inkscape:connector-curvature="0" /></g><g
           id="g96"
           transform="translate(917.1055,696.9136)"><path
             d="m 0,0 h 1.52 v -1.69 c 0.453,0.663 0.933,1.164 1.437,1.495 0.502,0.328 1.027,0.493 1.574,0.493 0.412,0 0.848,-0.133 1.321,-0.392 L 5.074,-1.351 C 4.762,-1.217 4.498,-1.15 4.285,-1.15 3.789,-1.15 3.313,-1.355 2.85,-1.761 2.385,-2.168 2.039,-2.799 1.795,-3.658 1.611,-4.321 1.52,-5.656 1.52,-7.658 v -3.915 H 0 Z"
             style="fill:#ffffff;fill-opacity:1;fill-rule:nonzero;stroke:none"
             id="path98"
             inkscape:connector-curvature="0" /></g><g
           id="g100"
           transform="translate(929.7988,695.7788)"><path
             d="m 0,0 c -0.828,0 -1.596,-0.208 -2.297,-0.614 -0.697,-0.41 -1.256,-0.982 -1.67,-1.716 -0.412,-0.737 -0.619,-1.515 -0.619,-2.339 0,-0.811 0.207,-1.591 0.623,-2.335 0.422,-0.746 0.979,-1.323 1.686,-1.739 0.701,-0.415 1.461,-0.618 2.269,-0.618 0.813,0 1.584,0.201 2.313,0.608 0.732,0.416 1.293,0.973 1.685,1.67 0.395,0.706 0.588,1.492 0.588,2.372 0,1.342 -0.439,2.459 -1.322,3.359 C 2.377,-0.451 1.291,0 0,0 M 5.955,1.135 V -10.44 H 4.486 v 1.992 c -0.627,-0.76 -1.326,-1.33 -2.105,-1.715 -0.777,-0.381 -1.621,-0.574 -2.547,-0.574 -1.635,0 -3.035,0.594 -4.193,1.785 -1.162,1.187 -1.741,2.628 -1.741,4.333 0,1.665 0.584,3.088 1.76,4.275 1.166,1.186 2.57,1.777 4.219,1.777 0.951,0 1.81,-0.203 2.582,-0.607 0.766,-0.401 1.443,-1.012 2.025,-1.823 v 2.132 z"
             style="fill:#ffffff;fill-opacity:1;fill-rule:nonzero;stroke:none"
             id="path102"
             inkscape:connector-curvature="0" /></g><g
           id="g104"
           transform="translate(940.4004,701.2119)"><path
             d="M 0,0 H 1.488 V -4.298 H 3.85 V -5.586 H 1.488 V -15.871 H 0 v 10.285 h -2.033 v 1.288 H 0 Z"
             style="fill:#ffffff;fill-opacity:1;fill-rule:nonzero;stroke:none"
             id="path106"
             inkscape:connector-curvature="0" /></g><path
           d="m 946.26,696.913 h 1.49 v -11.574 h -1.49 z m 0.736,4.765 c 0.344,0 0.633,-0.123 0.873,-0.362 0.242,-0.24 0.36,-0.532 0.36,-0.872 0,-0.331 -0.118,-0.62 -0.36,-0.862 -0.24,-0.241 -0.529,-0.363 -0.873,-0.363 -0.33,0 -0.615,0.122 -0.853,0.363 -0.245,0.242 -0.36,0.531 -0.36,0.862 0,0.34 0.115,0.632 0.36,0.872 0.238,0.239 0.523,0.362 0.853,0.362"
           style="fill:#ffffff;fill-opacity:1;fill-rule:nonzero;stroke:none"
           id="path108"
           inkscape:connector-curvature="0" /><g
           id="g110"
           transform="translate(949.748,696.9136)"><path
             d="M 0,0 H 1.586 L 5.473,-8.438 9.309,0 h 1.595 L 5.607,-11.573 H 5.328 Z"
             style="fill:#ffffff;fill-opacity:1;fill-rule:nonzero;stroke:none"
             id="path112"
             inkscape:connector-curvature="0" /></g><g
           id="g114"
           transform="translate(968.498,695.7788)"><path
             d="m 0,0 c -0.828,0 -1.594,-0.208 -2.295,-0.614 -0.703,-0.41 -1.258,-0.982 -1.672,-1.716 -0.418,-0.737 -0.625,-1.515 -0.625,-2.339 0,-0.811 0.211,-1.591 0.627,-2.335 0.42,-0.746 0.977,-1.323 1.684,-1.739 0.707,-0.415 1.463,-0.618 2.269,-0.618 0.815,0 1.588,0.201 2.313,0.608 0.732,0.416 1.295,0.973 1.687,1.67 0.393,0.706 0.586,1.492 0.586,2.372 0,1.342 -0.437,2.459 -1.318,3.359 C 2.373,-0.451 1.287,0 0,0 M 5.953,1.135 V -10.44 H 4.482 v 1.992 c -0.625,-0.76 -1.32,-1.33 -2.099,-1.715 -0.778,-0.381 -1.627,-0.574 -2.549,-0.574 -1.639,0 -3.037,0.594 -4.195,1.785 -1.159,1.187 -1.737,2.628 -1.737,4.333 0,1.665 0.58,3.088 1.752,4.275 1.168,1.186 2.576,1.777 4.223,1.777 0.947,0 1.81,-0.203 2.584,-0.607 C 3.227,0.425 3.9,-0.186 4.482,-0.997 v 2.132 z"
             style="fill:#ffffff;fill-opacity:1;fill-rule:nonzero;stroke:none"
             id="path116"
             inkscape:connector-curvature="0" /></g><g
           id="g118"
           transform="translate(843.3437,676.2051)"><path
             d="M 0,0 V -4.186 L 2.094,-4.21 c 0.844,0 1.459,0.075 1.851,0.231 0.395,0.151 0.703,0.402 0.924,0.743 0.227,0.345 0.338,0.726 0.338,1.154 0,0.408 -0.111,0.79 -0.338,1.132 C 4.648,-0.603 4.352,-0.364 3.984,-0.22 3.617,-0.072 3.018,0 2.186,0 Z m -1.229,1.208 h 2.458 c 1.41,0 2.363,-0.059 2.851,-0.18 C 4.785,0.851 5.359,0.493 5.807,-0.045 6.256,-0.585 6.48,-1.267 6.48,-2.082 6.48,-2.904 6.26,-3.579 5.824,-4.116 5.389,-4.65 4.789,-5.008 4.023,-5.196 3.465,-5.325 2.418,-5.393 0.885,-5.393 H 0 v -5.739 h -1.229 z"
             style="fill:#ffffff;fill-opacity:1;fill-rule:nonzero;stroke:none"
             id="path120"
             inkscape:connector-curvature="0" /></g><g
           id="g122"
           transform="translate(856.4141,673.2876)"><path
             d="m 0,0 c -0.977,0 -1.816,-0.365 -2.52,-1.088 -0.697,-0.717 -1.05,-1.593 -1.05,-2.614 0,-0.659 0.162,-1.276 0.48,-1.847 0.32,-0.57 0.754,-1.007 1.297,-1.315 0.547,-0.315 1.141,-0.471 1.793,-0.471 0.65,0 1.248,0.156 1.793,0.471 0.545,0.308 0.977,0.745 1.297,1.315 0.318,0.571 0.478,1.188 0.478,1.847 0,1.021 -0.349,1.897 -1.054,2.614 C 1.812,-0.365 0.971,0 0,0 M 0.002,1.148 C 1.41,1.148 2.578,0.641 3.5,-0.381 4.342,-1.31 4.76,-2.406 4.76,-3.675 4.76,-4.952 4.318,-6.066 3.428,-7.018 2.539,-7.976 1.396,-8.45 0.002,-8.45 c -1.398,0 -2.545,0.474 -3.426,1.432 -0.894,0.952 -1.336,2.066 -1.336,3.343 0,1.265 0.414,2.362 1.26,3.288 0.926,1.024 2.092,1.535 3.502,1.535"
             style="fill:#ffffff;fill-opacity:1;fill-rule:nonzero;stroke:none"
             id="path124"
             inkscape:connector-curvature="0" /></g><path
           d="m 863.172,677.722 h 1.172 v -12.646 h -1.172 z"
           style="fill:#ffffff;fill-opacity:1;fill-rule:nonzero;stroke:none"
           id="path126"
           inkscape:connector-curvature="0" /><path
           d="m 866.613,674.2 h 1.172 v -9.125 h -1.172 z m 0.58,3.756 c 0.27,0 0.493,-0.092 0.688,-0.284 0.187,-0.187 0.283,-0.419 0.283,-0.687 0,-0.264 -0.096,-0.49 -0.283,-0.68 -0.195,-0.189 -0.418,-0.284 -0.688,-0.284 -0.259,0 -0.486,0.095 -0.673,0.284 -0.192,0.19 -0.282,0.416 -0.282,0.68 0,0.268 0.09,0.5 0.282,0.687 0.187,0.192 0.414,0.284 0.673,0.284"
           style="fill:#ffffff;fill-opacity:1;fill-rule:nonzero;stroke:none"
           id="path128"
           inkscape:connector-curvature="0" /><g
           id="g130"
           transform="translate(879.084,672.3057)"><path
             d="m 0,0 -0.93,-0.579 c -0.802,1.067 -1.9,1.601 -3.289,1.601 -1.117,0 -2.039,-0.359 -2.773,-1.073 -0.733,-0.713 -1.102,-1.585 -1.102,-2.603 0,-0.666 0.166,-1.297 0.508,-1.879 0.336,-0.588 0.801,-1.042 1.391,-1.367 0.586,-0.324 1.25,-0.486 1.982,-0.486 1.34,0 2.434,0.535 3.283,1.603 L 0,-5.397 c -0.434,-0.654 -1.018,-1.164 -1.754,-1.526 -0.736,-0.365 -1.576,-0.544 -2.514,-0.544 -1.445,0 -2.638,0.454 -3.589,1.374 -0.954,0.919 -1.428,2.032 -1.428,3.35 0,0.881 0.224,1.704 0.666,2.46 0.449,0.757 1.058,1.35 1.834,1.776 0.777,0.424 1.646,0.637 2.607,0.637 0.608,0 1.19,-0.092 1.75,-0.276 C -1.865,1.67 -1.389,1.427 -0.998,1.131 -0.605,0.833 -0.273,0.455 0,0"
             style="fill:#ffffff;fill-opacity:1;fill-rule:nonzero;stroke:none"
             id="path132"
             inkscape:connector-curvature="0" /></g><path
           d="m 881.166,674.2 h 1.176 v -9.125 h -1.176 z m 1.168,4.278 h 1.803 l -2.475,-2.584 h -1.158 z"
           style="fill:#ffffff;fill-opacity:1;fill-rule:nonzero;stroke:none"
           id="path134"
           inkscape:connector-curvature="0" /><g
           id="g136"
           transform="translate(889.1816,673.3008)"><path
             d="m 0,0 c -0.652,0 -1.252,-0.162 -1.811,-0.481 -0.55,-0.319 -0.992,-0.772 -1.32,-1.354 -0.326,-0.58 -0.488,-1.194 -0.488,-1.84 0,-0.643 0.168,-1.26 0.496,-1.845 0.332,-0.588 0.771,-1.045 1.326,-1.371 0.557,-0.328 1.151,-0.491 1.789,-0.491 0.643,0 1.252,0.163 1.826,0.487 0.577,0.326 1.018,0.763 1.328,1.317 0.313,0.553 0.471,1.172 0.471,1.868 0,1.054 -0.353,1.936 -1.049,2.645 C 1.873,-0.353 1.02,0 0,0 M 4.693,0.899 V -8.228 H 3.539 v 1.57 C 3.045,-7.257 2.496,-7.708 1.881,-8.011 1.27,-8.311 0.6,-8.465 -0.131,-8.465 c -1.287,0 -2.392,0.468 -3.307,1.407 -0.916,0.936 -1.373,2.074 -1.373,3.422 0,1.312 0.461,2.438 1.383,3.37 0.922,0.93 2.037,1.401 3.336,1.401 0.744,0 1.424,-0.163 2.033,-0.477 0.606,-0.321 1.135,-0.798 1.598,-1.441 v 1.682 z"
             style="fill:#ffffff;fill-opacity:1;fill-rule:nonzero;stroke:none"
             id="path138"
             inkscape:connector-curvature="0" /></g><g
           id="g140"
           transform="translate(901.4766,665.0732)"><path
             d="M 0,0 V 12.339 H 0.27 L 8.484,2.88 v 9.459 H 9.699 V 0 H 9.424 L 1.273,9.341 V 0 Z"
             style="fill:#ffffff;fill-opacity:1;fill-rule:nonzero;stroke:none"
             id="path142"
             inkscape:connector-curvature="0" /></g><g
           id="g144"
           transform="translate(918.3867,673.3008)"><path
             d="m 0,0 c -0.654,0 -1.262,-0.162 -1.811,-0.481 -0.554,-0.319 -0.994,-0.772 -1.322,-1.354 -0.328,-0.58 -0.488,-1.194 -0.488,-1.84 0,-0.643 0.164,-1.26 0.496,-1.845 0.326,-0.588 0.768,-1.045 1.324,-1.371 0.557,-0.328 1.155,-0.491 1.791,-0.491 0.641,0 1.252,0.163 1.83,0.487 0.571,0.326 1.016,0.763 1.325,1.317 0.31,0.553 0.466,1.172 0.466,1.868 0,1.054 -0.351,1.936 -1.045,2.645 C 1.873,-0.353 1.014,0 0,0 M 4.693,0.899 V -8.228 H 3.537 v 1.57 c -0.496,-0.599 -1.045,-1.05 -1.658,-1.353 -0.609,-0.3 -1.283,-0.454 -2.01,-0.454 -1.289,0 -2.394,0.468 -3.31,1.407 -0.914,0.936 -1.375,2.074 -1.375,3.422 0,1.312 0.466,2.438 1.39,3.37 0.918,0.93 2.033,1.401 3.328,1.401 0.75,0 1.432,-0.163 2.034,-0.477 0.609,-0.321 1.14,-0.798 1.601,-1.441 v 1.682 z"
             style="fill:#ffffff;fill-opacity:1;fill-rule:nonzero;stroke:none"
             id="path146"
             inkscape:connector-curvature="0" /></g><g
           id="g148"
           transform="translate(934.5801,672.3057)"><path
             d="m 0,0 -0.934,-0.579 c -0.802,1.067 -1.898,1.601 -3.293,1.601 -1.109,0 -2.029,-0.359 -2.765,-1.073 -0.735,-0.713 -1.1,-1.585 -1.1,-2.603 0,-0.666 0.162,-1.297 0.506,-1.879 0.336,-0.588 0.799,-1.042 1.393,-1.367 0.591,-0.324 1.246,-0.486 1.98,-0.486 1.336,0 2.434,0.535 3.279,1.603 L 0,-5.397 c -0.434,-0.654 -1.021,-1.164 -1.756,-1.526 -0.74,-0.365 -1.576,-0.544 -2.514,-0.544 -1.443,0 -2.638,0.454 -3.589,1.374 -0.952,0.919 -1.426,2.032 -1.426,3.35 0,0.881 0.221,1.704 0.668,2.46 0.441,0.757 1.053,1.35 1.83,1.776 0.781,0.424 1.646,0.637 2.611,0.637 0.604,0 1.188,-0.092 1.748,-0.276 C -1.861,1.67 -1.389,1.427 -0.998,1.131 -0.607,0.833 -0.271,0.455 0,0"
             style="fill:#ffffff;fill-opacity:1;fill-rule:nonzero;stroke:none"
             id="path150"
             inkscape:connector-curvature="0" /></g><path
           d="m 936.662,674.2 h 1.176 v -9.125 h -1.176 z m 0.584,3.756 c 0.264,0 0.496,-0.092 0.684,-0.284 0.189,-0.187 0.283,-0.419 0.283,-0.687 0,-0.264 -0.094,-0.49 -0.283,-0.68 -0.188,-0.189 -0.42,-0.284 -0.684,-0.284 -0.264,0 -0.488,0.095 -0.682,0.284 -0.185,0.19 -0.279,0.416 -0.279,0.68 0,0.268 0.094,0.5 0.279,0.687 0.194,0.192 0.418,0.284 0.682,0.284"
           style="fill:#ffffff;fill-opacity:1;fill-rule:nonzero;stroke:none"
           id="path152"
           inkscape:connector-curvature="0" /><g
           id="g154"
           transform="translate(944.5937,673.2876)"><path
             d="m 0,0 c -0.973,0 -1.814,-0.365 -2.514,-1.088 -0.707,-0.717 -1.054,-1.593 -1.054,-2.614 0,-0.659 0.158,-1.276 0.48,-1.847 0.317,-0.57 0.75,-1.007 1.293,-1.315 0.543,-0.315 1.149,-0.471 1.795,-0.471 0.65,0 1.246,0.156 1.793,0.471 0.543,0.308 0.978,0.745 1.299,1.315 0.318,0.571 0.476,1.188 0.476,1.847 0,1.021 -0.349,1.897 -1.054,2.614 C 1.807,-0.365 0.971,0 0,0 m 0,1.148 c 1.408,0 2.578,-0.507 3.502,-1.529 0.842,-0.929 1.262,-2.025 1.262,-3.294 0,-1.277 -0.446,-2.391 -1.34,-3.343 C 2.541,-7.976 1.4,-8.45 0,-8.45 c -1.398,0 -2.539,0.474 -3.426,1.432 -0.888,0.952 -1.334,2.066 -1.334,3.343 0,1.265 0.422,2.362 1.258,3.288 0.926,1.024 2.094,1.535 3.502,1.535"
             style="fill:#ffffff;fill-opacity:1;fill-rule:nonzero;stroke:none"
             id="path156"
             inkscape:connector-curvature="0" /></g><g
           id="g158"
           transform="translate(951.5234,674.1997)"><path
             d="m 0,0 h 1.18 v -1.637 c 0.47,0.628 0.992,1.095 1.56,1.407 0.571,0.311 1.19,0.466 1.86,0.466 0.681,0 1.293,-0.175 1.82,-0.521 0.527,-0.347 0.918,-0.814 1.168,-1.399 0.256,-0.591 0.377,-1.505 0.377,-2.747 v -4.694 h -1.17 v 4.354 c 0,1.051 -0.045,1.752 -0.133,2.103 -0.141,0.607 -0.4,1.058 -0.787,1.367 C 5.492,-0.999 4.99,-0.846 4.367,-0.846 3.658,-0.846 3.02,-1.083 2.461,-1.553 1.895,-2.019 1.523,-2.604 1.346,-3.295 1.236,-3.748 1.18,-4.576 1.18,-5.78 V -9.125 H 0 Z"
             style="fill:#ffffff;fill-opacity:1;fill-rule:nonzero;stroke:none"
             id="path160"
             inkscape:connector-curvature="0" /></g><g
           id="g162"
           transform="translate(966.4062,673.3008)"><path
             d="m 0,0 c -0.652,0 -1.26,-0.162 -1.811,-0.481 -0.556,-0.319 -0.994,-0.772 -1.32,-1.354 -0.328,-0.58 -0.492,-1.194 -0.492,-1.84 0,-0.643 0.164,-1.26 0.498,-1.845 0.326,-0.588 0.768,-1.045 1.326,-1.371 0.555,-0.328 1.153,-0.491 1.789,-0.491 0.643,0 1.252,0.163 1.828,0.487 0.577,0.326 1.018,0.763 1.328,1.317 0.311,0.553 0.465,1.172 0.465,1.868 0,1.054 -0.347,1.936 -1.043,2.645 C 1.877,-0.353 1.016,0 0,0 M 4.697,0.899 V -8.228 H 3.535 v 1.57 c -0.492,-0.599 -1.043,-1.05 -1.658,-1.353 -0.611,-0.3 -1.281,-0.454 -2.006,-0.454 -1.289,0 -2.392,0.468 -3.309,1.407 -0.919,0.936 -1.374,2.074 -1.374,3.422 0,1.312 0.462,2.438 1.384,3.37 0.922,0.93 2.032,1.401 3.332,1.401 0.748,0 1.426,-0.163 2.033,-0.477 0.608,-0.321 1.139,-0.798 1.598,-1.441 v 1.682 z"
             style="fill:#ffffff;fill-opacity:1;fill-rule:nonzero;stroke:none"
             id="path164"
             inkscape:connector-curvature="0" /></g><path
           d="m 973.566,677.722 h 1.176 v -12.646 h -1.176 z"
           style="fill:#ffffff;fill-opacity:1;fill-rule:nonzero;stroke:none"
           id="path166"
           inkscape:connector-curvature="0" /></g></g></g></svg>