<?xml version="1.0" encoding="UTF-8" standalone="no"?>
<!-- Created with Inkscape (http://www.inkscape.org/) -->

<svg
   xmlns:dc="http://purl.org/dc/elements/1.1/"
   xmlns:cc="http://creativecommons.org/ns#"
   xmlns:rdf="http://www.w3.org/1999/02/22-rdf-syntax-ns#"
   xmlns:svg="http://www.w3.org/2000/svg"
   xmlns="http://www.w3.org/2000/svg"
   xmlns:sodipodi="http://sodipodi.sourceforge.net/DTD/sodipodi-0.dtd"
   xmlns:inkscape="http://www.inkscape.org/namespaces/inkscape"
   version="1.1"
   id="svg2"
   xml:space="preserve"
   width="800"
   height="731.15326"
   viewBox="0 0 800 731.15326"
   sodipodi:docname="bg-isotype.svg"
   style="opacity:.5;"
   inkscape:version="0.92.2 5c3e80d, 2017-08-06"><metadata
     id="metadata8"><rdf:RDF><cc:Work
         rdf:about=""><dc:format>image/svg+xml</dc:format><dc:type
           rdf:resource="http://purl.org/dc/dcmitype/StillImage" /><dc:title></dc:title></cc:Work></rdf:RDF></metadata><defs
     id="defs6"><clipPath
       clipPathUnits="userSpaceOnUse"
       id="clipPath18"><path
         d="M 0,32 H 32 V 0 H 0 Z"
         id="path16"
         inkscape:connector-curvature="0" /></clipPath><clipPath
       clipPathUnits="userSpaceOnUse"
       id="clipPath26"><path
         d="M 0,32 H 32 V 0 H 0 Z"
         id="path24"
         inkscape:connector-curvature="0" /></clipPath><clipPath
       clipPathUnits="userSpaceOnUse"
       id="clipPath40"><path
         d="M 0.0346222,30.5871 H 31.9654 V 1.41289 H 0.0346222 Z"
         id="path38"
         inkscape:connector-curvature="0" /></clipPath></defs><sodipodi:namedview
     pagecolor="#ffffff"
     bordercolor="#666666"
     borderopacity="1"
     objecttolerance="10"
     gridtolerance="10"
     guidetolerance="10"
     inkscape:pageopacity="0"
     inkscape:pageshadow="2"
     inkscape:window-width="1337"
     inkscape:window-height="614"
     id="namedview4"
     showgrid="false"
     inkscape:zoom="0.39381919"
     inkscape:cx="449.71991"
     inkscape:cy="356.38182"
     inkscape:window-x="0"
     inkscape:window-y="0"
     inkscape:window-maximized="0"
     inkscape:current-layer="svg2"
     fit-margin-top="0"
     fit-margin-left="0"
     fit-margin-right="0"
     fit-margin-bottom="0" /><path
     inkscape:connector-curvature="0"
     id="path42"
     style="fill:none;fill-opacity:1;fill-rule:nonzero;stroke:#69be28;stroke-width:2;stroke-miterlimit:4;stroke-dasharray:none"
     d="M 517.17783,183.65505 C 377.71217,320.53489 253.22982,471.64887 141.31411,631.75285 l 0.0725,0.0725 C 340.76138,458.59889 557.63279,305.57573 790.93751,181.55255 v -0.31411 c -91.27739,-3.47999 -182.60312,-2.77917 -273.75968,2.41666" /><path
     inkscape:connector-curvature="0"
     id="path46"
     style="fill:none;fill-opacity:1;fill-rule:nonzero;stroke:#ffffff;stroke-width:2;stroke-miterlimit:4;stroke-dasharray:none"
     d="m 636.65527,693.16271 0.0961,-0.0961 C 607.02636,582.50427 577.63974,471.84524 548.54311,361.01703 476.62319,407.51363 406.29827,456.20942 337.56836,507.2977 438.19824,567.66595 537.78894,629.82254 636.65467,693.16331 M 59.579517,722.09077 h 0.120894 C 180.65444,523.151 320.91759,336.17372 483.8249,169.54475 464.15326,118.67399 423.72247,17.029114 423.72247,17.029114 368.52587,79.330704 319.75759,146.70728 274.78348,216.69387 187.95276,236.58301 102.3062,261.52298 19.293792,294.22045 c 0,0 105.342378,71.48491 157.010648,108.38737 C 132.49033,503.8177 63.66374,709.74162 59.579577,722.09077" /></svg>
