<?xml version="1.0" encoding="UTF-8" standalone="no"?>
<!-- Created with Inkscape (http://www.inkscape.org/) -->

<svg
   xmlns:dc="http://purl.org/dc/elements/1.1/"
   xmlns:cc="http://creativecommons.org/ns#"
   xmlns:rdf="http://www.w3.org/1999/02/22-rdf-syntax-ns#"
   xmlns:svg="http://www.w3.org/2000/svg"
   xmlns="http://www.w3.org/2000/svg"
   xmlns:sodipodi="http://sodipodi.sourceforge.net/DTD/sodipodi-0.dtd"
   xmlns:inkscape="http://www.inkscape.org/namespaces/inkscape"
   version="1.1"
   id="svg2"
   xml:space="preserve"
   width="42.666668"
   height="42.666668"
   viewBox="0 0 42.666668 42.666668"
   sodipodi:docname="isotype.svg"
   inkscape:version="0.92.2 5c3e80d, 2017-08-06"><metadata
     id="metadata8"><rdf:RDF><cc:Work
         rdf:about=""><dc:format>image/svg+xml</dc:format><dc:type
           rdf:resource="http://purl.org/dc/dcmitype/StillImage" /><dc:title /></cc:Work></rdf:RDF></metadata><defs
     id="defs6"><clipPath
       clipPathUnits="userSpaceOnUse"
       id="clipPath18"><path
         d="M 0,32 H 32 V 0 H 0 Z"
         id="path16"
         inkscape:connector-curvature="0" /></clipPath><clipPath
       clipPathUnits="userSpaceOnUse"
       id="clipPath26"><path
         d="M 0,32 H 32 V 0 H 0 Z"
         id="path24"
         inkscape:connector-curvature="0" /></clipPath><clipPath
       clipPathUnits="userSpaceOnUse"
       id="clipPath40"><path
         d="M 0.0346222,30.5871 H 31.9654 V 1.41289 H 0.0346222 Z"
         id="path38"
         inkscape:connector-curvature="0" /></clipPath></defs><sodipodi:namedview
     pagecolor="#ffffff"
     bordercolor="#666666"
     borderopacity="1"
     objecttolerance="10"
     gridtolerance="10"
     guidetolerance="10"
     inkscape:pageopacity="0"
     inkscape:pageshadow="2"
     inkscape:window-width="1337"
     inkscape:window-height="614"
     id="namedview4"
     showgrid="false"
     inkscape:zoom="5.5312498"
     inkscape:cx="13.920904"
     inkscape:cy="21.333334"
     inkscape:window-x="0"
     inkscape:window-y="0"
     inkscape:window-maximized="0"
     inkscape:current-layer="svg2" /><path
     inkscape:connector-curvature="0"
     id="path42"
     style="fill:#69be28;fill-opacity:1;fill-rule:nonzero;stroke:none;stroke-width:1.33333325"
     d="M 27.516266,11.076534 C 19.8216,18.628534 12.9536,26.965867 6.7789332,35.7992 l 0.004,0.004 c 10.9999998,-9.557333 22.9653328,-18 35.8373328,-24.842666 v -0.01733 c -5.036,-0.192 -10.074667,-0.153334 -15.104,0.133333" /><path
     inkscape:connector-curvature="0"
     id="path46"
     style="fill:#ffffff;fill-opacity:1;fill-rule:nonzero;stroke:none;stroke-width:1.33333325"
     d="m 34.108132,39.187334 0.0053,-0.0053 c -1.64,-6.1 -3.261333,-12.205333 -4.866666,-18.32 -3.968,2.565333 -7.848,5.252 -11.64,8.070667 5.552,3.330666 11.046666,6.759999 16.501333,10.254666 m -31.8386659,1.596 h 0.00667 c 6.6733332,-10.976 14.4119989,-21.292 23.3999989,-30.485333 -1.085333,-2.8066662 -3.316,-8.4146661 -3.316,-8.4146661 -3.045333,3.4373333 -5.736,7.1546665 -8.217333,11.0160001 -4.7906661,1.097333 -9.5159993,2.473333 -14.09599918,4.277333 0,0 5.81199988,3.944 8.66266648,5.98 -2.4173333,5.584 -6.2146665,16.945333 -6.4399999,17.626666" /></svg>