<?xml version="1.0" encoding="UTF-8" standalone="no"?>
<!-- Created with Inkscape (http://www.inkscape.org/) -->

<svg
   xmlns:dc="http://purl.org/dc/elements/1.1/"
   xmlns:cc="http://creativecommons.org/ns#"
   xmlns:rdf="http://www.w3.org/1999/02/22-rdf-syntax-ns#"
   xmlns:svg="http://www.w3.org/2000/svg"
   xmlns="http://www.w3.org/2000/svg"
   xmlns:sodipodi="http://sodipodi.sourceforge.net/DTD/sodipodi-0.dtd"
   xmlns:inkscape="http://www.inkscape.org/namespaces/inkscape"
   version="1.1"
   id="svg2"
   xml:space="preserve"
   width="199.82364"
   height="66.257202"
   viewBox="0 0 199.82364 66.257203"
   sodipodi:docname="logotype.svg"
   inkscape:version="0.92.2 5c3e80d, 2017-08-06"><metadata
     id="metadata8"><rdf:RDF><cc:Work
         rdf:about=""><dc:format>image/svg+xml</dc:format><dc:type
           rdf:resource="http://purl.org/dc/dcmitype/StillImage" /><dc:title></dc:title></cc:Work></rdf:RDF></metadata><defs
     id="defs6"><clipPath
       clipPathUnits="userSpaceOnUse"
       id="clipPath18"><path
         d="M 0,100 H 150 V 0 H 0 Z"
         id="path16"
         inkscape:connector-curvature="0" /></clipPath><clipPath
       clipPathUnits="userSpaceOnUse"
       id="clipPath30"><path
         d="M 0,100 H 150 V 0 H 0 Z"
         id="path28"
         inkscape:connector-curvature="0" /></clipPath><clipPath
       clipPathUnits="userSpaceOnUse"
       id="clipPath44"><path
         d="M 0.0658112,74.0971 H 149.934 V 24.4029 H 0.0658112 Z"
         id="path42"
         inkscape:connector-curvature="0" /></clipPath></defs><sodipodi:namedview
     pagecolor="#ffffff"
     bordercolor="#666666"
     borderopacity="1"
     objecttolerance="10"
     gridtolerance="10"
     guidetolerance="10"
     inkscape:pageopacity="0"
     inkscape:pageshadow="2"
     inkscape:window-width="1290"
     inkscape:window-height="578"
     id="namedview4"
     showgrid="false"
     fit-margin-top="0"
     fit-margin-left="0"
     fit-margin-right="0"
     fit-margin-bottom="0"
     inkscape:zoom="1.7700001"
     inkscape:cx="26.465316"
     inkscape:cy="34.128267"
     inkscape:window-x="0"
     inkscape:window-y="0"
     inkscape:window-maximized="0"
     inkscape:current-layer="svg2" /><g
     id="g38"
     transform="matrix(1.3333333,0,0,-1.3333333,-0.08835944,98.795598)"><g
       id="g40" /><g
       id="g84"><g
         style="opacity:0.80000299"
         id="g82"
         clip-path="url(#clipPath44)"><g
           id="g48"
           transform="translate(70.9082,28.1338)"><path
             inkscape:connector-curvature="0"
             id="path46"
             style="fill:#ffffff;fill-opacity:1;fill-rule:nonzero;stroke:none"
             d="m 0,0 c -0.139,-0.649 -0.722,-0.913 -1.129,-0.913 -0.408,0 -0.495,0.374 -0.396,0.825 0.109,0.528 0.416,0.825 1.06,0.953 0.195,0.047 0.472,0.147 0.711,0.303 z m 0.215,4.278 c -1.143,0 -2.175,-0.462 -2.467,-1.823 L -2.281,2.311 h 1.367 l 0.033,0.164 c 0.099,0.463 0.407,0.767 0.865,0.767 0.507,0 0.651,-0.272 0.552,-0.724 C 0.452,2.124 0.262,1.947 -0.218,1.828 L -1.123,1.594 c -1.109,-0.283 -1.655,-0.738 -1.893,-1.85 -0.165,-0.789 0.018,-1.693 1.071,-1.693 0.729,0 1.195,0.152 1.673,0.771 h 0.024 c 0.001,-0.197 -0.004,-0.429 0.053,-0.619 h 1.452 c -0.083,0.344 -0.058,0.597 0.06,1.148 l 0.66,3.114 C 2.205,3.529 2.021,4.278 0.215,4.278 M -3.128,1.994 c 0.295,1.392 -0.243,2.284 -1.64,2.284 -1.397,0 -2.544,-0.68 -3.061,-3.11 -0.508,-2.38 0.088,-3.117 1.603,-3.117 1.61,0 2.445,0.87 2.769,2.425 h -1.448 c -0.204,-0.963 -0.526,-1.389 -1.033,-1.389 -0.684,0 -0.686,0.607 -0.374,2.065 0.289,1.366 0.551,2.029 1.294,2.029 0.579,0 0.557,-0.617 0.436,-1.187 z m -7.699,-3.791 h 1.52 l 1.262,5.924 H -9.567 Z M -7.615,6.15 H -9.136 L -9.411,4.853 h 1.517 z M -10.14,4.258 c -0.089,0.012 -0.183,0.02 -0.271,0.02 -0.628,0 -1.134,-0.373 -1.568,-0.939 h -0.024 l 0.173,0.788 h -1.452 l -1.262,-5.924 h 1.518 l 0.759,3.558 c 0.167,0.793 0.819,1.069 1.348,1.069 0.154,0 0.315,-0.015 0.472,-0.024 z m -5.876,-2.419 h -1.549 l 0.045,0.231 c 0.119,0.547 0.426,1.172 1.034,1.172 0.629,0 0.629,-0.504 0.47,-1.403 m -0.194,2.439 c -2.051,0 -2.668,-1.472 -3.009,-3.053 -0.312,-1.481 -0.583,-3.174 1.621,-3.174 1.425,0 2.25,0.771 2.598,2.149 h -1.36 c -0.245,-0.733 -0.537,-1.113 -1.046,-1.113 -0.561,0 -0.602,0.684 -0.452,1.374 l 0.097,0.475 h 3.006 l 0.072,0.339 c 0.385,1.821 0.244,3.003 -1.527,3.003 m -4.623,0 c -0.718,0 -1.337,-0.319 -1.697,-0.939 h -0.025 c -0.036,0.599 -0.468,0.939 -1.161,0.939 -0.641,0 -1.161,-0.22 -1.658,-0.757 h -0.022 l 0.13,0.606 h -1.455 l -1.257,-5.924 h 1.516 l 0.827,3.899 c 0.149,0.685 0.523,1.016 1.011,1.016 0.431,0 0.534,-0.282 0.431,-0.777 l -0.879,-4.138 h 1.519 l 0.825,3.899 c 0.146,0.685 0.524,1.016 1.007,1.016 0.429,0 0.534,-0.282 0.432,-0.777 l -0.881,-4.138 h 1.517 l 0.915,4.306 c 0.243,1.142 -0.093,1.769 -1.095,1.769 m -8.854,-3.11 c -0.308,-1.474 -0.635,-2.081 -1.252,-2.081 -0.748,0 -0.628,0.872 -0.373,2.081 0.258,1.211 0.509,2.074 1.258,2.074 0.617,0 0.683,-0.604 0.367,-2.074 m -0.149,3.11 c -1.739,0 -2.565,-1.084 -2.994,-3.11 -0.439,-2.063 -0.164,-3.149 1.67,-3.117 1.739,0 2.565,1.089 2.999,3.117 0.432,2.056 0.161,3.144 -1.675,3.11 m -2.688,-0.02 c -0.084,0.012 -0.182,0.02 -0.271,0.02 -0.629,0 -1.136,-0.373 -1.566,-0.939 h -0.023 l 0.169,0.788 h -1.454 l -1.259,-5.924 h 1.52 l 0.759,3.558 c 0.166,0.793 0.818,1.069 1.346,1.069 0.156,0 0.317,-0.015 0.47,-0.024 z M -38.043,3.589 C -38.209,2.788 -38.72,2.41 -39.349,2.41 h -0.704 l 0.508,2.39 h 0.659 c 0.795,0 1.007,-0.443 0.843,-1.211 m 0.03,2.475 h -2.772 l -1.673,-7.861 h 1.587 l 0.667,3.14 h 0.849 c 1.495,0 2.652,0.737 2.999,2.364 0.251,1.179 -0.049,2.357 -1.657,2.357 m -8.97,-4.896 c -0.312,-1.474 -0.64,-2.081 -1.254,-2.081 -0.747,0 -0.632,0.872 -0.373,2.081 0.257,1.211 0.507,2.074 1.257,2.074 0.618,0 0.686,-0.604 0.37,-2.074 m -0.152,3.11 c -1.736,0 -2.565,-1.084 -2.994,-3.11 -0.437,-2.063 -0.163,-3.149 1.671,-3.117 1.738,0 2.566,1.089 2.995,3.117 0.44,2.056 0.163,3.144 -1.672,3.11 m -5.185,-3.11 c -0.273,-1.292 -0.546,-1.949 -1.205,-1.949 -0.673,0 -0.663,0.657 -0.386,1.949 0.269,1.287 0.544,1.95 1.214,1.95 0.66,0 0.649,-0.663 0.377,-1.95 m 0.363,3.11 c -0.593,0 -1.062,-0.225 -1.503,-0.778 h -0.025 l 0.132,0.627 h -1.453 l -1.666,-7.857 h 1.515 l 0.531,2.49 h 0.022 c 0.216,-0.475 0.554,-0.709 1.12,-0.709 1.25,0 2.015,0.915 2.484,3.117 0.468,2.199 0.088,3.11 -1.157,3.11 M -57.335,4.127 -58.169,0.2 c -0.142,-0.663 -0.497,-0.981 -1.016,-0.981 -0.449,0 -0.598,0.228 -0.47,0.826 l 0.866,4.082 h -1.518 l -0.932,-4.39 c -0.247,-1.167 0.202,-1.686 1.148,-1.686 0.639,0 1.245,0.265 1.688,0.848 h 0.021 l -0.146,-0.696 h 1.454 l 1.257,5.924 z m -3.601,0.131 c -0.087,0.012 -0.183,0.02 -0.272,0.02 -0.627,0 -1.137,-0.373 -1.564,-0.939 h -0.024 l 0.167,0.788 h -1.45 l -1.259,-5.924 h 1.521 l 0.754,3.558 c 0.171,0.793 0.821,1.069 1.347,1.069 0.156,0 0.317,-0.015 0.473,-0.024 z m -7.185,-2.983 h 1.045 l -0.169,-0.799 c -0.183,-0.853 -0.873,-1.257 -1.248,-1.257 -0.912,0 -0.836,1.19 -0.434,3.081 0.413,1.958 0.891,2.75 1.665,2.75 0.636,0 0.744,-0.738 0.618,-1.318 h 1.52 c 0.34,1.593 -0.176,2.486 -1.913,2.486 -2.026,0 -2.931,-1.354 -3.489,-3.997 -0.579,-2.715 -0.504,-4.17 1.443,-4.17 0.74,0 1.336,0.265 1.84,0.882 h 0.019 l -0.152,-0.73 h 1.165 l 0.903,4.24 h -2.565 z" /></g><g
           id="g52"
           transform="translate(71.0723,56.9883)"><path
             inkscape:connector-curvature="0"
             id="path50"
             style="fill:#ffffff;fill-opacity:1;fill-rule:nonzero;stroke:none"
             d="M 0,0 H 4.925 L 4.416,-2.397 h 0.062 c 0.985,1.514 2.561,2.841 4.71,2.841 0.251,0 0.503,0 0.805,-0.063 L 8.972,-4.42 c -0.483,0.097 -0.888,0.128 -1.39,0.128 -2.054,0 -3.561,-0.854 -4.038,-3.096 l -2.06,-9.691 h -5.116 z" /></g><g
           id="g56"
           transform="translate(88.3213,54.0913)"><path
             inkscape:connector-curvature="0"
             id="path54"
             style="fill:#ffffff;fill-opacity:1;fill-rule:nonzero;stroke:none"
             d="m 0,0 c -1.513,0 -2.266,-1.48 -3.145,-5.607 -0.884,-4.157 -0.756,-5.638 0.752,-5.638 1.577,0 2.196,1.416 3.084,5.606 C 1.589,-1.417 1.575,0 0,0 m -8.26,-5.667 c 1.084,5.099 3.046,9.008 8.939,9.008 6.238,0 6.215,-3.813 5.128,-8.917 -1.084,-5.102 -3.046,-9.007 -8.939,-9.007 -6.237,0 -6.215,3.81 -5.128,8.916" /></g><g
           id="g60"
           transform="translate(15.2656,56.0283)"><path
             inkscape:connector-curvature="0"
             id="path58"
             style="fill:#ffffff;fill-opacity:1;fill-rule:nonzero;stroke:none"
             d="m 0,0 c -0.341,-1.607 -1.321,-2.646 -3.152,-2.646 h -1.453 l 1.078,5.071 H -2.04 C -0.118,2.425 0.245,1.164 0,0 m -1.544,-9.32 c -0.34,-1.569 -1.351,-2.925 -3.495,-2.925 h -1.612 l 1.297,6.076 h 1.704 c 1.641,0 2.572,-0.943 2.106,-3.151 m 2.383,4.976 0.015,0.063 c 2.232,0.406 4.06,2.456 4.618,5.071 0.796,3.747 -1.38,5.54 -5.227,5.54 h -8.24 l -4.788,-22.481 h 7.827 c 6.278,0 8.211,3.59 8.774,6.235 0.981,4.597 -1.36,5.325 -2.979,5.572" /></g><g
           id="g64"
           transform="translate(48.3779,57.4419)"><path
             inkscape:connector-curvature="0"
             id="path62"
             style="fill:#ffffff;fill-opacity:1;fill-rule:nonzero;stroke:none"
             d="m 0,0 c -1.897,0 -3.586,-0.944 -4.635,-2.464 h -0.064 l 0.431,2.023 h -4.931 l -3.634,-17.095 h 5.12 l 2.378,11.185 c 0.356,1.675 1.371,2.435 2.349,2.435 0.949,0 1.333,-0.729 1.071,-1.962 l -2.478,-11.658 h 5.121 l 2.72,12.797 C 4.145,-1.452 2.906,0 0,0" /></g><g
           id="g68"
           transform="translate(29.1934,45.3081)"><path
             inkscape:connector-curvature="0"
             id="path66"
             style="fill:#ffffff;fill-opacity:1;fill-rule:nonzero;stroke:none"
             d="m 0,0 c -0.361,-1.707 -1.475,-2.337 -2.549,-2.337 -0.941,0 -1.306,0.82 -1.015,2.179 0.198,0.943 0.566,1.48 1.186,1.893 C -1.82,2.112 -1.116,2.143 0.67,2.994 0.525,2.302 0.304,1.414 0,0 m 1.278,12.084 c -2.117,0 -3.631,-0.283 -5.002,-1.104 C -5.098,10.157 -6.093,8.739 -6.62,6.403 h 4.545 c 0.345,1.484 0.935,2.336 2.357,2.336 1.137,0 1.47,-0.664 1.249,-1.704 C 1.253,5.742 0.913,5.487 -0.717,5.08 -2.22,4.7 -4.18,4.385 -5.589,3.691 -7.002,2.994 -8.175,1.322 -8.598,-0.664 c -0.788,-3.693 0.567,-5.211 3.44,-5.211 1.704,0 3.5,0.886 4.515,2.402 h 0.066 c -0.11,-0.666 -0.194,-1.355 -0.131,-1.96 h 4.924 c -0.443,0.759 -0.093,2.398 0.183,3.693 l 1.864,8.775 c 0.765,3.595 -0.79,5.049 -4.985,5.049" /></g><g
           id="g72"
           transform="translate(62.1768,48.5)"><path
             inkscape:connector-curvature="0"
             id="path70"
             style="fill:#ffffff;fill-opacity:1;fill-rule:nonzero;stroke:none"
             d="m 0,0 c -0.645,-3.041 -1.172,-5.053 -3.001,-5.053 -1.705,0 -1.344,2.294 -0.711,5.271 0.695,3.255 1.388,5.055 2.877,5.055 C 1.057,5.273 0.574,2.7 0,0 m 1.744,8.936 c -2.237,0 -3.543,-1.331 -4.16,-2.48 H -2.479 L -2.044,8.5 h -4.838 l -4.725,-22.239 h 5.024 l 1.549,7.288 h 0.062 c 0.452,-1.801 1.873,-2.266 3.272,-2.266 4.126,0 5.666,3.756 6.774,8.968 1.335,6.264 0.05,8.685 -3.33,8.685" /></g><g
           id="g76"
           transform="translate(133.3496,64.0034)"><path
             inkscape:connector-curvature="0"
             id="path74"
             style="fill:#ffffff;fill-opacity:1;fill-rule:nonzero;stroke:none"
             d="m 0,0 c -8.448,-8.292 -15.989,-17.445 -22.77,-27.145 l 0.005,-0.004 c 12.079,10.494 25.216,19.763 39.35,27.277 V 0.146 C 11.056,0.358 5.522,0.314 0,0" /></g><g
           id="g80"
           transform="translate(140.5879,33.1387)"><path
             inkscape:connector-curvature="0"
             id="path78"
             style="fill:#ffffff;fill-opacity:1;fill-rule:nonzero;stroke:none"
             d="m 0,0 0.005,0.006 c -1.8,6.697 -3.58,13.4 -5.343,20.116 C -9.693,17.305 -13.955,14.354 -18.119,11.26 -12.022,7.602 -5.989,3.837 0,0 m -34.958,-1.752 h 0.008 c 7.326,12.051 15.823,23.378 25.692,33.472 -1.191,3.081 -3.64,9.238 -3.64,9.238 -3.344,-3.773 -6.299,-7.855 -9.024,-12.094 -5.26,-1.205 -10.449,-2.715 -15.477,-4.697 0,0 6.381,-4.33 9.512,-6.565 -2.654,-6.131 -6.824,-18.606 -7.071,-19.354" /></g></g></g></g></svg>