<svg width="375" height="812" viewBox="0 0 375 812" fill="none" xmlns="http://www.w3.org/2000/svg">
<g clip-path="url(#clip0)">
<rect width="375" height="812" fill="url(#paint0_linear)"/>
<path d="M224.578 -42.1568C224.578 -42.1568 281.461 79.1858 124.377 214.804C-32.7072 350.422 -43.7744 336.147 -87.5676 499.126C-131.361 662.106 -121.959 812 -121.959 812H66.0654C66.0654 812 -54.1277 524.109 31.5545 384.922C117.237 245.734 324.302 47.0657 324.302 47.0657V-42.7516L224.578 -42.1568Z" fill="#FF7B30"/>
<path d="M131.517 812C131.517 812 19.6543 732.295 47.025 471.765C68.3179 269.086 245.176 144.165 322.67 98.6797C346.257 84.8353 370.475 71.25 387.462 49.8145C402.662 30.6325 420.217 2.006 430.215 -36.2086C450.445 -113.535 289.791 -25.6209 289.791 -25.6209C289.791 -25.6209 302.882 77.9962 156.508 200.528C10.134 323.061 -35.0872 421.8 -67.218 557.418C-99.3489 693.037 -83.8785 812 -83.8785 812H131.517Z" fill="#FF802F"/>
</g>
<defs>
<linearGradient id="paint0_linear" x1="29" y1="1.85886e-06" x2="607.532" y2="564.896" gradientUnits="userSpaceOnUse">
<stop stop-color="#FE6925"/>
<stop offset="1" stop-color="#FF7E27"/>
</linearGradient>
<clipPath id="clip0">
<rect width="375" height="812" fill="white"/>
</clipPath>
</defs>
</svg>
