<svg width="244" height="189" viewBox="0 0 244 189" fill="none" xmlns="http://www.w3.org/2000/svg">
<path d="M10.8985 153.373V133.691H5.53049V140.36H2.27716V130.438H23.5865V140.36H20.3332V133.691H14.9652V153.373H18.3812V156.627H7.64516V153.373H10.8985Z" fill="white"/>
<path d="M31.8825 153.373V133.691H28.3038V130.438H39.0398C41.3172 130.438 43.1065 130.6 44.4078 130.925C45.7092 131.251 46.8478 132.064 47.6612 133.04C48.4745 134.179 48.9625 135.48 48.9625 137.269C48.9625 140.685 47.1732 142.963 43.5945 143.776L48.1492 153.373H51.4025V156.627H45.5465L39.5278 144.427H35.7865V153.373H39.2025V156.627H28.3038V153.373H31.8825ZM35.7865 141.173H38.8772C40.3412 141.173 41.4798 141.011 42.1305 140.848C42.7812 140.686 43.4318 140.197 43.9198 139.709C44.4078 139.059 44.5705 138.245 44.5705 137.269C44.5705 136.456 44.4078 135.643 43.9198 135.155C43.4318 134.504 42.9438 134.179 42.2932 134.016C41.6425 133.853 40.6665 133.853 39.2025 133.853H35.7865V141.173Z" fill="white"/>
<path d="M73.1998 147.518H63.7652L61.8132 153.536H65.0665V156.79H54.6558V153.536H57.9092L65.0665 133.528H61.9758V130.6H75.3145V133.528H72.0612L79.3812 153.536H82.3092V156.79H72.0612V153.536H75.3145L73.1998 147.518ZM72.2238 144.427L68.8078 133.528H68.3198L64.7412 144.427H72.2238Z" fill="white"/>
<path d="M88.1651 153.373V133.691H84.9118V130.438H105.245V138.408H101.992V133.853H92.2318V141.662H100.69V144.915H92.2318V153.536H95.6478V156.789H85.0745V153.536H88.1651V153.373Z" fill="white"/>
<path d="M121.674 147.518H112.24L110.288 153.536H113.541V156.79H103.13V153.536H106.384L113.541 133.528H110.45V130.6H123.789V133.528H120.536L127.856 153.536H130.784V156.79H120.373V153.536H123.626L121.674 147.518ZM120.698 144.427L117.282 133.528H116.957L113.216 144.427H120.698Z" fill="white"/>
<path d="M136.64 153.373V133.691H133.224V130.438H143.96V133.691H140.706V153.373H148.677V144.427H152.418V156.627H133.224V153.373H136.64Z" fill="white"/>
<path d="M174.704 144.102H184.301C184.301 144.427 184.301 144.752 184.301 145.078C184.301 148.819 183.163 151.747 180.723 153.862C178.283 156.139 175.192 157.115 171.125 157.115C166.408 157.115 162.829 155.814 160.552 153.048C158.275 150.283 157.136 147.192 157.136 143.451C157.136 139.547 158.275 136.456 160.715 133.854C163.155 131.251 166.245 129.95 170.312 129.95C174.053 129.95 176.981 131.088 179.584 133.366V130.438H183V139.059H179.584C178.933 137.595 177.795 136.294 176.168 135.155C174.541 134.016 172.752 133.528 170.637 133.528C167.709 133.528 165.432 134.504 163.805 136.456C162.179 138.408 161.365 140.686 161.365 143.451C161.365 146.542 162.341 149.144 164.131 150.934C166.083 152.723 168.36 153.699 170.963 153.699C173.077 153.699 174.867 153.048 176.493 151.91C178.12 150.771 179.096 149.144 179.421 147.355H174.704V144.102Z" fill="white"/>
<path d="M206.587 147.518H197.152L195.2 153.536H198.453V156.79H188.043V153.536H191.296L198.453 133.528H195.2V130.6H208.539V133.528H205.285L212.605 153.536H215.533V156.79H205.285V153.536H208.539L206.587 147.518ZM205.611 144.427L202.195 133.528H201.707L198.128 144.427H205.611Z" fill="white"/>
<path d="M222.365 153.373V133.691H218.786V130.438H229.523C231.8 130.438 233.589 130.6 234.89 130.925C236.192 131.251 237.33 132.064 238.144 133.04C238.957 134.179 239.445 135.48 239.445 137.269C239.445 140.685 237.656 142.963 234.077 143.776L238.632 153.373H241.885V156.627H236.192L230.173 144.427H226.432V153.373H229.848V156.627H218.949V153.373H222.365ZM226.269 141.173H229.36C230.824 141.173 231.962 141.011 232.613 140.848C233.264 140.686 233.915 140.197 234.403 139.709C234.891 139.059 235.053 138.245 235.053 137.269C235.053 136.456 234.891 135.643 234.403 135.155C233.915 134.504 233.427 134.179 232.776 134.016C232.125 133.853 231.149 133.853 229.685 133.853H226.269V141.173Z" fill="white"/>
<path d="M145.587 96.4613C147.701 93.3707 150.629 91.0933 150.629 79.7067C150.467 68.32 153.395 78.4053 153.395 80.52C153.557 82.6347 154.859 91.9067 149.003 98.7387C150.955 97.6 157.624 95.4853 159.413 86.376C161.04 77.2667 162.016 86.7013 161.691 88.328C161.528 89.9547 161.04 94.184 157.461 98.088C159.901 96.4613 167.709 92.8827 169.824 83.6107C171.939 74.3387 171.451 74.3387 171.451 74.3387C171.451 74.3387 172.264 69.784 173.565 77.7547C174.704 85.888 170.637 91.9067 169.173 93.5333C170.312 96.2987 174.704 108.011 177.469 115.005C179.421 114.029 186.741 106.709 189.019 126.555H184.627C184.627 126.555 184.627 119.723 184.627 119.072C184.627 118.421 183.163 116.307 181.536 117.608C179.909 118.747 178.771 119.723 176.819 119.56C174.867 119.397 174.216 117.771 173.077 114.843C171.939 111.915 168.36 103.619 166.571 96.7867C164.619 98.7387 163.155 100.528 158.275 101.829C159.739 102.968 168.685 109.475 168.848 126.392C165.432 126.392 165.432 126.392 165.432 126.392L165.269 121.512C165.269 121.512 163.968 111.101 155.184 103.131C153.395 103.781 150.467 105.408 149.491 104.92C148.515 104.269 151.605 101.992 151.605 101.992C151.605 101.992 142.821 104.92 142.171 111.589C141.845 114.68 140.544 111.101 140.381 109.475C140.219 107.685 140.056 104.757 142.171 101.341C141.032 102.48 136.152 104.92 135.013 113.216C135.989 113.379 144.285 113.053 143.96 126.555C141.195 126.555 140.707 126.555 140.707 126.555L140.219 120.373C140.219 120.373 139.893 117.771 136.152 117.608C132.411 117.445 130.784 117.771 130.947 112.565C131.109 107.685 135.664 99.064 145.587 96.4613Z" fill="white"/>
<path d="M185.928 67.8322C181.699 71.2482 181.048 71.5735 180.56 72.3869C180.56 72.3869 179.421 72.7122 178.445 82.3095C177.469 92.0695 172.915 91.9069 172.752 91.5815C172.589 91.2562 175.68 87.6775 175.029 81.0082C174.379 74.3389 175.68 69.9469 179.096 67.6695C182.512 65.3922 186.091 64.4162 186.579 58.3975C186.579 58.3975 178.12 59.0482 178.12 47.8242C178.12 36.6002 193.085 41.8055 193.736 46.6855C194.549 45.2215 200.08 39.6909 192.76 34.1602C191.459 33.0215 189.832 32.0455 188.693 29.9309C187.88 28.7922 187.229 27.1655 185.765 26.3522C184.301 25.3762 180.072 23.0989 173.728 21.4722C173.728 20.0082 176.493 11.7122 165.595 6.99486C163.155 5.85619 166.408 3.57886 171.125 6.01886C175.843 8.62153 178.12 11.2242 176.981 18.5442C177.632 18.7069 188.368 20.1709 189.181 28.4669C190.971 29.2802 201.381 32.3709 199.917 41.6429C197.315 50.2642 191.784 52.8669 191.621 52.7042C191.459 52.5415 190.32 52.5415 192.76 48.1495C192.76 48.1495 185.603 42.9442 182.675 46.6855C179.909 50.4269 183.813 54.9815 187.555 55.9575C187.717 55.3069 188.368 54.6562 188.693 54.6562C188.856 54.6562 189.019 55.1442 188.856 56.2829C188.856 57.9095 190.32 64.4162 185.928 67.8322Z" fill="white"/>
<path d="M131.109 69.9468C128.019 65.5548 127.205 61.0001 127.693 53.8428C128.019 48.1495 129.971 56.4455 129.971 56.4455C129.971 56.4455 131.109 63.2775 135.827 69.2961C140.707 75.3148 140.707 76.4535 140.707 76.4535C140.707 76.4535 141.357 70.5975 138.755 65.2295C136.64 59.2108 137.453 56.7708 140.544 62.9521C143.472 68.9708 146.237 68.6455 148.677 76.6161C148.677 76.6161 151.443 83.2855 146.725 91.4188C144.936 94.8348 144.285 93.3708 145.099 89.7921C145.912 86.2135 146.4 80.5201 144.611 76.6161C144.123 81.4961 143.96 86.5388 138.429 91.4188C136.64 93.0455 136.477 92.8828 136.477 92.0695C136.477 91.2561 141.032 85.2375 138.917 81.4961C136.965 77.7548 134.2 74.5015 131.109 69.9468Z" fill="white"/>
<path d="M63.7654 100.366C70.1094 100.203 72.2241 107.035 86.5388 104.432C89.6294 103.782 94.6721 100.528 96.9494 88.8164C96.2988 88.003 92.5574 84.7497 91.2561 83.7737C89.9548 82.9604 90.6054 80.8457 93.6961 82.3097C96.6241 83.611 99.0641 84.7497 105.408 92.883C111.752 101.016 122.488 101.179 122.488 101.179C122.488 101.179 129.157 83.7737 132.899 86.7017C132.899 86.7017 133.224 87.027 132.248 88.8164C131.272 90.6057 126.555 98.2511 125.416 104.92C124.277 111.59 123.464 115.819 124.115 126.718C121.512 126.718 121.187 126.718 121.187 126.718C121.187 126.718 118.909 114.192 121.512 104.758C119.235 105.083 116.307 103.944 114.517 103.131C113.867 104.27 110.939 110.776 105.571 111.59C100.203 112.566 99.5521 111.915 99.5521 111.915C99.5521 111.915 98.9014 114.68 101.179 116.632C102.317 116.307 111.427 113.216 112.077 121.512C112.24 126.555 112.24 126.555 112.24 126.555H108.824C108.824 126.555 108.661 121.512 108.173 120.536C107.685 119.56 105.245 118.91 101.504 120.862C97.7628 122.651 96.1361 115.819 95.6481 114.192C95.1601 112.566 94.0214 107.36 101.016 107.36C108.173 107.36 109.8 106.547 111.101 101.992C108.661 100.854 103.131 97.7631 98.5761 90.7684C97.9254 93.6964 97.9254 101.504 90.9308 106.547C92.5574 112.728 95.9734 126.392 95.9734 126.392L92.2321 126.555C92.2321 126.555 88.6534 115.168 87.3521 108.174C84.0988 109.312 76.1281 110.451 66.2054 105.083C64.2534 103.944 61.3254 104.595 60.0241 111.264C59.2108 114.843 59.3734 115.494 59.3734 115.494C59.3734 115.494 64.2534 115.656 66.0428 117.771C67.8321 119.886 68.3201 123.139 68.1574 126.718C65.5548 126.718 65.5548 126.718 65.5548 126.718C65.5548 126.718 66.5308 122 63.4401 119.398C60.0241 119.235 55.3068 120.374 56.1201 115.168C56.6081 110.126 57.4214 100.691 63.7654 100.366Z" fill="white"/>
<path d="M43.92 126.717C43.92 126.717 44.0826 93.696 56.608 91.256C60.512 90.28 65.2293 91.256 65.2293 91.256C65.2293 91.256 68.808 77.2667 76.4533 73.2C73.5253 68.808 73.0373 66.2053 72.712 62.3013C72.3867 58.3973 74.5013 58.3973 75.4773 62.3013C76.4533 66.2053 81.3333 73.2 84.0987 76.616C84.7493 77.9173 83.448 78.8933 81.008 77.104C78.568 75.3147 78.2426 74.9893 78.2426 74.9893C78.2426 74.9893 74.3387 79.2187 71.8987 85.888C69.4587 92.5573 68.9706 95.9733 63.44 95.4853C57.9093 94.9973 55.3066 94.5093 52.0533 102.643C48.8 110.939 47.4986 120.048 47.6613 126.555C44.5706 126.717 43.92 126.717 43.92 126.717Z" fill="white"/>
<path d="M153.557 6.83229C153.232 5.53096 150.955 6.34429 150.955 6.34429C150.955 6.34429 145.587 8.45896 143.635 9.59762C125.416 20.9843 122.976 31.2323 118.584 46.035C114.029 60.8376 89.4665 67.019 81.3332 60.0243C73.1999 53.0296 76.4532 39.0403 84.4239 36.4376C92.3945 33.9976 95.8105 41.4803 95.8105 41.4803C95.8105 41.4803 93.2079 47.3363 96.1359 51.0776C101.179 57.5843 107.035 50.7523 107.523 49.939C108.173 49.1256 109.637 46.1976 105.896 48.475C102.155 50.7523 100.04 43.4323 99.0639 41.643C98.0879 39.8536 98.0879 32.859 88.6532 32.0456C79.2185 31.2323 73.0372 39.8536 72.7119 44.8963C72.3865 49.7763 71.2479 66.2056 89.7919 66.8563C108.336 67.507 118.259 53.1923 120.536 49.939C122 74.6643 132.411 78.8936 133.224 79.3816C134.2 79.8696 134.525 79.707 133.549 78.5683C128.181 72.387 121.512 59.699 125.091 40.0163C128.344 20.4963 146.888 12.0376 148.515 11.0616C149.979 9.92296 153.883 8.13362 153.557 6.83229ZM97.5999 45.2216L101.829 50.1016C101.829 50.1016 99.7145 50.5896 98.4132 48.963C96.9492 47.1736 97.5999 45.2216 97.5999 45.2216Z" fill="white"/>
</svg>
