<svg width="145" height="40" viewBox="0 0 145 40" fill="none" xmlns="http://www.w3.org/2000/svg">
<path d="M105.792 32.1494V29.7432C104.304 31.2568 102.166 32.6631 99.1123 32.6631C93.9727 32.6631 89.7812 28.5 89.7812 23.417C89.7812 18.3306 93.9727 14.167 99.1123 14.167C102.274 14.167 103.871 15.2744 105.792 16.8979V14.6802H108.47V32.1494H105.792ZM92.458 23.417C92.458 26.7422 95.7588 30.0137 99.1123 30.0137C102.464 30.0137 105.792 26.7422 105.792 23.417C105.792 20.0884 102.464 16.8174 99.1123 16.8174C95.7588 16.8174 92.458 20.0884 92.458 23.417Z" fill="#9D9CA0"/>
<path d="M138.568 32.1768L132.049 25.4697L131.266 26.3643V32.1768H128.561V6.86572H131.266V22.4424L138.27 14.8706H141.894L133.86 23.5254L142.271 32.1768H138.568V32.1768Z" fill="#9D9CA0"/>
<path d="M118.476 14.167C114.339 14.1709 109.13 15.959 109.13 23.417V32.1768H111.809V23.417C111.809 22.1982 112.16 21.1172 112.675 20.1436C113.512 18.4961 115.157 16.8203 118.476 16.8174C121.791 16.8203 123.438 18.4961 124.275 20.1436C124.788 21.1172 125.14 22.1982 125.14 23.417V32.1768H127.817V23.417C127.817 15.959 122.611 14.1709 118.476 14.167Z" fill="#9D9CA0"/>
<path d="M15.3218 11.9136C19.5337 11.9136 23.0444 14.9688 23.7559 18.9824H27.833C28.5444 14.9688 32.0552 11.9136 36.2671 11.9136C40.4814 11.9136 43.9912 14.9688 44.7036 18.9824H48.7793C49.4897 14.9688 52.999 11.9136 57.2139 11.9136C61.4282 11.9136 64.9385 14.9688 65.6494 18.9824H69.498C68.7544 12.8638 63.5308 8.104 57.2139 8.104C52.8066 8.104 48.9341 10.4204 46.7402 13.8975C44.5469 10.4204 40.6729 8.104 36.2671 8.104C32.9434 8.104 29.9253 9.42383 27.6987 11.562V4.7124H23.8911V11.562C21.6626 9.42383 18.6455 8.104 15.3218 8.104C11.9971 8.104 8.97852 9.42383 6.75439 11.562V4.7124H2.94385V18.9824H6.88721C7.59863 14.9688 11.1084 11.9136 15.3218 11.9136Z" fill="#1C628F"/>
<path d="M57.2139 29.0488C52.999 29.0488 49.4897 25.9922 48.7793 21.9805H44.7036C43.9912 25.9922 40.4814 29.0488 36.2671 29.0488C32.0552 29.0488 28.5444 25.9922 27.833 21.9805H23.7559C23.0444 25.9922 19.5337 29.0488 15.3218 29.0488C11.1084 29.0488 7.59863 25.9922 6.88721 21.9805H3.03857C3.78125 28.1006 9.00342 32.8584 15.3218 32.8584C19.728 32.8584 23.6016 30.543 25.7944 27.0674C27.9883 30.543 31.8613 32.8584 36.2671 32.8584C39.5908 32.8584 42.6104 31.5381 44.8369 29.4004V36.249H48.6455V29.4004C50.8711 31.5381 53.8911 32.8584 57.2139 32.8584C63.5308 32.8584 68.7544 28.1006 69.498 21.9805H65.6494C64.9385 25.9922 61.4282 29.0488 57.2139 29.0488Z" fill="#9D9CA0"/>
<path d="M89.7148 23.7939C89.4443 22.7676 88.9277 21.4951 87.1172 20.0884C87.793 19.3862 87.9834 19.0356 88.1738 18.6294C88.5244 17.897 88.876 16.8428 88.876 15.3838C88.876 12.0576 87.2266 10.4624 85.6016 9.64941C84.6045 9.16357 83.4941 8.81201 82.2783 8.81201H72.5356V18.9824H75.4844V17.6748V11.7578H82.3076C82.9531 11.8413 83.5479 12.0024 84.0625 12.2197C84.9561 12.7329 85.9004 13.5718 85.9004 15.3838C85.9004 17.1953 85.0088 18.1143 84.0625 18.5732C83.5479 18.8154 82.9531 19.0059 82.2783 19.0059H80.2227V21.9805H83.332C83.9805 21.9805 84.5781 22.1709 85.0898 22.4424C85.9561 22.9033 86.9287 23.7676 86.9287 25.6064C86.9287 27.3926 86.0381 28.3369 85.0898 28.7959C84.5781 29.041 83.9805 29.2305 83.3057 29.2305H75.4844V24.0654V21.9805V21.9795H72.5356V32.1768H83.3057C84.5225 32.1768 85.6299 31.8535 86.6309 31.3682C88.2559 30.5566 89.8486 28.9316 89.875 25.5801C89.875 24.957 89.875 24.3896 89.7148 23.7939Z" fill="#9D9CA0"/>
</svg>
