<?xml version="1.0" encoding="UTF-8" standalone="no"?>
<!-- Created with Inkscape (http://www.inkscape.org/) -->

<svg
   xmlns:dc="http://purl.org/dc/elements/1.1/"
   xmlns:cc="http://creativecommons.org/ns#"
   xmlns:rdf="http://www.w3.org/1999/02/22-rdf-syntax-ns#"
   xmlns:svg="http://www.w3.org/2000/svg"
   xmlns="http://www.w3.org/2000/svg"
   xmlns:sodipodi="http://sodipodi.sourceforge.net/DTD/sodipodi-0.dtd"
   xmlns:inkscape="http://www.inkscape.org/namespaces/inkscape"
   width="57.338425mm"
   height="33.029808mm"
   viewBox="0 0 57.338425 33.029808"
   version="1.1"
   id="svg8"
   inkscape:version="0.92.2 5c3e80d, 2017-08-06"
   sodipodi:docname="hands.svg">
  <defs
     id="defs2" />
  <sodipodi:namedview
     id="base"
     pagecolor="#ffffff"
     bordercolor="#666666"
     borderopacity="1.0"
     inkscape:pageopacity="0.0"
     inkscape:pageshadow="2"
     inkscape:zoom="3.1465795"
     inkscape:cx="90.08071"
     inkscape:cy="74.112071"
     inkscape:document-units="mm"
     inkscape:current-layer="layer1"
     showgrid="false"
     fit-margin-top="0"
     fit-margin-left="0"
     fit-margin-right="0"
     fit-margin-bottom="0"
     inkscape:window-width="1440"
     inkscape:window-height="798"
     inkscape:window-x="0"
     inkscape:window-y="1"
     inkscape:window-maximized="1" />
  <metadata
     id="metadata5">
    <rdf:RDF>
      <cc:Work
         rdf:about="">
        <dc:format>image/svg+xml</dc:format>
        <dc:type
           rdf:resource="http://purl.org/dc/dcmitype/StillImage" />
        <dc:title></dc:title>
      </cc:Work>
    </rdf:RDF>
  </metadata>
  <g
     inkscape:label="Capa 1"
     inkscape:groupmode="layer"
     id="layer1"
     transform="translate(-45.012432,-104.65931)">
    <path
       style="fill:none;stroke:#000000;stroke-width:0.5291667;stroke-linecap:round;stroke-linejoin:miter;stroke-miterlimit:4;stroke-dasharray:none;stroke-opacity:1"
       d="m 54.018042,137.4208 c 0,0 0.269015,-1.9369 -0.107606,-2.47493 -0.376619,-0.53803 -2.582535,-4.41183 -3.658592,-6.61775 -1.076058,-2.20591 -0.914649,-3.06676 -1.076058,-3.44338 -0.161407,-0.37662 -2.314903,-5.26991 -2.476312,-5.70034 -0.161409,-0.43042 -0.775552,-2.18705 -1.313579,-3.1555 0,0 -0.554385,-1.76661 0.839915,-2.09762 1.55279,-0.36864 2.065437,1.45198 2.065437,1.45198 0,0 2.227537,4.44471 2.496551,4.60612 0,0 1.347145,2.25903 1.400948,2.04381 0.0538,-0.21521 -1.357798,-6.40864 -1.593155,-7.2997 -0.235356,-0.89106 -1.450603,-5.59689 -1.450603,-5.59689 0,0 -0.322817,-1.61408 1.076057,-1.8293 1.398873,-0.21521 1.757328,1.00755 1.757328,1.00755 0,0 1.558239,4.38646 1.665123,4.73119 0.232685,0.75048 2.257644,6.83504 2.257644,6.83504"
       id="path925"
       inkscape:connector-curvature="0"
       sodipodi:nodetypes="ccccccsccczcccsc" />
    <path
       style="fill:none;stroke:#000000;stroke-width:0.5291667;stroke-linecap:round;stroke-linejoin:miter;stroke-miterlimit:4;stroke-dasharray:none;stroke-opacity:1"
       d="m 55.90114,119.88108 c 0,0 -0.826589,-6.20549 -1.076056,-7.80141 -0.24097,-1.54156 -0.696658,-5.13601 -0.753239,-5.7569 0,0 0.322815,-1.39888 1.34507,-1.39888 1.022255,0 1.506479,1.34507 1.506479,1.34507 l 1.129861,4.78846 c 0,0 1.129858,3.60479 1.129858,3.76619 0,0.16141 0.591831,3.55099 0.591831,3.55099 0,0 -1.076055,-9.36169 -1.076055,-9.89972 0,-0.53803 0.0538,-2.04451 1.129858,-2.20592 1.076058,-0.16141 1.775494,1.50648 1.775494,1.50648 l 0.807043,4.19662 c 0,0 0.706043,2.90724 0.753238,3.49718 0.107606,1.34508 1.183663,5.43409 1.345072,5.97212 0.161409,0.53803 2.474931,4.19662 2.474931,4.19662"
       id="path927"
       inkscape:connector-curvature="0"
       sodipodi:nodetypes="csssccscssccssc" />
    <path
       style="fill:none;stroke:#000000;stroke-width:0.5291667;stroke-linecap:round;stroke-linejoin:miter;stroke-miterlimit:4;stroke-dasharray:none;stroke-opacity:1"
       d="m 65.047621,122.35601 c 0,0 1.775495,-3.98141 2.797749,-4.94986 1.022252,-0.96845 1.719438,-1.39384 2.528732,-0.96845 0.423869,0.2228 0.59183,0.91465 0.430424,1.72169 -0.161409,0.80704 -1.129861,1.66789 -1.129861,2.09831 0,0.43042 -0.376618,2.58254 -0.376618,3.17437 0,0.59183 -0.591834,3.60478 -0.699437,4.30422 -0.107606,0.69944 -1.345073,5.16507 -2.690143,6.94057 -1.34507,1.77549 -0.484225,2.31352 -0.484225,2.31352"
       id="path929"
       inkscape:connector-curvature="0"
       sodipodi:nodetypes="csscssccc" />
    <path
       sodipodi:nodetypes="ccccccsccczcccsc"
       inkscape:connector-curvature="0"
       id="path931"
       d="m 93.345232,137.4208 c 0,0 -0.269015,-1.9369 0.107606,-2.47493 0.376619,-0.53803 2.582535,-4.41183 3.658592,-6.61775 1.076058,-2.20591 0.914649,-3.06676 1.076058,-3.44338 0.161407,-0.37662 2.314902,-5.26991 2.476312,-5.70034 0.16141,-0.43042 0.77556,-2.18705 1.31359,-3.1555 0,0 0.55439,-1.76661 -0.83992,-2.09762 -1.552796,-0.36864 -2.065443,1.45198 -2.065443,1.45198 0,0 -2.227537,4.44471 -2.496551,4.60612 0,0 -1.347145,2.25903 -1.400948,2.04381 -0.0538,-0.21521 1.357798,-6.40864 1.593155,-7.2997 0.235356,-0.89106 1.450603,-5.59689 1.450603,-5.59689 0,0 0.322817,-1.61408 -1.076057,-1.8293 -1.398873,-0.21521 -1.757328,1.00755 -1.757328,1.00755 0,0 -1.558239,4.38646 -1.665123,4.73119 -0.232685,0.75048 -2.257644,6.83504 -2.257644,6.83504"
       style="fill:none;stroke:#000000;stroke-width:0.5291667;stroke-linecap:round;stroke-linejoin:miter;stroke-miterlimit:4;stroke-dasharray:none;stroke-opacity:1" />
    <path
       sodipodi:nodetypes="csssccscssccssc"
       inkscape:connector-curvature="0"
       id="path933"
       d="m 91.462134,119.88108 c 0,0 0.826589,-6.20549 1.076056,-7.80141 0.24097,-1.54156 0.696658,-5.13601 0.753239,-5.7569 0,0 -0.322815,-1.39888 -1.34507,-1.39888 -1.022255,0 -1.506479,1.34507 -1.506479,1.34507 l -1.129861,4.78846 c 0,0 -1.129858,3.60479 -1.129858,3.76619 0,0.16141 -0.591831,3.55099 -0.591831,3.55099 0,0 1.076055,-9.36169 1.076055,-9.89972 0,-0.53803 -0.0538,-2.04451 -1.129858,-2.20592 -1.076058,-0.16141 -1.775494,1.50648 -1.775494,1.50648 l -0.807043,4.19662 c 0,0 -0.706043,2.90724 -0.753238,3.49718 -0.107606,1.34508 -1.183663,5.43409 -1.345072,5.97212 -0.161409,0.53803 -2.474931,4.19662 -2.474931,4.19662"
       style="fill:none;stroke:#000000;stroke-width:0.5291667;stroke-linecap:round;stroke-linejoin:miter;stroke-miterlimit:4;stroke-dasharray:none;stroke-opacity:1" />
    <path
       sodipodi:nodetypes="csscssccc"
       inkscape:connector-curvature="0"
       id="path935"
       d="m 82.315653,122.35601 c 0,0 -1.775495,-3.98141 -2.797749,-4.94986 -1.022252,-0.96845 -1.719438,-1.39384 -2.528732,-0.96845 -0.423869,0.2228 -0.59183,0.91465 -0.430424,1.72169 0.161409,0.80704 1.129861,1.66789 1.129861,2.09831 0,0.43042 0.376618,2.58254 0.376618,3.17437 0,0.59183 0.591834,3.60478 0.699437,4.30422 0.107606,0.69944 1.345073,5.16507 2.690143,6.94057 1.34507,1.77549 0.484225,2.31352 0.484225,2.31352"
       style="fill:none;stroke:#000000;stroke-width:0.5291667;stroke-linecap:round;stroke-linejoin:miter;stroke-miterlimit:4;stroke-dasharray:none;stroke-opacity:1" />
  </g>
</svg>
