<?xml version="1.0" encoding="UTF-8" standalone="no"?>
<!-- Created with Inkscape (http://www.inkscape.org/) -->

<svg
   xmlns:dc="http://purl.org/dc/elements/1.1/"
   xmlns:cc="http://creativecommons.org/ns#"
   xmlns:rdf="http://www.w3.org/1999/02/22-rdf-syntax-ns#"
   xmlns:svg="http://www.w3.org/2000/svg"
   xmlns="http://www.w3.org/2000/svg"
   xmlns:xlink="http://www.w3.org/1999/xlink"
   xmlns:sodipodi="http://sodipodi.sourceforge.net/DTD/sodipodi-0.dtd"
   xmlns:inkscape="http://www.inkscape.org/namespaces/inkscape"
   width="338.82504mm"
   height="62.717373mm"
   viewBox="0 0 338.82503 62.717374"
   version="1.1"
   id="svg30751"
   inkscape:version="0.92.2 (5c3e80d, 2017-08-06)"
   sodipodi:docname="glifos.svg">
  <defs
     id="defs30745">
    <radialGradient
       inkscape:collect="always"
       xlink:href="#linearGradient31348"
       id="radialGradient31350"
       cx="566.60669"
       cy="-91.805603"
       fx="566.60669"
       fy="-91.805603"
       r="38.66375"
       gradientTransform="matrix(0.35277776,0,0,0.04587996,-580.04754,142.43984)"
       gradientUnits="userSpaceOnUse" />
    <linearGradient
       inkscape:collect="always"
       id="linearGradient31348">
      <stop
         style="stop-color:#87b8b2;stop-opacity:1"
         offset="0"
         id="stop31344" />
      <stop
         style="stop-color:#95dcd8;stop-opacity:1"
         offset="1"
         id="stop31346" />
    </linearGradient>
    <radialGradient
       inkscape:collect="always"
       xlink:href="#linearGradient31348"
       id="radialGradient31376"
       cx="910.79712"
       cy="-92.069733"
       fx="910.79712"
       fy="-92.069733"
       r="40.859356"
       gradientTransform="matrix(0.35277776,0,0,0.03804412,-580.04754,141.63733)"
       gradientUnits="userSpaceOnUse" />
    <radialGradient
       inkscape:collect="always"
       xlink:href="#linearGradient31348"
       id="radialGradient31358"
       cx="707.04779"
       cy="-89.340134"
       fx="707.04779"
       fy="-89.340134"
       r="48.075592"
       gradientTransform="matrix(0.35277776,0,0,0.03424314,-580.04754,142.15685)"
       gradientUnits="userSpaceOnUse" />
    <radialGradient
       inkscape:collect="always"
       xlink:href="#linearGradient31348"
       id="radialGradient31366"
       cx="768.77124"
       cy="-89.868439"
       fx="768.77124"
       fy="-89.868439"
       r="37.4417"
       gradientTransform="matrix(0.35277776,0,0,0.04084096,-580.04754,142.58151)"
       gradientUnits="userSpaceOnUse" />
    <radialGradient
       inkscape:collect="always"
       xlink:href="#linearGradient31348"
       id="radialGradient31374"
       cx="978.54108"
       cy="-92.35405"
       fx="978.54108"
       fy="-92.35405"
       r="30.207855"
       gradientTransform="matrix(0.35277776,0,0,0.04572903,-580.04754,142.25758)"
       gradientUnits="userSpaceOnUse" />
    <radialGradient
       inkscape:collect="always"
       xlink:href="#linearGradient31348"
       id="radialGradient31384"
       cx="1158.484"
       cy="-92.509987"
       fx="1158.484"
       fy="-92.509987"
       r="38.324886"
       gradientTransform="matrix(0.35277776,0,0,0.0512714,-580.04754,142.72243)"
       gradientUnits="userSpaceOnUse" />
    <radialGradient
       inkscape:collect="always"
       xlink:href="#linearGradient31348"
       id="radialGradient31386"
       cx="1096.6724"
       cy="-92.157806"
       fx="1096.6724"
       fy="-92.157806"
       r="36.211666"
       gradientTransform="matrix(0.35277776,0,0,0.04911667,-580.04754,142.63004)"
       gradientUnits="userSpaceOnUse" />
    <radialGradient
       inkscape:collect="always"
       xlink:href="#linearGradient31348"
       id="radialGradient31402"
       cx="1282.1953"
       cy="-92.598007"
       fx="1282.1953"
       fy="-92.598007"
       r="50.709782"
       gradientTransform="matrix(0.35277776,0,0,0.03547606,-580.04754,141.23327)"
       gradientUnits="userSpaceOnUse" />
    <radialGradient
       inkscape:collect="always"
       xlink:href="#linearGradient31348"
       id="radialGradient31410"
       cx="1415.064"
       cy="-91.805603"
       fx="1415.064"
       fy="-91.805603"
       r="36.916069"
       gradientTransform="matrix(0.35277776,0,0,0.04817946,-580.04754,142.65095)"
       gradientUnits="userSpaceOnUse" />
  </defs>
  <sodipodi:namedview
     id="base"
     pagecolor="#ffffff"
     bordercolor="#666666"
     borderopacity="1.0"
     inkscape:pageopacity="0.0"
     inkscape:pageshadow="2"
     inkscape:zoom="0.35"
     inkscape:cx="1111.4286"
     inkscape:cy="-30.574528"
     inkscape:document-units="mm"
     inkscape:current-layer="layer1"
     showgrid="false"
     fit-margin-top="0"
     fit-margin-left="0"
     fit-margin-right="0"
     fit-margin-bottom="0"
     inkscape:window-width="1366"
     inkscape:window-height="705"
     inkscape:window-x="-8"
     inkscape:window-y="-8"
     inkscape:window-maximized="1" />
  <metadata
     id="metadata30748">
    <rdf:RDF>
      <cc:Work
         rdf:about="">
        <dc:format>image/svg+xml</dc:format>
        <dc:type
           rdf:resource="http://purl.org/dc/dcmitype/StillImage" />
        <dc:title></dc:title>
      </cc:Work>
    </rdf:RDF>
  </metadata>
  <g
     inkscape:label="Layer 1"
     inkscape:groupmode="layer"
     id="layer1"
     transform="translate(399.57849,-78.026452)">
    <ellipse
       style="fill:url(#radialGradient31350);fill-opacity:1;stroke:none;stroke-width:0.25790888;stroke-miterlimit:4;stroke-dasharray:none;stroke-opacity:1"
       id="path31318"
       cx="-380.16132"
       cy="138.2278"
       rx="13.639711"
       ry="1.7738914" />
    <ellipse
       style="fill:url(#radialGradient31358);fill-opacity:1;stroke:none;stroke-width:0.26467535;stroke-miterlimit:4;stroke-dasharray:none;stroke-opacity:1"
       id="path31320"
       cx="-330.61682"
       cy="139.09756"
       rx="16.959999"
       ry="1.646259" />
    <ellipse
       style="fill:url(#radialGradient31366);fill-opacity:1;stroke:none;stroke-width:0.25038394;stroke-miterlimit:4;stroke-dasharray:none;stroke-opacity:1"
       id="path31322"
       cx="-308.84216"
       cy="138.91119"
       rx="13.208599"
       ry="1.5291551" />
    <ellipse
       style="fill:url(#radialGradient31376);fill-opacity:1;stroke:none;stroke-width:0.2619026;stroke-miterlimit:4;stroke-dasharray:none;stroke-opacity:1"
       id="path31324"
       cx="-258.73856"
       cy="138.13463"
       rx="14.414272"
       ry="1.5544581" />
    <ellipse
       style="fill:url(#radialGradient31374);fill-opacity:1;stroke:none;stroke-width:0.28324065;stroke-miterlimit:4;stroke-dasharray:none;stroke-opacity:1"
       id="path31326"
       cx="-234.84001"
       cy="138.03432"
       rx="10.656659"
       ry="1.3813758" />
    <ellipse
       style="fill:url(#radialGradient31386);fill-opacity:1;stroke:none;stroke-width:0.26458332;stroke-miterlimit:4;stroke-dasharray:none;stroke-opacity:1"
       id="path31328"
       cx="-193.16592"
       cy="138.10356"
       rx="12.642379"
       ry="1.6463047" />
    <ellipse
       style="fill:url(#radialGradient31384);fill-opacity:1;stroke:none;stroke-width:0.24794437;stroke-miterlimit:4;stroke-dasharray:none;stroke-opacity:1"
       id="path31330"
       cx="-171.36015"
       cy="137.97931"
       rx="13.396195"
       ry="1.8409983" />
    <ellipse
       style="fill:url(#radialGradient31402);fill-opacity:1;stroke:none;stroke-width:0.26985005;stroke-miterlimit:4;stroke-dasharray:none;stroke-opacity:1"
       id="path31332"
       cx="-127.71754"
       cy="137.94826"
       rx="17.889282"
       ry="1.7989832" />
    <ellipse
       style="fill:url(#radialGradient31410);fill-opacity:1;stroke:none;stroke-width:0.26458332;stroke-miterlimit:4;stroke-dasharray:none;stroke-opacity:1"
       id="path31334"
       cx="-80.844437"
       cy="138.2278"
       rx="12.890877"
       ry="1.6463047" />
    <path
       d="m -238.64961,98.448972 c 0.69779,0.19543 0.84243,0.24518 0.87806,0.89781 0.0317,0.57962 -0.0131,0.46391 -0.60466,0.54999 -2.79859,0.520338 -6.0452,2.112778 -8.42398,3.631138 -0.79375,0.50729 -5.73476,3.81424 -6.53239,4.31766 -0.52387,0.3302 -0.90487,-0.24519 -1.15147,-0.62724 -0.25752,-0.39723 -0.27481,-0.30128 0.24695,-0.67628 0.60113,-0.43109 2.66135,-1.58504 3.302,-1.94664 1.34338,-0.91263 3.24908,-2.16676 5.37563,-3.31258 3.47133,-1.870428 6.03108,-2.579158 6.90986,-2.833858"
       style="fill:#ffffff;fill-opacity:1;fill-rule:nonzero;stroke:none;stroke-width:0.35277775"
       id="path4736"
       inkscape:connector-curvature="0" />
    <path
       d="m -237.88103,97.630102 c 0.14464,0.11359 0.38982,0.34713 0.50836,0.54433 0.1277,0.21273 0.16545,0.28787 0.0808,0.4819 -0.0748,0.17039 -0.45967,0.17886 -0.67874,0.15628 -1.02835,-0.10901 -5.59471,-0.85337 -6.62341,-0.96203 -2.01542,-0.2741 -5.40138,-0.28716 -7.88987,-0.28045 -0.34749,-0.031 -0.51223,-0.2406 -0.67628,-0.61207 -0.3369,-0.76094 0.43286,-0.75495 1.27353,-0.75848 2.79118,-0.0134 8.09872,0.27482 10.82852,0.83926 0.46496,0.0974 2.62713,0.50765 3.17711,0.59126"
       style="fill:#ffffff;fill-opacity:1;fill-rule:nonzero;stroke:none;stroke-width:0.35277775"
       id="path4740"
       inkscape:connector-curvature="0" />
    <path
       d="m -224.13095,97.183272 c -0.15064,0.45014 -1.04175,0.69109 -1.38148,0.32773 -0.60748,-0.65158 -1.21002,-2.08739 -0.66886,-3.03847 0.22754,-0.3997 0.44697,-0.82868 0.95849,-0.87913 0.3048,-0.0289 0.46673,0.0279 0.56974,0.0702 0.46461,0.1912 0.62618,0.50024 0.71826,1.02164 0.1785,1.01635 0.13123,1.51836 -0.19615,2.49802 m 1.22661,-2.98662 c -0.27093,-0.93839 -0.95779,-1.5755 -1.7593,-1.82033 -0.48225,-0.14817 -1.03047,-0.0173 -1.51836,0.27658 0.0279,-0.29457 0.043,-0.60078 -0.001,-0.86713 -0.0631,-0.37218 -0.18203,-0.72425 -0.38382,-1.00224 -0.23989,-0.33055 -0.63394,-0.55316 -1.01882,-0.48683 -0.10795,0.0187 -0.21872,0.0649 -0.28011,0.16192 -0.0497,0.0794 -0.0586,0.18133 -0.0593,0.27728 -2.6e-4,0.43815 0.14182,0.86008 0.26811,1.27741 0.20391,0.67169 0.32879,1.25095 0.24518,1.95192 -0.006,0.061 -0.0145,0.12383 -0.0198,0.18627 -0.0469,0.13335 -0.0833,0.26917 -0.10125,0.4071 -0.242,1.8288 0.36548,2.8501 1.59315,4.09117 0.16157,0.16439 0.25188,0.28116 0.2092,0.53975 -0.25012,1.533168 -0.60819,2.859608 -1.5293,4.101038 -0.53445,0.72037 -1.04175,0.95955 -1.84009,0.35877 -1.29998,-0.97931 -1.97767,-2.15229 -2.85079,-3.54506 -0.18733,-0.297388 -0.40605,-0.605368 -0.67981,-0.795158 -0.1404,-0.0984 -0.48859,0.14534 -0.66251,0.26635 -0.0794,0.0557 -0.0483,0.40781 0.0226,0.583838 0.57397,1.42346 1.34655,2.31952 2.29834,3.45017 0.41699,0.49601 0.88583,0.96802 1.40089,1.33738 0.84772,0.60749 1.71767,0.59832 2.60279,-0.0377 0.8315,-0.59654 1.35255,-1.45062 1.69933,-2.38372 0.38277,-1.02975 0.56797,-2.14488 0.85196,-3.219088 0.0462,-0.17745 0.1203,-0.4378 0.24306,-0.48754 0.97861,-0.39688 1.43122,-1.16875 1.45768,-2.13537 0.22578,-1.0989 0.0801,-1.55998 -0.18768,-2.48673"
       style="fill:#ffffff;fill-opacity:1;fill-rule:nonzero;stroke:none;stroke-width:0.35277775"
       id="path4744"
       inkscape:connector-curvature="0" />
    <path
       d="m -233.3466,133.19381 c 0.0377,1.98543 0.0349,2.00166 1.42593,2.25778 1.04175,0.22507 1.81116,0.5775 2.68534,1.18851 0.14429,0.0998 0.55633,0.47378 0.68263,0.67768 0.10019,0.16193 0.1277,0.35666 0.06,0.50447 -0.0924,0.15417 -0.4512,0.21414 -0.69568,0.2152 -0.83926,0.004 -1.67781,0.0215 -2.51636,0.004 -0.55175,-0.012 -1.10455,-0.001 -1.657,-0.01 -1.26083,-0.0504 -1.03646,-0.65193 -1.03681,-1.1758 -0.001,-0.98955 0.0473,-1.98226 -0.0134,-2.96722 -0.097,-1.6009 -0.0399,-2.90018 -0.12312,-4.50956 -0.0219,-0.56832 -0.0152,-1.01106 -0.0173,-1.52012 0,-0.11253 0.17886,-0.3242 0.26,-0.3175 0.15099,0.0127 0.38629,0.1263 0.42051,0.24483 0.26352,0.91581 0.26035,1.40617 0.33655,2.36714 0.10795,1.16311 0.15345,2.43911 0.18873,3.04059"
       style="fill:#ffffff;fill-opacity:1;fill-rule:nonzero;stroke:none;stroke-width:0.35277775"
       id="path4748"
       inkscape:connector-curvature="0" />
    <path
       d="m -237.11654,132.08761 c -0.0508,1.08444 -0.0988,2.16924 -0.12488,3.25544 -0.004,0.19544 0.18273,0.4124 0.34537,0.61489 0.26246,0.3242 0.5969,0.91793 0.60466,1.43192 0.006,0.42193 -0.11642,0.62971 -0.5327,0.65123 -1.28834,0.0663 -2.59291,0.007 -3.86715,0.007 -0.76129,0 -0.98178,-0.31185 -1.02623,-0.40887 -0.078,-0.1658 -0.0325,-0.37218 0.0988,-0.57679 0.71508,-1.11301 1.88278,-1.56527 3.01801,-1.88242 0.27305,-0.11853 0.35102,-0.27517 0.36054,-0.52317 0.0896,-2.17276 0.17674,-4.26896 0.26917,-6.44208 0.005,-0.12946 0.0113,-0.27904 0.078,-0.37958 0.0931,-0.14076 0.109,-0.15805 0.23495,-0.2787 0.10795,-0.0677 0.20849,-0.09 0.28857,-0.055 0.2861,0.12171 0.31397,0.83644 0.31926,1.08409 0.004,0.21096 0.005,0.43215 0.006,0.6424 2.7e-4,0.1524 -0.001,0.36125 -0.003,0.5641 -0.001,0.32561 -0.0427,1.74025 -0.0691,2.29587"
       style="fill:#ffffff;fill-opacity:1;fill-rule:nonzero;stroke:none;stroke-width:0.35277775"
       id="path4752"
       inkscape:connector-curvature="0" />
    <path
       d="m -235.83188,91.034102 c -2.05035,0 -4.03013,-1.34267 -4.03013,-4.02942 v -1.41464 c 0,-2.61444 1.97978,-3.95817 4.03013,-3.95817 2.05034,0 4.10104,1.34373 4.10104,3.95817 v 1.41464 c 0,2.68675 -2.0507,4.02942 -4.10104,4.02942 m 0,40.297818 c -2.05035,0 -4.10104,-1.34267 -4.10104,-3.95887 v -27.00691 c 0,-2.615498 2.05069,-3.959228 4.10104,-3.959228 2.05034,0 4.10104,1.34373 4.10104,3.959228 v 27.00691 c 0,2.6162 -2.0507,3.95887 -4.10104,3.95887"
       style="fill:#d5cfc8;fill-opacity:1;fill-rule:nonzero;stroke:none;stroke-width:0.35277775"
       id="path4756"
       inkscape:connector-curvature="0" />
    <path
       d="m -277.84414,89.884472 c -0.55563,-0.73448 -0.87983,-1.55645 -0.88195,-2.49096 -7.9e-4,-0.56444 0.17392,-0.73272 0.67663,-0.51541 0.71861,0.31009 1.43263,0.65052 2.10009,1.05622 0.53163,0.32279 1.03857,0.45438 1.63865,0.2794 0.27658,-0.0797 0.6537,-0.39829 0.99624,-0.14993 0.23178,0.16051 0.0762,0.6985 -0.0399,0.99236 -0.32984,0.83679 -1.22308,1.38677 -2.01789,1.72509 -0.68756,0.29139 -1.92334,-0.17181 -2.47191,-0.89677 m 11.36932,7.97349 c -0.32102,-0.36795 -0.74965,-0.46955 -1.05798,-0.21167 -0.23318,0.45297 -3.62338,1.9879 -4.7625,2.20663 -0.9786,0.264228 -1.57833,0.283978 -2.17734,-1.0474 -0.3683,-0.75248 -0.57503,-3.19582 -0.5969,-4.2665 -0.0145,-0.70238 -0.0974,-1.23507 -0.13829,-1.93745 -0.0208,-0.33902 0.12277,-0.52247 0.4505,-0.67275 1.17863,-0.54081 2.09479,-1.26506 2.58798,-2.53224 0.30515,-0.78422 0.28786,-1.55469 -0.34114,-2.16252 -0.53446,-0.51541 -1.21638,-0.58491 -1.917,-0.32174 -0.37641,0.14217 -0.71366,0.10019 -1.04492,-0.14323 -0.71156,-0.5207 -1.43757,-0.98883 -2.33187,-1.19027 -0.78457,-0.17815 -1.45661,0.007 -1.90182,0.69744 -0.50694,0.78564 -0.27834,1.62278 -0.0734,2.39536 0.38453,1.45027 1.19874,2.41724 2.5587,3.03777 0.34925,0.1584 0.48401,0.34361 0.51435,0.59549 0.0124,0.10054 -0.007,0.73731 0.06,2.00907 0.024,0.21661 0.042,0.43992 0.0579,0.66922 0.0635,0.92287 0.0896,1.93781 0.25082,2.90971 0.20744,1.25307 0.71332,2.392188 1.75825,3.201458 1.01247,0.73343 2.45357,0.37042 3.26178,0.0681 1.43157,-0.53517 3.57011,-1.402648 4.70923,-2.486728 0.30057,-0.28681 0.4318,-0.4752 0.1337,-0.81774"
       style="fill:#ffffff;fill-opacity:1;fill-rule:nonzero;stroke:none;stroke-width:0.35277775"
       id="path4760"
       inkscape:connector-curvature="0" />
    <path
       d="m -256.53103,126.77216 c -0.006,-0.26423 0.25964,-0.56268 0.67134,-0.62971 0.48295,-0.0783 0.70979,0.16934 0.77999,0.55386 0.14922,0.81174 0.30162,1.62666 0.39087,2.44264 0.21979,2.00589 0.23884,6.06883 0.23884,6.06883 0,0 1.69827,0.21414 2.74037,0.5648 1.03364,0.3496 1.58468,0.65087 2.28318,1.24072 0.55104,0.46496 0.28152,1.143 0.15099,1.15499 -0.40217,0.0356 -1.25377,0.0437 -1.67993,0.0437 -1.33561,-8e-4 -3.2131,-0.0586 -4.5473,-0.018 -0.34502,0.01 -0.48472,-0.0208 -0.53658,-0.12312 -0.0621,-0.1203 -0.0187,-1.47567 -0.005,-1.85597 0.091,-2.36114 0.091,-4.56106 -0.1337,-6.95924 -0.0741,-0.78917 -0.22225,-1.57092 -0.35348,-2.48356"
       style="fill:#ffffff;fill-opacity:1;fill-rule:nonzero;stroke:none;stroke-width:0.35277775"
       id="path4764"
       inkscape:connector-curvature="0" />
    <path
       d="m -259.70812,126.77216 c 0.006,-0.26423 -0.25965,-0.56268 -0.67169,-0.62971 -0.48295,-0.0783 -0.70979,0.16934 -0.77999,0.55386 -0.14887,0.81174 -0.34325,1.6249 -0.39053,2.44264 -0.0702,1.21814 -0.11994,2.17593 -0.16862,3.26601 -0.0335,0.74189 -0.0702,2.80282 -0.0702,2.80282 l -0.88583,0.085 c -0.57114,0.0571 -1.33773,0.29528 -1.8542,0.47978 -1.02693,0.3676 -1.58467,0.65087 -2.28388,1.24072 -0.55104,0.46496 -0.28152,1.143 -0.15064,1.15499 0.40217,0.0356 1.25378,0.0437 1.67993,0.0437 1.33562,-8e-4 3.2131,-0.0586 4.54696,-0.018 0.46778,0.013 0.55809,-0.0462 0.56585,-0.26212 0.005,-0.12947 -0.002,-0.97437 -0.004,-1.17228 -0.002,-0.18238 -0.009,-0.36371 -0.0208,-0.54469 -0.16616,-2.38654 -0.15064,-4.58152 0.1337,-6.95924 0.0945,-0.7874 0.22296,-1.57092 0.35384,-2.48356"
       style="fill:#ffffff;fill-opacity:1;fill-rule:nonzero;stroke:none;stroke-width:0.35277775"
       id="path4768"
       inkscape:connector-curvature="0" />
    <path
       d="m -257.96041,78.026452 c 4.87821,0 7.77663,3.95852 7.77663,7.21078 0,3.88831 -2.75696,7.14128 -7.77663,7.14128 -4.45312,0 -7.63588,-3.74756 -7.63588,-7.14128 0,-3.25226 2.68852,-7.21078 7.63588,-7.21078 m 10.18046,52.881748 h -19.79542 v -9.26218 h 2.97003 v -16.8963 h -2.97003 v -9.190568 h 16.40205 v 26.086868 h 3.39337 z"
       style="fill:#ff2600;fill-opacity:1;fill-rule:nonzero;stroke:none;stroke-width:0.35277775"
       id="path4772"
       inkscape:connector-curvature="0" />
    <path
       d="m -366.96081,115.08844 c -0.19615,-0.0353 -0.40146,-0.0769 -0.55422,-0.22048 -0.68368,-0.63747 -1.41005,-1.23367 -1.69051,-2.1964 -0.0981,-0.33584 -0.15522,-0.64876 -0.0769,-0.95073 0.0367,-0.14358 0.18203,-0.45967 0.38065,-0.7172 0.13828,-0.17886 0.21448,-0.10548 0.56479,0.17992 0.83291,0.67874 1.47108,1.50495 1.93569,2.46979 0.11007,0.22896 0.18098,0.46849 0.20462,0.72179 0.0448,0.47942 -0.29034,0.80045 -0.76412,0.71331 m 2.18546,-0.70979 c -0.14817,-1.90993 -1.28588,-3.19792 -2.73615,-4.25379 -0.3944,-0.28681 -0.61771,-0.57891 -0.67557,-1.03999 -0.11782,-0.93733 -0.31715,-1.85984 -0.58984,-2.76189 -0.90523,-2.99263 -2.40806,-5.69032 -4.13667,-8.272298 -0.20955,-0.31186 -0.52141,-0.43815 -0.87842,-0.2413 -0.31785,0.17568 -0.46496,0.69991 -0.28893,1.02341 0.1517,0.27975 0.34396,0.53622 0.51047,0.80927 0.77788,1.275638 1.50672,2.577388 2.19322,3.907008 1.00013,1.93747 1.59809,3.97123 1.82527,6.12917 0.0289,0.28187 -0.0741,0.42863 -0.30091,0.5641 -1.21956,0.72813 -1.39736,2.26765 -0.83432,3.35844 0.55562,1.0735 1.37759,1.89618 2.37348,2.55023 0.91652,0.64735 1.77024,0.39194 2.64443,-0.11289 0.66251,-0.3817 0.9525,-0.90911 0.89394,-1.65947"
       style="fill:#ffffff;fill-opacity:1;fill-rule:nonzero;stroke:none;stroke-width:0.35277775"
       id="path7132"
       inkscape:connector-curvature="0" />
    <path
       d="m -378.28311,126.77216 c -0.006,-0.26423 0.23883,-0.56374 0.61701,-0.62971 0.44379,-0.0783 0.65264,0.16934 0.71684,0.55386 0.13724,0.81174 0.27694,1.62666 0.35878,2.44264 0.20144,2.00589 0.21943,6.06954 0.21943,6.06954 0,0 1.56069,0.21343 2.51848,0.56409 0.94968,0.3496 1.45556,0.65087 2.09761,1.24001 0.50589,0.46496 0.25894,1.14371 0.13865,1.1557 -0.36936,0.0356 -1.15147,0.0437 -1.54341,0.0437 -1.22837,-8e-4 -2.95275,-0.0586 -4.1783,-0.019 -0.3175,0.0109 -0.4452,-0.019 -0.49353,-0.12206 -0.0572,-0.1203 -0.0173,-1.47638 -0.003,-1.85597 0.0829,-2.36114 0.0836,-4.56036 -0.12312,-6.95924 -0.0684,-0.78917 -0.20496,-1.57092 -0.32526,-2.48356"
       style="fill:#ffffff;fill-opacity:1;fill-rule:nonzero;stroke:none;stroke-width:0.35277775"
       id="path7136"
       inkscape:connector-curvature="0" />
    <path
       d="m -381.20217,126.77216 c 0.006,-0.26423 -0.23883,-0.56374 -0.61701,-0.62971 -0.44379,-0.0783 -0.65264,0.16934 -0.71719,0.55386 -0.13688,0.81174 -0.31574,1.62419 -0.35843,2.44264 -0.0649,1.21884 -0.11042,2.17593 -0.15557,3.26637 -0.0307,0.74153 -0.0642,2.80317 -0.0642,2.80317 l -0.81421,0.0843 v -7.9e-4 c -0.52423,0.0572 -1.22908,0.29669 -1.70391,0.48048 -0.94333,0.3676 -1.45627,0.65088 -2.09762,1.24002 -0.50659,0.46496 -0.25929,1.1437 -0.13864,1.1557 0.36936,0.0356 1.15076,0.0437 1.54375,0.0437 1.22732,-7.9e-4 2.95134,-0.0586 4.17795,-0.0191 0.42968,0.0141 0.51223,-0.0452 0.51929,-0.26105 0.005,-0.12947 -0.002,-0.97332 -0.003,-1.17299 -10e-4,-0.18168 -0.008,-0.36336 -0.0194,-0.54398 -0.15134,-2.38655 -0.13793,-4.58153 0.12347,-6.95925 0.0861,-0.7874 0.20391,-1.57092 0.32491,-2.48356"
       style="fill:#ffffff;fill-opacity:1;fill-rule:nonzero;stroke:none;stroke-width:0.35277775"
       id="path7140"
       inkscape:connector-curvature="0" />
    <path
       d="m -389.0749,108.30576 c 0.34184,0.38665 0.38241,0.80751 0.25647,1.44322 -0.0755,0.37994 -0.16827,0.71472 -0.24871,0.82902 -0.3623,0.514 -0.75212,0.55775 -1.33209,0.52776 -0.91898,-0.0508 -1.8669,-0.22296 -2.3696,-0.57997 -0.5387,-0.38382 -0.54681,-0.79551 -0.49001,-1.18427 0.01,-0.0706 0.0247,-0.14006 0.042,-0.20955 0.0392,-0.15769 0.0977,-0.31009 0.16933,-0.43886 0.004,-0.006 0.006,-0.012 0.01,-0.0176 0.0342,-0.0593 0.072,-0.11289 0.11253,-0.16087 0.007,-0.007 0.0138,-0.0145 0.0212,-0.0229 0.042,-0.0452 0.0864,-0.0864 0.13335,-0.11607 0.10019,-0.0624 0.21519,-0.12311 0.33902,-0.18026 0.003,-10e-4 0.006,-0.003 0.009,-0.004 0.12559,-0.0579 0.26141,-0.11289 0.40463,-0.16158 0.98566,-0.34007 2.31493,-0.43532 2.94358,0.27588 m 2.9651,-12.200448 c -0.0173,-0.0557 -0.0399,-0.11254 -0.0773,-0.15417 -0.0822,-0.0956 -0.21202,-0.10301 -0.32032,-0.0974 h -0.002 c -0.001,-7.2e-4 -0.001,-0.003 -0.002,-0.002 -0.004,0 -0.007,0.001 -0.012,0.002 l -0.001,0.002 c -0.46108,0.0247 -2.44475,0.43815 -2.89701,0.53587 -0.48472,0.10548 -0.96767,0.22578 -1.44745,0.3563 -0.74612,0.20215 -1.49507,0.40146 -2.22497,0.66287 -1.08761,0.38947 -2.63983,0.91723 -3.80823,1.71274 -0.59867,0.4071 -1.16911,0.84949 -1.69334,1.383588 -0.86254,0.87842 -1.21038,2.01825 -0.83185,3.34434 0.35454,1.24671 1.29822,2.11808 2.13537,2.85892 0.82938,0.73448 1.98508,1.37336 2.73332,1.80375 0.004,10e-4 0.007,0.004 0.01,0.005 -0.0998,0.2801 -0.15592,0.57256 -0.14287,0.86995 0.005,0.10795 0.0208,0.40217 0.0265,0.44062 0.18238,1.18815 0.88406,1.91664 1.91205,2.22991 1.2566,0.44767 1.76072,0.42862 2.8695,0.51152 1.1557,0.0868 1.89583,-0.72495 2.21297,-1.73319 0.54363,-1.7272 0.47625,-3.52143 -0.94756,-4.13703 -1.18639,-0.41275 -2.13818,-0.45861 -3.06846,-0.22189 0.18591,-0.26741 0.36971,-0.55704 0.46143,-0.84103 0.11642,-0.35949 0.1704,-0.72779 0.11113,-1.07527 -0.0709,-0.41169 -0.10936,-0.71649 -0.50377,-0.85196 -0.11006,-0.0388 -0.51788,-0.0857 -0.6223,-0.0314 -0.084,0.0445 -0.1404,0.12947 -0.18626,0.21379 -0.20638,0.38452 -0.21873,0.76693 -0.29598,1.19803 -0.12524,0.69286 -0.50871,1.30529 -0.91758,1.87925 -0.0194,0.0268 -0.0473,0.0681 -0.078,0.11572 -0.12595,-0.0631 -0.2533,-0.12559 -0.38524,-0.18874 -1.31198,-0.75918 -2.61267,-1.48625 -3.50908,-2.92701 -0.56691,-0.9091 -0.65793,-1.62912 0.18309,-2.44827 0.81492,-0.79234 1.62137,-1.31093 2.51249,-1.690868 2.9598,-1.25836 5.04331,-1.70215 5.7277,-1.87325 0.61877,-0.15451 2.14912,-0.50835 2.48426,-0.61277 0.008,-0.002 0.115,-0.0416 0.16087,-0.0639 0.15698,-0.0758 0.29386,-0.21166 0.37888,-0.38593 0.11571,-0.23672 0.13511,-0.53376 0.0557,-0.78987"
       style="fill:#ffffff;fill-opacity:1;fill-rule:nonzero;stroke:none;stroke-width:0.35277775"
       id="path7144"
       inkscape:connector-curvature="0" />
    <path
       d="m -387.55869,86.131062 c 0,-3.96099 4.07776,-5.59223 7.45595,-5.59223 3.43677,0 7.3974,1.86443 7.3974,5.82542 0,3.84422 -3.90313,5.64973 -7.28027,5.64973 -3.61245,0 -7.57308,-1.74766 -7.57308,-5.88292 m 14.85335,31.745418 c 0,1.86408 -0.17498,3.72851 1.74731,4.83482 v 8.21302 h -17.1831 v -8.21302 c 1.80622,-1.10631 1.68981,-2.7379 1.68981,-4.60128 v -10.83416 c 0,-1.86443 0.17427,-3.72851 -1.68981,-4.83553 v -8.212668 h 15.43579 z"
       style="fill:#ff2600;fill-opacity:1;fill-rule:nonzero;stroke:none;stroke-width:0.35277775"
       id="path7148"
       inkscape:connector-curvature="0" />
    <path
       d="m -75.257355,135.50545 c 0.003,-1.22873 -0.0811,-2.67406 -0.0861,-3.90243 -0.006,-1.39806 -0.0526,-4.10281 -0.0332,-5.50122 0.006,-0.42897 -0.006,-0.883 0.0917,-1.30739 0.0201,-0.0864 0.17323,-0.60537 0.60431,-0.60537 0.65971,0 0.66429,1.05234 0.68017,1.20474 0.0314,0.31397 0.0275,0.63429 0.0406,0.94438 0.0861,2.05 0.10726,5.34953 0.19828,7.39846 0.0345,0.7687 0.0772,1.54234 0.16086,2.30964 0.0515,0.46707 0.0642,0.9398 0.0762,1.41005 0.008,0.31468 -0.0469,0.69144 -0.90453,0.70944 -1.58927,0.0342 -3.32846,0.0374 -4.91773,0.0328 -0.23918,-7.9e-4 -0.64241,-0.0346 -0.6812,-0.22824 -0.01,-0.27517 0.0705,-0.62089 0.24834,-0.82268 0.78354,-1.13207 1.70569,-1.45168 3.03813,-1.62102 0.40394,-0.0515 1.04881,-0.0607 1.48413,-0.0212"
       style="fill:#ffffff;fill-opacity:1;fill-rule:nonzero;stroke:none;stroke-width:0.35277775"
       id="path9508"
       inkscape:connector-curvature="0" />
    <path
       d="m -82.751835,135.11204 c -0.003,-0.65334 -0.0282,-1.29223 -0.008,-1.92758 0.0374,-1.14864 -0.0427,-3.74332 0.0374,-4.88668 0.0734,-1.04598 -0.0367,-2.36431 0.0991,-3.40007 0.0353,-0.26705 -0.0339,-0.70661 0.40709,-0.70873 0.41381,-0.003 0.66535,0.39441 0.70662,0.68509 0.072,0.49319 0.18767,1.30952 0.17709,1.80517 -0.0225,1.10666 -0.0214,3.49673 0.006,4.60622 0.049,1.98966 0.17145,3.98321 0.25506,5.975 0.0268,0.6477 -0.006,0.61877 -0.66077,0.64276 -0.99658,0.0353 -2.03692,0.0303 -3.03318,0.0684 -0.7112,0.0275 -1.42592,0.0529 -2.13924,-0.0279 -0.47519,-0.0529 -0.49495,-0.30128 -0.32207,-0.71826 0.42402,-1.01776 1.07489,-1.49966 1.96744,-1.76565 0.99412,-0.29598 2.03692,-0.31574 2.50788,-0.34784"
       style="fill:#ffffff;fill-opacity:1;fill-rule:nonzero;stroke:none;stroke-width:0.35277775"
       id="path9512"
       inkscape:connector-curvature="0" />
    <path
       d="m -88.545785,92.860012 c -0.0346,0.42087 -0.20461,0.75248 -0.46636,1.05939 -0.0808,0.0945 -0.15311,0.13688 -0.29035,0.0875 -0.73306,-0.26317 -1.21531,-0.73519 -1.32609,-1.53881 -0.0783,-0.71367 -0.18945,-1.08233 0.26389,-1.71591 0.39264,-0.28117 0.73306,-0.32985 1.00119,0.0226 0.5602,0.73449 0.89992,1.09679 0.81772,2.08527 m 8.17316,11.566168 c -0.15875,-0.24059 -0.42439,-0.30092 -0.65333,-0.42121 -1.96993,-1.03576 -3.77296,-2.49449 -5.0532,-4.550478 -0.86961,-1.43898 -1.46897,-2.67194 -1.86868,-4.33423 -0.0589,-0.24765 -0.0204,-0.40781 0.13441,-0.61913 0.58526,-0.79445 0.71544,-1.70391 0.57082,-2.67723 -0.24554,-0.80856 -0.56164,-1.3469 -1.08268,-2.0327 -0.48085,-0.63253 -1.09151,-0.89817 -1.8969,-0.7359 -0.67167,0.13547 -1.25058,0.5133 -1.40722,1.30175 -0.0335,0.16934 -0.0833,0.17886 -0.12559,0.35102 -0.30975,1.24848 -0.2339,2.20486 0.53834,3.29812 0.43003,0.6096 1.10279,0.91263 1.75435,1.22131 0.13441,0.0639 0.25294,0.0801 0.29916,0.26141 0.3877,1.53529 0.8957,2.78165 1.68416,4.14232 0.74684,1.289748 1.67428,2.741428 2.89771,3.664648 0.88019,0.66428 1.83621,1.20157 2.81342,1.70145 0.33901,0.17357 0.70414,0.34891 1.12887,0.18627 0.3609,-0.13864 0.47874,-0.43392 0.26636,-0.75742"
       style="fill:#ffffff;fill-opacity:1;fill-rule:nonzero;stroke:none;stroke-width:0.35277775"
       id="path9516"
       inkscape:connector-curvature="0" />
    <path
       d="m -78.314535,95.361492 c -4.04953,0 -6.74756,-1.84009 -6.74756,-5.82718 0,-3.98745 2.69803,-5.82754 6.74756,-5.82754 4.04778,0 6.74687,1.84009 6.74687,5.82754 0,3.98709 -2.69909,5.82718 -6.74687,5.82718"
       style="fill:#ff2600;fill-opacity:1;fill-rule:nonzero;stroke:none;stroke-width:0.35277775"
       id="path9520"
       inkscape:connector-curvature="0" />
    <path
       d="M -84.202915,127.01261 V 99.104002 l 11.7154,-1.41111 v 29.319718 z"
       style="fill:#ff2600;fill-opacity:1;fill-rule:nonzero;stroke:none;stroke-width:0.35277775"
       id="path9524"
       inkscape:connector-curvature="0" />
    <path
       d="m -64.113185,91.460612 c -0.38206,0.26353 -0.85019,0.28081 -1.23754,-0.0748 -0.38981,-0.3563 -0.68016,-0.80468 -0.49495,-1.33032 0.33232,-0.9465 0.7299,-1.8736 1.48167,-2.58657 0.59232,-0.56127 1.33985,-0.64276 1.63478,-0.14605 0.2854,0.48119 0.43039,1.01988 0.38417,1.69157 -0.29104,0.95709 -0.87029,1.82774 -1.76813,2.44616 m 2.6335,-4.92619 c -0.84068,-1.26823 -2.54672,-1.42451 -3.52284,-0.64064 -0.9465,0.75847 -1.52646,1.79141 -2.06799,2.86456 -0.64275,1.27176 -0.42862,2.4003 0.42193,3.44487 0.20109,0.24836 0.16934,0.45685 0.0959,0.66851 -0.13263,0.38665 -0.30197,0.76553 -0.49636,1.12572 -0.75633,1.40017 -1.82843,2.56822 -2.8081,3.80576 -1.46931,1.85526 -3.34222,3.099158 -5.55765,3.864688 -0.41206,0.14287 -0.40148,0.51329 -0.29811,0.77893 0.13264,0.33902 0.44556,0.73625 0.84667,0.57538 1.34162,-0.53481 2.71285,-1.0414 3.86575,-1.94592 1.84007,-1.444978 3.43887,-3.147488 4.62102,-5.190418 0.51824,-0.87207 0.66922,-1.35149 0.99412,-2.04717 0.15489,-0.33161 0.26072,-0.6731 0.80645,-0.69956 2.20875,-0.10971 3.60151,-2.35797 3.80191,-3.80012 0.10266,-0.9518 -0.13018,-1.94169 -0.70274,-2.80459"
       style="fill:#ffffff;fill-opacity:1;fill-rule:nonzero;stroke:none;stroke-width:0.35277775"
       id="path9528"
       inkscape:connector-curvature="0" />
    <path
       d="m -199.07581,138.15337 c -0.34889,-0.0127 -0.65123,-0.0385 -0.97613,-0.10195 -0.64065,-0.12559 -0.85478,-0.42863 -0.58173,-1.02094 0.44556,-0.96802 1.10983,-1.77024 1.90641,-2.46309 0.248,-0.21485 0.23812,-0.44098 0.27164,-0.74895 0.11077,-1.02235 0.21061,-2.05493 0.31185,-3.06846 0.25894,-2.60562 0.60078,-5.20206 0.91511,-7.80204 0.0268,-0.22577 0.085,-0.45226 0.15275,-0.67098 0.0639,-0.20884 0.17216,-0.41275 0.43321,-0.39617 0.2533,0.0145 0.44344,0.1778 0.50518,0.4124 0.10019,0.37465 0.13864,0.756 0.11077,1.15499 -0.18309,2.61691 -0.65475,5.20277 -0.8322,7.82038 -0.0635,0.9398 -0.27164,1.86549 -0.26564,2.80917 0.001,0.27587 0.127,0.44309 0.3884,0.56762 0.93345,0.44168 1.69299,1.08938 2.23168,1.98367 0.16651,0.33443 0.25153,0.47343 0.35031,0.79869 0.13511,0.44344 -0.008,0.62371 -0.46779,0.65828 -0.81139,0.0632 -1.59702,0.0868 -2.40665,0.0854 -0.29139,0 -1.69862,-0.005 -2.04717,-0.018"
       style="fill:#ffffff;fill-opacity:1;fill-rule:nonzero;stroke:none;stroke-width:0.35277775"
       id="path14244"
       inkscape:connector-curvature="0" />
    <path
       d="m -185.42288,137.02477 c -0.0272,-0.0653 -0.0751,-0.11995 -0.12348,-0.17216 -0.25011,-0.26811 -0.54539,-0.49318 -0.86959,-0.66428 -0.0508,-0.0342 -0.10337,-0.0663 -0.15946,-0.0938 -1.29011,-0.64452 -2.64901,-1.12642 -4.09363,-1.22555 -0.55563,-0.0377 -0.70697,-0.22578 -0.77752,-0.72743 -0.31292,-2.2359 -0.45297,-4.47816 -0.36866,-6.73417 0,-1.27741 0.002,-2.55411 -0.003,-3.83082 -2.6e-4,-0.17639 -0.0166,-0.3556 -0.0557,-0.52669 -0.0917,-0.39829 -0.35983,-0.63218 -0.762,-0.59373 -0.40781,0.0392 -0.36406,0.3997 -0.39652,0.69991 -0.14746,1.34021 -0.009,2.68535 -0.0854,4.02696 -0.11782,2.05987 0.009,4.10422 0.22049,6.14292 0.067,0.64382 0.16898,1.66546 0.24765,2.30787 0.0215,0.17745 0.097,0.89218 0.1778,1.4538 0.0543,0.37818 0.127,0.69568 0.127,0.69568 0,0 0.14464,0.22225 0.91793,0.20849 l -8e-4,7.9e-4 c 0,0 2.15195,0.16087 3.50661,0.11113 0.31468,-0.0113 1.03329,-0.0624 1.61008,-0.21766 0.15946,-0.042 0.31151,-0.10901 0.45861,-0.18415 0.13159,-0.0667 0.26176,-0.14429 0.35172,-0.26177 0.0903,-0.11641 0.13371,-0.27798 0.0776,-0.41521"
       style="fill:#ffffff;fill-opacity:1;fill-rule:nonzero;stroke:none;stroke-width:0.35277775"
       id="path14248"
       inkscape:connector-curvature="0" />
    <path
       d="m -200.28194,102.81255 c 0,-0.76165 0.62266,-1.31516 1.31481,-1.31516 h 7.61188 c 0.69145,0 1.31445,0.55351 1.31445,1.31516 v 25.04899 c 0,0.6925 -0.623,1.3148 -1.31445,1.3148 h -7.61188 c -0.69215,0 -1.31481,-0.6223 -1.31481,-1.3148 z m -0.41522,-15.153218 c 0,-3.04553 2.42147,-5.5365 5.46629,-5.5365 3.04483,0 5.53544,2.49097 5.53544,5.5365 0,3.04377 -2.49061,5.46629 -5.53544,5.46629 -3.04482,0 -5.46629,-2.42252 -5.46629,-5.46629"
       style="fill:#ff2600;fill-opacity:1;fill-rule:nonzero;stroke:none;stroke-width:0.35277775"
       id="path14252"
       inkscape:connector-curvature="0" />
    <path
       d="m -176.02673,137.73033 c -0.39406,-0.0247 -0.67769,-0.0342 -0.95885,-0.0632 -0.42934,-0.0437 -0.86325,-0.22966 -0.96238,-0.64099 -0.0942,-0.39335 0.20143,-0.65123 0.48683,-0.87207 1.01953,-0.79022 2.1777,-1.06045 3.41842,-1.20156 0.36971,-0.0413 0.51823,-0.16722 0.49459,-0.5581 -0.14605,-2.40806 -0.0783,-4.80307 0.1263,-7.20795 0.0187,-0.22402 0.085,-0.35807 0.1979,-0.5454 0.10478,-0.17215 0.33091,-0.2928 0.69074,-0.0825 0.30092,0.17569 0.34643,0.58808 0.35031,0.94933 -0.0314,1.21849 -0.0762,2.46062 -0.0557,3.66571 0.0166,0.90241 0.15875,3.79624 0.18909,4.34799 0.0243,0.4385 0.0508,0.877 0.0751,1.31445 0.0296,0.53481 -0.16757,0.76482 -0.6664,0.81562 -1.1998,0.12135 -2.29552,0.0815 -3.38596,0.0787"
       style="fill:#ffffff;fill-opacity:1;fill-rule:nonzero;stroke:none;stroke-width:0.35277775"
       id="path14256"
       inkscape:connector-curvature="0" />
    <path
       d="m -165.84821,128.35 c -0.018,1.46685 0.19191,6.57331 0.25646,7.71772 0.0282,0.50271 0.048,1.00507 0.0667,1.50813 0.0113,0.34537 -0.22119,0.67204 -0.5715,0.68686 -1.00435,0.0437 -1.9184,0.11888 -2.87514,0.11888 -1.41428,0 -2.16464,-0.23918 -2.49202,-0.49 -0.0938,-0.0727 -0.14534,-0.18909 -0.1718,-0.32668 -0.0723,-0.37394 0.20355,-0.64311 0.45508,-0.889 0.92287,-0.78846 2.42077,-1.11866 3.64138,-1.43016 0.27305,-0.0699 0.37853,-0.14534 0.36724,-0.46037 -0.0416,-1.16099 -0.0219,-2.32304 -0.0194,-3.48827 0.001,-1.12854 -0.0138,-2.25496 0.0187,-3.38702 0.0152,-0.52564 0.14711,-0.8008 0.68686,-0.8008 0.67945,0 0.64734,1.1377 0.63747,1.24071"
       style="fill:#ffffff;fill-opacity:1;fill-rule:nonzero;stroke:none;stroke-width:0.35277775"
       id="path14260"
       inkscape:connector-curvature="0" />
    <path
       d="m -163.22992,89.162062 c 0,1.05269 -0.20462,2.03835 -0.61384,2.95416 -0.40957,0.91757 -0.96555,1.71697 -1.66758,2.39853 -0.70203,0.68263 -1.5113,1.21956 -2.42746,1.60938 -0.91687,0.38981 -1.88242,0.58525 -2.89596,0.58525 -1.05268,0 -2.03835,-0.19544 -2.95451,-0.58525 -0.91687,-0.38982 -1.70639,-0.92675 -2.36855,-1.60938 -0.66393,-0.68156 -1.18992,-1.48096 -1.58009,-2.39853 -0.39053,-0.91581 -0.58491,-1.90147 -0.58491,-2.95416 0,-1.05269 0.19438,-2.03694 0.58491,-2.95346 0.39017,-0.91652 0.91616,-1.71662 1.58009,-2.39889 0.66216,-0.68156 1.45168,-1.21849 2.36855,-1.60902 0.91616,-0.38911 1.90183,-0.58526 2.95451,-0.58526 1.01354,0 1.97909,0.19615 2.89596,0.58526 0.91616,0.39053 1.72543,0.92746 2.42746,1.60902 0.70203,0.68227 1.25801,1.48237 1.66758,2.39889 0.40922,0.91652 0.61384,1.90077 0.61384,2.95346"
       style="fill:#d5cfc8;fill-opacity:1;fill-rule:nonzero;stroke:none;stroke-width:0.35277775"
       id="path14264"
       inkscape:connector-curvature="0" />
    <path
       d="m -182.73056,115.30618 c -0.22578,0.86501 -0.94792,0.88089 -0.94792,0.88089 l -2.6e-4,-0.001 c -0.33267,0.0709 -0.72637,-0.12418 -0.72637,-0.12418 -0.005,-0.18627 -0.0159,-0.34854 -0.13582,-0.56374 -0.42439,-0.75812 -1.03576,-0.97719 -1.46297,-1.13982 -0.42686,-0.16087 -1.28164,0.007 -1.28164,0.007 -0.0995,-0.0572 -0.52635,-0.30091 -0.43921,-0.7881 0.0145,-0.0822 0.0363,-0.14676 0.0603,-0.22754 0.0469,-0.14464 0.1016,-0.2854 0.16545,-0.42087 0.0152,-0.0314 0.0293,-0.0628 0.0448,-0.0931 0.16793,-0.33126 0.35878,-0.71191 0.61489,-1.01812 0.0579,-0.0681 0.25612,-0.35419 0.57821,-0.38452 -0.0808,0.45684 -0.0773,0.8643 -0.0695,1.18603 0.0257,1.13595 0.64946,1.55858 0.86113,1.63654 0.12488,0.0445 0.2607,0.072 0.41063,0.0882 0.61701,0.004 1.03717,-0.2466 1.39595,-0.70803 0.0847,-0.12594 0.14746,-0.24624 0.1979,-0.35384 0.19297,0.22296 0.32985,0.40499 0.393,0.49566 0.24447,0.35419 0.34854,0.62406 0.38558,0.95497 0.0183,0.16615 0.0116,0.35842 -0.0441,0.57326 m -2.95769,1.23613 c -0.52246,-0.0645 -0.96802,-0.2667 -1.32644,-0.6604 -0.24977,-0.2741 -0.20532,-0.47342 0.14464,-0.5976 0.68121,-0.24024 1.40476,0.2032 1.50318,0.97261 0.0116,0.1718 -0.0434,0.31891 -0.32138,0.28539 m 0.95603,-5.71535 c 0.16192,-0.2473 0.393,-0.29422 0.56586,-0.29245 0.71366,0.007 1.36595,0.16369 1.91734,0.60501 h 0.001 c 0.13018,0.0977 0.68404,0.41981 0.60643,1.20474 -0.001,0.0145 -0.002,0.0282 -0.004,0.043 -10e-4,0.01 -10e-4,0.0198 -0.003,0.03 -0.001,0.012 -0.004,0.0226 -0.005,0.0335 -0.003,0.0222 -0.007,0.0434 -0.0106,0.0649 -0.0903,0.50588 -0.27129,0.7493 -0.381,0.85725 -0.0536,0.0522 -0.0924,0.0748 -0.0924,0.0748 l -0.0473,0.0381 c -0.31821,-0.55351 -0.83397,-1.04599 -1.05446,-1.2446 0,0 2.7e-4,-0.006 10e-4,-0.0169 2.7e-4,-0.002 2.7e-4,-0.004 0.001,-0.008 0.003,-0.0399 0.01,-0.1277 0.0159,-0.2286 0.007,-0.1016 0.013,-0.21202 0.0145,-0.29386 -0.0702,-0.11959 -0.23883,-0.26035 -0.35242,-0.27517 -0.1083,-0.0141 -0.1651,0.0307 -0.19826,0.10019 -0.0402,0.0857 -0.0452,0.2092 -0.0572,0.31362 -0.0113,0.10372 -0.0342,0.20144 -0.061,0.2981 -0.0102,0.0367 -0.0201,0.0744 -0.0325,0.11042 -0.0198,0.0572 -0.0444,0.11324 -0.0695,0.16827 -0.0346,0.0759 -0.0716,0.15029 -0.11571,0.22119 -0.1009,0.16581 -0.22049,0.32138 -0.36689,0.46038 -0.097,0.0914 -0.28611,0.16757 -0.39793,0.13441 -0.084,-0.0261 -0.14288,-0.23354 -0.16017,-0.36724 -0.0413,-0.31821 -0.0624,-0.647 -0.0399,-0.96768 v 0.001 c 0.0205,-0.27411 0.0737,-0.54151 0.18027,-0.7881 0.001,-0.002 0.002,-0.004 0.002,-0.006 0.0363,-0.0818 0.078,-0.16227 0.12665,-0.23988 0.006,-0.0102 0.0109,-0.0201 0.0173,-0.0307 m 11.1566,-3.34786 c -0.1076,-0.13299 -0.33726,-0.27763 -0.48049,-0.24977 -0.34501,0.066 -0.70731,0.17393 -0.998,0.36443 -0.47802,0.3122 -0.96661,0.60077 -1.47497,0.84349 -1.40299,0.67063 -3.12455,1.31586 -3.67841,1.45626 -0.0191,0.006 -0.0388,0.0117 -0.0586,0.0173 -0.13018,0.037 -0.2607,0.0663 -0.39229,0.0921 -0.55774,0.12911 -1.00824,0.21202 -1.04634,0.19755 -0.44767,-0.16616 -0.89076,-0.30127 -1.00118,-0.33725 -0.007,-0.002 -0.0155,-0.004 -0.0233,-0.007 -0.47272,-0.1658 -0.96626,-0.28927 -1.46085,-0.36794 -0.54716,-0.0882 -0.96697,0.0737 -1.38148,0.44097 -0.0748,0.0748 -0.21061,0.18626 -0.35948,0.43639 0,0 -0.93028,-0.34608 -1.7138,0.49071 -0.007,0.008 -0.0134,0.0141 -0.0201,0.0212 -0.16016,0.2025 -0.31185,0.41946 -0.48083,0.62125 -0.19227,-0.0385 -0.3937,-0.0801 -0.59479,-0.1196 -0.60889,-0.12206 -1.23366,-0.19226 -1.82456,-0.37429 -1.86338,-0.57679 -4.48769,-2.23626 -6.00464,-3.51367 -0.23847,-0.20038 -1.70532,-1.22237 -2.06903,-0.6791 -0.17216,0.25541 -0.22296,0.74825 0.40463,1.20368 0.0751,0.0543 0.37042,0.28434 0.45932,0.35983 0.92674,0.78211 3.30729,2.21122 4.16877,2.65254 0.90805,0.46567 1.91135,0.79763 2.85962,1.17828 0.57432,0.2286 1.36878,0.35913 1.97238,0.55598 -0.0571,0.14605 -0.0921,0.2039 -0.11642,0.27904 -0.2293,0.69321 -0.0776,1.49225 0.71967,2.03059 0,0 -0.2353,0.36795 0.20002,1.01777 0.006,0.01 0.008,0.0173 0.0134,0.0257 0.20991,0.3055 0.53129,0.62829 0.91828,0.87983 0.77612,0.50411 1.67464,0.62653 2.18017,0.47836 0.17851,-0.0522 0.32914,-0.16651 0.43603,-0.32667 0,0 1.28976,0.67557 2.27613,-0.28293 0.073,-0.0709 0.14781,-0.14887 0.21378,-0.23989 0.17004,-0.24059 0.27446,-0.44661 0.34325,-0.635 0.0557,-0.15098 0.0995,-0.31009 0.11571,-0.44943 0.0346,-0.29775 0.0159,-0.62019 -0.0437,-0.93381 0.18204,-0.14781 0.42334,-0.36407 0.63465,-0.62794 0.12382,-0.15346 0.23072,-0.35631 0.33514,-0.58455 0.0148,-0.0272 0.0293,-0.0586 0.0445,-0.0942 0.11112,-0.25611 0.16298,-0.51435 0.18027,-0.75565 2.6e-4,-0.004 0.001,-0.008 0.002,-0.0116 0.001,-0.0272 0.001,-0.0547 0.001,-0.0818 0.0159,-0.46673 -0.0935,-0.86113 -0.16404,-1.06257 l 0.94227,-0.35454 c 0.6925,-0.25576 1.37442,-0.50835 2.04011,-0.79516 1.35008,-0.5835 2.62678,-1.30493 3.75461,-2.26343 0.1577,-0.13476 0.33444,-0.29562 0.17145,-0.4953"
       style="fill:#ffffff;fill-opacity:1;fill-rule:nonzero;stroke:none;stroke-width:0.35277775"
       id="path14268"
       inkscape:connector-curvature="0" />
    <path
       d="m -180.37029,107.76556 v -8.365788 h 16.78975 v 20.007098 h 3.91936 v 8.13223 c -1.36666,0.5461 -2.89631,0.95427 -4.59246,1.22802 -1.69651,0.27305 -3.22792,0.40922 -4.59176,0.40922 -1.67781,0 -3.07199,-0.16616 -4.18288,-0.49671 -1.11161,-0.33126 -1.99884,-0.81844 -2.66171,-1.46226 -0.66393,-0.64417 -1.13171,-1.43404 -1.40476,-2.36961 -0.27341,-0.93592 -0.40923,-2.00801 -0.40923,-3.21698 v -13.86522 z"
       style="fill:#d5cfc8;fill-opacity:1;fill-rule:nonzero;stroke:none;stroke-width:0.35277775"
       id="path14272"
       inkscape:connector-curvature="0" />
    <path
       d="m -163.18963,114.06493 c 0.47096,0.47942 1.1677,1.27706 1.03223,2.21615 0,0.0452 -0.0251,0.12453 -0.0875,0.18486 -0.1016,0.0991 -0.54928,0.19473 -2.05317,-0.62724 -0.69073,-0.37783 -1.25447,-0.96309 -1.55469,-1.31939 -0.29527,-0.35102 -0.0942,-0.6029 0.17533,-0.78493 0.60572,-0.40711 1.56563,-0.60854 2.48779,0.33055 m 2.34809,-4.61257 c 0.89217,-1.21885 0.83115,-1.87748 -0.19791,-2.95698 -1.05304,-1.10561 -2.94428,-2.93301 -4.0453,-4.04426 -0.12559,-0.12629 -0.52247,-0.47872 -0.7172,-0.56585 -0.28116,-0.12594 -0.67522,-0.23672 -0.92992,-0.0378 -0.37606,0.2921 -0.22719,0.71438 -0.16051,0.82303 0.0797,0.13123 0.24765,0.31221 0.62441,0.66287 1.11231,0.96979 2.99685,2.77743 4.05377,3.80613 0.41946,0.40852 0.43392,0.98601 0.10689,1.44215 -0.55915,0.77929 -1.91981,2.27366 -3.59657,3.64455 -0.4138,0.33761 -0.43285,0.35031 -0.87771,0.66111 -0.74824,0.52281 -0.62759,1.79387 0.009,2.42605 1.11796,1.10878 1.42346,1.23014 2.93088,1.99284 0.0857,0.0438 0.22966,0.1016 0.32279,0.13335 0.74683,0.25965 1.79811,0.30515 2.02248,-0.0942 0.35736,-0.63606 0.36653,-1.13136 0.21731,-1.84891 -0.2727,-1.31304 -1.1624,-2.31457 -2.46556,-2.9143 0.13052,-0.14146 0.25258,-0.26564 0.36547,-0.39722 0.78564,-0.90558 1.63125,-1.76848 2.33786,-2.73262"
       style="fill:#ffffff;fill-opacity:1;fill-rule:nonzero;stroke:none;stroke-width:0.35277775"
       id="path14276"
       inkscape:connector-curvature="0" />
    <path
       d="m -334.27479,136.39569 c 0.38841,0.007 0.72602,0.0194 1.26894,0.0709 1.31269,0.12594 1.93499,0.35207 2.25495,0.44238 0.65794,0.18627 1.20862,0.42157 1.68381,0.96838 0.29246,0.33831 -0.11218,0.96837 -0.70273,1.11301 -0.99342,0.24518 -3.0607,0.30868 -4.07211,0.25471 -0.36337,-0.0183 -0.72567,-0.055 -1.08727,-0.11465 -0.43074,-0.0709 -0.88088,-0.19297 -1.28234,-0.36584 -0.55668,-0.24024 -0.27976,-0.70978 -0.12841,-1.00788 0.56585,-1.1049 0.89253,-2.29941 1.3536,-3.44311 0.70344,-1.74343 1.16135,-3.55953 1.34268,-5.42537 0.12312,-1.26789 0.17991,-2.54847 0.14852,-3.82658 -0.005,-0.15346 -0.0177,-0.30692 -0.0116,-0.46002 0.01,-0.26953 -0.0173,-0.57327 0.35066,-0.63889 0.381,-0.0674 0.67416,0.0801 0.83044,0.43569 0.0674,0.1524 0.10089,0.32949 0.10548,0.49671 0.0931,3.26002 -0.19474,6.46289 -1.40759,9.5324 -0.17991,0.45509 -0.47201,1.44004 -0.64699,1.96815"
       style="fill:#ffffff;fill-opacity:1;fill-rule:nonzero;stroke:none;stroke-width:0.35277775"
       id="path23704"
       inkscape:connector-curvature="0" />
    <path
       d="m -321.75771,137.76959 c -0.40146,-0.49812 -0.87912,-0.72636 -1.45133,-0.91299 -0.29033,-0.0945 -0.83396,-0.28857 -1.8542,-0.46143 -0.44344,-0.0751 -0.92039,-0.0981 -1.3028,-0.11818 -0.36725,-0.0183 -0.53058,-0.0332 -0.53058,-0.0339 -0.33197,-0.007 -0.36336,-0.32597 -0.35313,-0.52741 0.031,-0.59302 0.0452,-1.18745 0.0667,-1.78153 0.0808,-1.9505 0.019,-3.89572 -0.3422,-5.81906 -0.19931,-1.06434 -0.48471,-2.10433 -1.12218,-3.01132 -0.19368,-0.27516 -0.62689,-0.36724 -0.92887,-0.17321 -0.32984,0.21237 -0.14005,0.44097 -0.0152,0.66534 0.17075,0.3055 0.31891,0.62054 0.44203,0.95038 0.58949,1.57657 0.74578,3.23003 0.78776,4.88386 0.0497,1.94662 0.0377,3.90207 -0.22014,5.83388 -0.0674,0.50765 -0.0469,0.74719 0.25295,0.96944 0.19614,0.16439 0.77928,0.33972 1.26365,0.46919 0.26564,0.0699 0.54292,0.11289 0.81315,0.14111 0.95497,0.1009 1.92934,0.0759 2.88995,0.0145 0.31856,-0.0201 0.62936,-0.0515 0.94051,-0.11571 0.53269,-0.11042 0.9144,-0.6611 0.66393,-0.97296"
       style="fill:#ffffff;fill-opacity:1;fill-rule:nonzero;stroke:none;stroke-width:0.35277775"
       id="path23708"
       inkscape:connector-curvature="0" />
    <path
       d="m -338.65763,109.13669 c 0.0198,-0.48683 -0.0695,-0.95461 -0.63712,-1.02129 -0.5588,-0.0656 -0.88547,0.28858 -0.9518,0.83221 -0.0889,0.73518 -0.0138,1.46685 0.19756,2.17346 0.11642,0.38911 0.30692,0.4639 0.63888,0.10301 0.55669,-0.60219 0.69427,-1.32186 0.75248,-2.08739 m -3.30165,0.65017 c 0.15593,-2.28741 0.76412,-4.46722 1.61396,-6.58672 0.3048,-0.75847 1.00541,-1.18851 1.57056,-1.71909 0.86854,-0.81491 1.88807,-1.43545 2.90548,-2.046458 0.12136,-0.073 0.25153,-0.1337 0.38206,-0.18874 0.41063,-0.17145 0.67204,-0.0614 0.89994,0.29246 0.25611,0.39758 -0.018,0.657578 -0.33091,0.877708 -1.0481,0.73836 -2.01789,1.58221 -3.04165,2.34809 -1.19027,0.889 -1.25871,2.22814 -1.65629,3.44277 -0.12947,0.39758 0.36371,0.36477 0.59866,0.41627 0.98743,0.21661 1.82704,0.66111 2.07222,1.71344 0.20108,0.86114 0.1584,1.76037 -0.18697,2.5908 -0.32385,0.77647 -0.85584,1.43052 -1.51236,1.9558 -0.83467,0.66852 -2.37102,0.29316 -2.89102,-0.6611 -0.41733,-0.76694 -0.4191,-1.59385 -0.42368,-2.43523"
       style="fill:#ffffff;fill-opacity:1;fill-rule:nonzero;stroke:none;stroke-width:0.35277775"
       id="path23712"
       inkscape:connector-curvature="0" />
    <path
       d="m -327.21716,87.826722 c 0,1.91206 -1.56492,3.47698 -3.47697,3.47698 h -2.12443 c -1.91241,0 -3.47733,-1.56492 -3.47733,-3.47698 v -2.12513 c 0,-1.91241 1.56492,-3.47698 3.47733,-3.47698 h 2.12443 c 1.91205,0 3.47697,1.56457 3.47697,3.47698 z m 2.96298,39.910818 h -16.2313 c -1.10349,0 -1.96286,-0.85761 -1.96286,-1.96251 v -2.57598 c 0,-1.10455 0.85937,-1.96321 1.96286,-1.96321 h 6.1528 v -19.5058 h -6.1528 c -1.04211,0 -1.96286,-0.91933 -1.96286,-1.962148 v -2.63771 c 0,-1.04282 0.92075,-1.90183 1.96286,-1.90183 h 10.69164 c 1.04245,0 1.9632,0.85901 1.9632,1.90183 v 24.105658 h 3.57646 c 1.04246,0 1.90183,0.85866 1.90183,1.96321 v 2.57598 c 0,1.1049 -0.85937,1.96251 -1.90183,1.96251"
       style="fill:#d5cfc8;fill-opacity:1;fill-rule:nonzero;stroke:none;stroke-width:0.35277775"
       id="path23716"
       inkscape:connector-curvature="0" />
    <path
       d="m -321.44733,88.116112 c 0.115,-0.64488 -0.0628,-0.73519 -0.4371,-0.58985 -0.3757,0.14535 -0.64346,0.38065 -0.76588,0.77717 -0.27093,0.87595 -0.34113,1.76671 -0.1651,2.66347 0.0505,0.25577 0.0155,0.68369 0.34643,0.69709 0.27482,0.0109 0.39723,-0.38347 0.49742,-0.635 0.39758,-1.00436 0.3048,-2.1015 0.52423,-2.91288 m 1.97767,-0.49601 c -0.31362,2.07222 -0.40182,4.17301 -1.90677,5.9182 -0.71649,0.83114 -1.05762,2.0006 -1.50142,3.04588 -0.27658,0.65158 -0.68545,1.13771 -1.30669,1.4351 -1.53952,0.7359 -3.06387,1.50848 -4.67324,2.088088 -0.38206,0.13865 -0.768,0.23107 -1.18252,0.19721 -0.41733,-0.0328 -0.66322,-0.24448 -0.72778,-0.645228 -0.0642,-0.40252 0.1831,-0.60184 0.5267,-0.73202 1.43792,-0.54751 2.86068,-1.13206 4.27602,-1.73672 0.75036,-0.32068 1.26577,-0.75565 1.52929,-1.54023 0.18027,-0.53411 0.45544,-1.04034 0.72214,-1.54093 0.2226,-0.41875 0.12735,-0.72673 -0.14923,-1.09538 -1.23472,-1.64712 -1.27599,-4.25097 -0.13052,-5.88468 0.871,-1.24284 2.67723,-1.61925 3.93947,-0.80787 0.46319,0.29881 0.60677,0.76835 0.58455,1.29858"
       style="fill:#ffffff;fill-opacity:1;fill-rule:nonzero;stroke:none;stroke-width:0.35277775"
       id="path23720"
       inkscape:connector-curvature="0" />
    <path
       d="m -313.3975,80.887272 c -0.0607,0.21942 -0.18909,0.38664 -0.38453,0.51082 -1.10349,0.70026 -2.09233,1.54375 -3.07516,2.4003 -0.23143,0.20214 -0.48225,0.48577 -0.8248,0.14499 -0.31574,-0.31468 -0.32773,-0.73025 0.0141,-1.06221 0.9712,-0.94404 2.0006,-1.81752 3.20393,-2.46345 0.23389,-0.12665 0.47131,-0.18803 0.72884,-0.0868 0.25082,0.0991 0.37359,0.27905 0.33761,0.55634"
       style="fill:#ffffff;fill-opacity:1;fill-rule:nonzero;stroke:none;stroke-width:0.35277775"
       id="path23724"
       inkscape:connector-curvature="0" />
    <path
       d="m -318.35672,79.130962 c -0.25012,1.25695 -0.1337,2.63384 -0.57679,3.92995 -0.11218,0.32843 -0.26423,0.66851 -0.71508,0.51223 -0.40217,-0.139 -0.58314,-0.40323 -0.4512,-0.86537 0.30515,-1.07667 0.34113,-2.19533 0.46672,-3.29953 0.0293,-0.25752 0.0804,-0.50306 0.25506,-0.69991 0.18027,-0.20214 0.41134,-0.3115 0.68086,-0.21837 0.26282,0.0907 0.32068,0.32456 0.34043,0.641"
       style="fill:#ffffff;fill-opacity:1;fill-rule:nonzero;stroke:none;stroke-width:0.35277775"
       id="path23728"
       inkscape:connector-curvature="0" />
    <path
       d="m -324.25784,80.939622 c 0.20355,-0.067 0.45473,0.067 0.67909,0.20637 0.71826,0.4445 1.39771,0.94615 2.01895,1.52189 0.10971,0.1016 0.24553,0.20531 0.22437,0.37712 -0.0275,0.22824 0.0554,0.52211 -0.16898,0.65898 -0.26953,0.16228 -0.60149,0.0639 -0.8061,-0.11959 -0.73237,-0.65969 -1.55787,-1.18992 -2.33856,-1.78082 -0.14923,-0.11254 -0.22508,-0.26635 -0.18063,-0.44274 0.061,-0.23988 0.26247,-0.3369 0.57186,-0.42121"
       style="fill:#ffffff;fill-opacity:1;fill-rule:nonzero;stroke:none;stroke-width:0.35277775"
       id="path23732"
       inkscape:connector-curvature="0" />
    <path
       d="m -303.25825,136.23067 c 0.002,-1.22872 -0.0815,-2.67441 -0.0864,-3.90278 -0.006,-1.39841 -0.0522,-4.1028 -0.0332,-5.50051 0.006,-0.42968 -0.006,-0.88371 0.0917,-1.30775 0.0201,-0.0864 0.17322,-0.60537 0.60467,-0.60537 0.65969,0 0.66392,1.05199 0.6798,1.20439 0.0314,0.31468 0.0279,0.63465 0.0409,0.94474 0.0854,2.04964 0.10689,5.34952 0.19791,7.3981 0.0346,0.76906 0.078,1.54235 0.16122,2.30964 0.0515,0.46707 0.0639,0.9398 0.0759,1.41005 0.008,0.31538 -0.0462,0.69144 -0.90453,0.70943 -1.58926,0.0335 -3.3281,0.0374 -4.91737,0.0332 -0.23953,-0.001 -0.6424,-0.0346 -0.68121,-0.22825 -0.0102,-0.27552 0.0706,-0.62124 0.248,-0.82303 0.78352,-1.13171 1.70568,-1.45133 3.03918,-1.62066 0.40288,-0.0519 1.04775,-0.061 1.48343,-0.0212"
       style="fill:#ffffff;fill-opacity:1;fill-rule:nonzero;stroke:none;stroke-width:0.35277775"
       id="path23736"
       inkscape:connector-curvature="0" />
    <path
       d="m -310.75238,135.83689 c -0.004,-0.65264 -0.0286,-1.29222 -0.008,-1.92652 0.037,-1.1497 -0.043,-3.74297 0.037,-4.88668 0.073,-1.04633 -0.0367,-2.36466 0.0988,-3.40113 0.0353,-0.26705 -0.0335,-0.7059 0.40781,-0.70837 0.41381,-0.003 0.66463,0.39511 0.70661,0.68474 0.0716,0.49424 0.18733,1.31021 0.17674,1.80516 -0.0222,1.10772 -0.0215,3.49779 0.005,4.60657 0.0494,1.98932 0.17145,3.98322 0.25542,5.9743 0.0268,0.64805 -0.006,0.61983 -0.66111,0.64311 -0.99589,0.0356 -2.03658,0.0307 -3.03283,0.0684 -0.71049,0.0282 -1.42628,0.0526 -2.13889,-0.0272 -0.4759,-0.0536 -0.49565,-0.30127 -0.32244,-0.71755 0.42474,-1.01917 1.07456,-1.50106 1.96744,-1.76671 0.99413,-0.29633 2.03694,-0.31538 2.50825,-0.34819"
       style="fill:#ffffff;fill-opacity:1;fill-rule:nonzero;stroke:none;stroke-width:0.35277775"
       id="path23740"
       inkscape:connector-curvature="0" />
    <path
       d="m -316.41609,90.161792 c -0.0444,-0.98848 -0.33337,-1.88771 -0.98178,-2.65183 -0.1016,-0.121 -0.23389,-0.25223 -0.39617,-0.19932 -0.2159,0.0702 -0.0988,0.25471 -0.0801,0.40111 0.133,1.00013 0.30904,1.99037 0.68369,2.93264 0.0921,0.23213 0.0892,0.63994 0.42016,0.58209 0.30374,-0.054 0.33231,-0.43463 0.35313,-0.7292 0.007,-0.11147 0.001,-0.22401 0.001,-0.33549 m 1.84538,-0.12841 c 0.0444,0.92816 -0.30974,1.7212 -0.80927,2.45498 -0.2092,0.30762 -0.26212,0.58914 -0.15099,0.94015 0.38452,1.21744 0.73836,2.44475 1.12465,3.66148 0.35772,1.12537 1.12078,1.91241 2.13325,2.4892 0.8569,0.489308 1.03081,0.823038 0.74224,1.324328 -0.29386,0.51047 -0.66922,0.53552 -1.5113,0.10196 -1.02199,-0.526 -2.06869,-1.049168 -2.59644,-2.141718 -0.43709,-0.90593 -0.76235,-1.86372 -1.02553,-2.83986 -0.20461,-0.7553 -0.42157,-1.50812 -0.63782,-2.26166 -0.13017,-0.45155 -0.3242,-0.82409 -0.72778,-1.14935 -0.67804,-0.54575 -0.82867,-1.4231 -1.01459,-2.2232 -0.24659,-1.06645 -0.41733,-2.15124 -0.58384,-3.23462 -0.13618,-0.87454 0.96414,-1.73567 2.01189,-1.5808 0.39899,0.0582 0.79657,0.18486 1.09961,0.46673 1.16134,1.07985 1.84749,2.39677 1.94592,3.99238"
       style="fill:#ffffff;fill-opacity:1;fill-rule:nonzero;stroke:none;stroke-width:0.35277775"
       id="path23744"
       inkscape:connector-curvature="0" />
    <path
       d="m -306.31543,96.086692 c -4.04953,0 -6.74723,-1.84008 -6.74723,-5.82683 0,-3.98709 2.6977,-5.82683 6.74723,-5.82683 4.04777,0 6.74758,1.83974 6.74758,5.82683 0,3.98675 -2.69981,5.82683 -6.74758,5.82683"
       style="fill:#ff2600;fill-opacity:1;fill-rule:nonzero;stroke:none;stroke-width:0.35277775"
       id="path23748"
       inkscape:connector-curvature="0" />
    <path
       d="M -312.20378,127.73818 V 99.829222 l 11.71539,-1.41076 v 29.319718 z"
       style="fill:#ff2600;fill-opacity:1;fill-rule:nonzero;stroke:none;stroke-width:0.35277775"
       id="path23752"
       inkscape:connector-curvature="0" />
    <path
       d="m -296.18376,114.48142 c 0.35595,-1.03928 0.65898,-2.07504 0.34537,-3.17782 -0.10407,-0.36371 -0.16616,-0.81456 -0.67064,-0.77259 -0.51928,0.0423 -0.56021,0.49072 -0.59584,0.90488 -0.0977,1.12042 0.39582,2.07257 0.92111,3.04553 m -7.21678,-13.07748 c 2.97392,-0.0275 6.55214,1.76177 7.74982,5.82896 0.15769,0.53481 0.43674,1.03575 0.45227,1.61219 0.007,0.24553 0.18132,0.40111 0.33796,0.56197 0.67274,0.69286 0.99306,1.52436 1.00753,2.4892 0.0152,1.01848 -0.0892,2.01789 -0.44662,2.97463 -0.26917,0.72037 -0.68932,1.42663 -1.49825,1.47179 -0.84737,0.048 -1.6263,-0.35737 -2.08491,-1.13277 -0.73449,-1.2379 -1.16699,-2.57528 -1.02835,-4.03507 0.0847,-0.88795 0.48789,-1.62278 1.29081,-2.08704 0.26,-0.15028 0.47625,-0.2727 0.35349,-0.6731 -0.68086,-2.19604 -1.68416,-4.1007 -4.02379,-4.96712 -0.84455,-0.31256 -1.69439,-0.38523 -2.57245,-0.36865 -0.22084,0.004 -0.46249,0.0868 -0.65617,-0.054 -0.35242,-0.25576 -0.83925,-0.46178 -0.70626,-1.02411 0.12242,-0.51541 0.58738,-0.55986 1.01777,-0.59337 0.26775,-0.0201 0.53798,-0.004 0.80715,-0.004"
       style="fill:#ffffff;fill-opacity:1;fill-rule:nonzero;stroke:none;stroke-width:0.35277775"
       id="path23756"
       inkscape:connector-curvature="0" />
    <path
       d="m -112.97601,103.30449 c -0.31538,0.17992 -0.44624,0.0677 -0.46741,-0.21307 -0.0148,-0.2085 -0.0388,-0.39935 -0.014,-0.59302 0.0311,-0.43216 0.003,-0.86043 0.30234,-1.21532 0.1411,-0.16934 0.32067,-0.32844 0.58385,-0.27058 0.24448,0.054 0.37148,0.22789 0.43921,0.44379 0.19156,0.61877 -0.21661,1.48908 -0.84386,1.8482 m 1.96956,-2.21862 c -0.38381,-0.81103 -1.01706,-1.331028 -1.85314,-1.407928 -0.73555,-0.002 -1.35573,0.451548 -1.58502,1.062558 -0.25437,0.67804 -0.35454,1.39136 -0.23884,2.11103 0,0 0.0956,0.45684 0.10372,0.48154 0.004,0.0106 0.0314,0.10301 0.0314,0.10301 -1.21217,1.11125 -1.83235,1.40511 -2.12196,1.52611 -0.20886,0.0885 -0.46638,-0.0624 -0.5193,-0.0924 -0.0469,-0.0265 -0.10829,-0.0759 -0.15346,-0.11289 -1.10985,-0.89041 -2.1209,-1.88489 -3.08644,-2.92523 -0.53658,-0.5775 -1.04563,-1.18252 -1.5861,-1.75648 -0.30128,-0.321028 -0.69461,-0.438148 -1.06011,-0.142528 -0.38486,0.313268 -0.14144,0.661458 0.0783,0.947558 0.31822,0.41134 0.68546,0.78388 1.00791,1.19204 1.14194,1.44533 2.43908,2.7559 3.92006,3.82659 0.10335,0.0751 0.19791,0.14323 0.28715,0.20743 0.0607,0.0444 0.19685,0.1397 0.23424,0.16475 0.21979,0.14076 1.0287,0.55951 1.98157,-0.18591 0.0303,-0.0226 0.1605,-0.1196 0.20143,-0.15381 0.0688,-0.0579 1.62594,-1.27248 1.70603,-1.26578 0.24164,0.0201 0.89077,-0.17286 1.19168,-0.31009 0.45369,-0.22754 0.85302,-0.5461 1.1811,-0.97649 0.51681,-0.67804 0.63395,-1.54235 0.27975,-2.29306"
       style="fill:#ffffff;fill-opacity:1;fill-rule:nonzero;stroke:none;stroke-width:0.35277775"
       id="path26116"
       inkscape:connector-curvature="0" />
    <path
       d="m -120.96275,135.1186 c 0.2667,-0.10372 0.44734,-0.19367 0.66429,-0.2861 0.31327,-0.13194 0.62336,-0.22719 0.93062,-0.28716 1.11019,-0.21661 2.18583,0.025 3.22898,0.59866 0.31115,0.1711 0.24024,0.48048 0.005,0.69003 -0.47274,0.42369 -1.05762,0.64735 -1.65029,0.84702 -0.99555,0.33373 -1.97556,0.70873 -2.92277,1.16382 -0.31081,0.14852 -0.67382,0.32773 -0.9398,0.10971 -0.32102,-0.26282 -0.49284,-0.60854 -0.4953,-1.13206 -0.004,-1.28411 0.0589,-2.57563 -0.0928,-3.85904 -0.23847,-1.9999 -0.50517,-3.99239 -1.19486,-5.90338 -0.20706,-0.57115 -0.35594,-1.16558 -0.50483,-1.75613 -0.0398,-0.16157 -0.0984,-0.41945 0.0984,-0.49459 0.17605,-0.067 0.38912,0.0483 0.53835,0.1905 0.36936,0.35171 0.50305,0.83679 0.66392,1.28975 1.01319,2.85397 1.65031,5.78379 1.6711,8.82897"
       style="fill:#ffffff;fill-opacity:1;fill-rule:nonzero;stroke:none;stroke-width:0.35277775"
       id="path26120"
       inkscape:connector-curvature="0" />
    <path
       d="m -122.09275,89.378732 c -0.90451,0.90417 -1.99319,1.35467 -3.26496,1.35467 -1.27281,0 -2.36149,-0.4505 -3.2639,-1.35467 -0.9031,-0.90276 -1.35501,-1.99072 -1.35501,-3.2639 0,-1.27212 0.45191,-2.36114 1.35501,-3.26355 0.90241,-0.90275 1.99109,-1.35537 3.2639,-1.35537 1.27177,0 2.36045,0.45262 3.26496,1.35537 0.90135,0.90241 1.35432,1.99143 1.35432,3.26355 0,1.27318 -0.45297,2.36114 -1.35432,3.2639 m 5.88047,40.368368 c -0.3909,0.39123 -0.87278,0.58561 -1.44675,0.58561 h -12.81006 c -0.57505,0 -1.05765,-0.19438 -1.44746,-0.58561 -0.38981,-0.38982 -0.58454,-0.87207 -0.58454,-1.44709 0,-0.57433 0.19473,-1.05622 0.58454,-1.4478 0.38981,-0.38982 0.8509,-0.58491 1.38607,-0.58491 h 4.43299 v -25.61908 h -4.3716 c -0.57505,0 -1.05765,-0.20461 -1.44746,-0.61595 -0.38981,-0.408868 -0.58454,-0.901698 -0.58454,-1.476728 0,-0.57538 0.19473,-1.04704 0.58454,-1.41746 0.38981,-0.36971 0.8509,-0.55386 1.38607,-0.55386 h 6.40398 c 0.53374,0 1.02587,0.22648 1.47918,0.67733 0.45051,0.45191 0.67733,0.9652 0.67733,1.53988 V 126.2673 h 4.31096 c 0.57397,0 1.05585,0.19509 1.44675,0.58491 0.38909,0.39158 0.58525,0.87347 0.58525,1.4478 0,0.57502 -0.19616,1.05727 -0.58525,1.44709"
       style="fill:#bcb5af;fill-opacity:1;fill-rule:nonzero;stroke:none;stroke-width:0.35277775"
       id="path26124"
       inkscape:connector-curvature="0" />
    <path
       d="m -131.03001,133.26342 c -0.23177,1.04705 -1.016,1.97344 -1.81221,2.53295 -0.65511,0.46073 -1.12712,0.71084 -1.87783,1.00824 -0.65017,0.25752 -1.54411,-0.11713 -1.45486,-0.69604 0.0699,-0.44979 1.40123,-2.76471 1.7667,-3.5126 0.28117,-0.57256 0.62479,-1.11055 0.89112,-1.6951 0.30729,-0.67486 0.77787,-0.70873 1.45486,-0.085 1.04386,0.96132 2.16993,1.81645 3.26954,2.7051 0.66429,0.53763 0.98954,0.46849 1.52014,-0.22648 1.01316,-1.32892 1.6637,-2.8 1.74693,-4.49298 0.0138,-0.28258 0.55812,-0.67628 0.8862,-0.63994 0.36123,0.0399 0.46389,0.32597 0.44979,0.61419 -0.1002,2.00236 -0.8862,3.72251 -2.18265,5.23169 -0.94544,1.09996 -2.35091,1.19415 -3.43358,0.19473 -0.36335,-0.33443 -0.78494,-0.6043 -1.22415,-0.93874"
       style="fill:#ffffff;fill-opacity:1;fill-rule:nonzero;stroke:none;stroke-width:0.35277775"
       id="path26128"
       inkscape:connector-curvature="0" />
    <path
       d="m -128.31353,110.26428 c -0.10652,0.30057 -0.73623,0.25188 -0.96626,0.20708 -0.43638,-0.0861 -0.83397,-0.39864 -1.1892,-0.92675 0,-0.009 0,-0.018 -0.003,-0.0264 -0.0241,-0.14112 -0.0346,-0.30692 0.11147,-0.39194 0.43357,-0.12418 0.91088,-0.10971 1.35855,0.1718 0.26247,0.1644 0.7733,0.72143 0.68721,0.96626 m 0.88476,-1.26012 c -0.27128,-0.39547 -0.5983,-0.7105 -0.99483,-0.9271 -0.76798,-0.41945 -1.43227,-0.46038 -1.59173,-0.46884 0,0 -0.41979,0.0293 -0.81527,0.15875 -0.16898,-0.22155 -0.31927,-0.42828 -0.44767,-0.61172 -0.39759,-0.56938 -0.74507,-1.20932 -0.78139,-1.28552 -0.2893,-0.58774 -0.60892,-1.16206 -0.86397,-1.7639 -0.35772,-0.83926 -0.11007,-1.4605 0.71966,-1.87149 1.0513,-0.5214 2.0306,-1.18463 3.14643,-1.58362 0.49778,-0.17886 0.9585,-0.45473 1.44534,-0.665688 0.31398,-0.13582 0.54292,-0.35172 0.45754,-0.68756 -0.0769,-0.30233 -0.38804,-0.3997 -0.68543,-0.40287 -0.34361,-0.003 -0.67416,0.078 -0.99272,0.22013 -1.67782,0.74965 -3.32671,1.558218 -4.94702,2.424988 -0.88299,0.47167 -1.20401,1.28376 -0.88053,2.23238 0.41063,1.20227 1.01883,2.31141 1.63372,3.41772 0,0 0.7098,1.17899 0.84349,1.36949 0.0744,0.1016 0.145,0.19826 0.21273,0.29245 0.0353,0.22754 0.10337,0.47343 0.17462,0.68192 0.10232,0.29809 0.2399,0.60572 0.40781,0.8763 0.27516,0.44344 0.54081,0.70802 0.86431,0.97437 0.33515,0.27587 0.73414,0.4632 1.22838,0.51929 0.75811,0.0878 1.47495,-8e-4 1.98014,-0.66393 0.58738,-0.77117 0.38524,-1.50883 -0.11361,-2.23555"
       style="fill:#ffffff;fill-opacity:1;fill-rule:nonzero;stroke:none;stroke-width:0.35277775"
       id="path26132"
       inkscape:connector-curvature="0" />
  </g>
</svg>
