<?xml version="1.0" encoding="UTF-8" standalone="no"?>
<!-- Created with Inkscape (http://www.inkscape.org/) -->

<svg
   xmlns:dc="http://purl.org/dc/elements/1.1/"
   xmlns:cc="http://creativecommons.org/ns#"
   xmlns:rdf="http://www.w3.org/1999/02/22-rdf-syntax-ns#"
   xmlns:svg="http://www.w3.org/2000/svg"
   xmlns="http://www.w3.org/2000/svg"
   xmlns:sodipodi="http://sodipodi.sourceforge.net/DTD/sodipodi-0.dtd"
   xmlns:inkscape="http://www.inkscape.org/namespaces/inkscape"
   width="115.61765mm"
   height="24.669081mm"
   viewBox="0 0 115.61765 24.669081"
   version="1.1"
   id="svg30751"
   inkscape:version="0.92.2 (5c3e80d, 2017-08-06)"
   sodipodi:docname="logo-tuiio.svg">
  <defs
     id="defs30745" />
  <sodipodi:namedview
     id="base"
     pagecolor="#ffffff"
     bordercolor="#666666"
     borderopacity="1.0"
     inkscape:pageopacity="0.0"
     inkscape:pageshadow="2"
     inkscape:zoom="0.35"
     inkscape:cx="519.91862"
     inkscape:cy="235.19016"
     inkscape:document-units="mm"
     inkscape:current-layer="layer1"
     showgrid="false"
     fit-margin-top="0"
     fit-margin-left="0"
     fit-margin-right="0"
     fit-margin-bottom="0"
     inkscape:window-width="1366"
     inkscape:window-height="705"
     inkscape:window-x="-8"
     inkscape:window-y="-8"
     inkscape:window-maximized="1" />
  <metadata
     id="metadata30748">
    <rdf:RDF>
      <cc:Work
         rdf:about="">
        <dc:format>image/svg+xml</dc:format>
        <dc:type
           rdf:resource="http://purl.org/dc/dcmitype/StillImage" />
        <dc:title></dc:title>
      </cc:Work>
    </rdf:RDF>
  </metadata>
  <g
     inkscape:label="Layer 1"
     inkscape:groupmode="layer"
     id="layer1"
     transform="translate(154.57073,-186.39165)">
    <path
       d="m -68.650721,187.45386 c -0.338315,-0.32984 -0.735894,-0.59266 -1.177925,-0.78069 -0.440973,-0.18662 -0.909815,-0.28152 -1.395942,-0.28152 -0.509058,0 -0.9906,0.0949 -1.429102,0.28152 -0.438856,0.18626 -0.820915,0.44802 -1.139473,0.77364 -0.320675,0.32738 -0.577143,0.72037 -0.763765,1.1624 -0.188735,0.44097 -0.28222,0.92005 -0.28222,1.42699 0,0.5087 0.09349,0.98954 0.28222,1.42628 0.186622,0.44591 0.44309,0.83784 0.763765,1.16487 0.318558,0.32561 0.69991,0.58737 1.139473,0.77152 0.859367,0.3683 1.928284,0.38418 2.825044,0.002 0.442031,-0.18838 0.83961,-0.4519 1.177925,-0.78175 0.336902,-0.32561 0.6096,-0.71826 0.80786,-1.16064 0.19544,-0.43709 0.295275,-0.91475 0.295275,-1.42205 0,-0.50553 -0.09983,-0.98389 -0.295275,-1.41887 -0.19826,-0.44415 -0.470958,-0.83326 -0.80786,-1.16346"
       style="fill:#ffffff;fill-opacity:1;fill-rule:nonzero;stroke:none;stroke-width:0.35277775"
       id="path26136"
       inkscape:connector-curvature="0" />
    <path
       d="m -74.203513,208.86998 c 0.125942,0.43462 0.345368,0.80539 0.651581,1.10102 0.307621,0.29845 0.734129,0.53128 1.264002,0.68827 1.011415,0.30198 2.548467,0.3489 4.499327,0.0367 0.777171,-0.12277 1.493663,-0.30762 2.134307,-0.54398 v -3.71017 h -2.079977 v -10.61473 h -8.193265 v 3.72145 h 1.521531 v 7.7156 c 0,0.60467 0.06844,1.14336 0.202494,1.60585"
       style="fill:#ffffff;fill-opacity:1;fill-rule:nonzero;stroke:none;stroke-width:0.35277775"
       id="path26140"
       inkscape:connector-curvature="0" />
    <path
       d="m -114.50495,211.06069 c -2.18546,0 -3.90419,-0.61841 -5.16467,-1.85525 -1.258,-1.2372 -1.89018,-2.92488 -1.89018,-5.06342 v -5.78344 h -3.07481 c -0.42193,0 -0.63394,-0.21237 -0.63394,-0.63465 v -2.77424 c 0,-0.4251 0.21201,-0.63465 0.63394,-0.63465 h 3.07481 v -4.24427 c 0,-0.42227 0.21308,-0.63676 0.63641,-0.63676 h 3.74509 c 0.42263,0 0.63288,0.21449 0.63288,0.63676 v 4.24427 h 5.24828 c 0.42474,0 0.6357,0.20955 0.6357,0.63465 v 2.77424 c 0,0.42228 -0.21096,0.63465 -0.6357,0.63465 h -5.24828 v 5.61657 c 0,0.84667 0.25118,1.51377 0.75389,2.0059 0.50129,0.48895 1.1751,0.73307 2.02283,0.73307 0.86712,0 1.70391,-0.0991 2.50613,-0.29916 0.42192,-0.0674 0.66816,0.10196 0.73519,0.50236 l 0.43462,2.87373 c 0.0215,0.35595 -0.14534,0.60043 -0.50165,0.73589 -1.42381,0.35631 -2.72733,0.53375 -3.91054,0.53375"
       style="fill:#ffffff;fill-opacity:1;fill-rule:nonzero;stroke:none;stroke-width:0.35277775"
       id="path26144"
       inkscape:connector-curvature="0" />
    <path
       d="m -86.997247,209.95759 c 0.02223,0.37959 -0.145344,0.61278 -0.501298,0.70168 -0.933802,0.26776 -1.783292,0.40146 -2.539294,0.40146 -2.162175,0 -3.655131,-0.64594 -4.47816,-1.93851 -1.404056,1.29257 -3.296708,1.93851 -5.681841,1.93851 -2.16253,0 -3.90631,-0.67239 -5.23099,-2.02389 -1.32821,-1.34549 -1.98966,-3.13372 -1.98966,-5.36398 v -8.72314 c 0,-0.42509 0.2099,-0.63464 0.63535,-0.63464 h 3.74403 c 0.42157,0 0.63359,0.20955 0.63359,0.63464 v 8.05604 c 0,1.13629 0.31926,2.04858 0.9525,2.73967 0.6357,0.6925 1.486956,1.03893 2.557638,1.03893 1.115129,0 2.005893,-0.33232 2.67476,-0.98813 0.667102,-0.65723 0.999773,-1.53247 0.999773,-2.6222 v -8.22431 c 0,-0.42509 0.213783,-0.63464 0.636058,-0.63464 h 3.777896 c 0.422275,0 0.634296,0.20955 0.634296,0.63464 v 10.49655 c 0,0.86819 0.369004,1.30316 1.104546,1.30316 0.402166,0 0.746831,-0.0353 1.035404,-0.0995 0.423685,-0.0462 0.670277,0.13441 0.734835,0.5334 z"
       style="fill:#ffffff;fill-opacity:1;fill-rule:nonzero;stroke:none;stroke-width:0.35277775"
       id="path26148"
       inkscape:connector-curvature="0" />
    <path
       d="m -84.116781,197.92216 c 0,-0.36654 0.300918,-0.635 0.635352,-0.635 h 3.677708 c 0.33514,0 0.634296,0.26846 0.634296,0.635 v 12.10133 c 0,0.33549 -0.299156,0.63571 -0.634296,0.63571 h -3.677708 c -0.334434,0 -0.635352,-0.30022 -0.635352,-0.63571 z m -0.200732,-7.31873 c 0,-1.47391 1.17193,-2.67617 2.642307,-2.67617 1.46826,0 2.67476,1.20226 2.67476,2.67617 0,1.47038 -1.2065,2.63807 -2.67476,2.63807 -1.470377,0 -2.642307,-1.16769 -2.642307,-2.63807"
       style="fill:#ffffff;fill-opacity:1;fill-rule:nonzero;stroke:none;stroke-width:0.35277775"
       id="path26152"
       inkscape:connector-curvature="0" />
    <path
       d="m -57.368041,205.69671 c 0.813152,0.81209 1.877131,1.22061 3.192286,1.22061 1.3141,0 2.37843,-0.40852 3.19193,-1.22061 0.81316,-0.81421 1.21956,-1.90112 1.21956,-3.26073 0,-1.35854 -0.4064,-2.45215 -1.21956,-3.27554 -0.8135,-0.82479 -1.87783,-1.23684 -3.19193,-1.23684 -1.315155,0 -2.379134,0.41205 -3.192286,1.23684 -0.815269,0.82339 -1.219907,1.917 -1.219907,3.27554 0,1.35961 0.404638,2.44652 1.219907,3.26073 m 9.859086,2.98944 c -1.6824,1.58327 -3.9042,2.37455 -6.6668,2.37455 -2.764013,0 -4.986161,-0.79128 -6.669263,-2.37455 -1.684163,-1.58292 -2.524832,-3.66501 -2.524832,-6.25017 0,-2.60596 0.840669,-4.70041 2.524832,-6.28403 1.683102,-1.58115 3.90525,-2.37348 6.669263,-2.37348 2.7626,0 4.9844,0.79233 6.6668,2.37348 1.68416,1.58362 2.52341,3.67807 2.52341,6.28403 0,2.58516 -0.83925,4.66725 -2.52341,6.25017"
       style="fill:#ffffff;fill-opacity:1;fill-rule:nonzero;stroke:none;stroke-width:0.35277775"
       id="path26156"
       inkscape:connector-curvature="0" />
    <path
       d="m -41.696985,195.94674 h 0.42722 c 0.23248,0 0.34854,-0.0956 0.34854,-0.28928 0,-0.0822 -0.0325,-0.14463 -0.0967,-0.1979 -0.0628,-0.0529 -0.14852,-0.0783 -0.25188,-0.0783 h -0.42722 z m -0.32279,0.97226 c -0.0914,0 -0.13723,-0.0469 -0.13723,-0.13794 v -1.67569 c 0,-0.0914 0.0459,-0.13688 0.13723,-0.13688 h 0.75001 c 0.24482,0 0.44344,0.0646 0.59548,0.19332 0.15311,0.127 0.23108,0.29563 0.23108,0.50271 0,0.2988 -0.14253,0.49636 -0.42334,0.59443 l 0.36583,0.4953 c 0.0311,0.0413 0.0388,0.0808 0.0243,0.1136 -0.0141,0.0346 -0.0526,0.0512 -0.10548,0.0512 h -0.25576 c -0.0755,0 -0.12841,-0.0282 -0.16581,-0.084 l -0.36618,-0.50342 h -0.32738 v 0.44944 c 0,0.091 -0.049,0.13794 -0.13793,0.13794 z m -0.63994,0.2801 c 0.35348,0.33091 0.77788,0.49848 1.27247,0.49848 0.4946,0 0.91758,-0.16757 1.27212,-0.49848 0.35348,-0.33408 0.53022,-0.7313 0.53022,-1.19591 0,-0.46355 -0.17674,-0.86184 -0.53022,-1.18992 -0.35454,-0.32985 -0.77752,-0.49424 -1.27212,-0.49424 -0.49459,0 -0.91899,0.16439 -1.27247,0.49424 -0.35524,0.32808 -0.53022,0.72637 -0.53022,1.18992 0,0.46461 0.17498,0.86183 0.53022,1.19591 m 3.00249,0.38771 c -0.47096,0.43285 -1.04669,0.64875 -1.73002,0.64875 -0.68439,0 -1.26012,-0.2159 -1.73179,-0.64875 -0.46778,-0.43357 -0.70308,-0.96132 -0.70308,-1.58362 0,-0.61595 0.2353,-1.14053 0.70308,-1.57374 0.47167,-0.43392 1.0474,-0.64982 1.73179,-0.64982 0.68333,0 1.25906,0.2159 1.73002,0.64982 0.46849,0.43321 0.70415,0.95779 0.70415,1.57374 0,0.6223 -0.23566,1.15005 -0.70415,1.58362"
       style="fill:#ffffff;fill-opacity:1;fill-rule:nonzero;stroke:none;stroke-width:0.35277775"
       id="path26160"
       inkscape:connector-curvature="0" />
    <path
       d="m -151.51321,209.87317 1.5875,-3.37044 c 1.01741,0.9204 2.23238,1.64042 3.64561,2.159 1.41322,0.51965 2.7559,0.77859 4.02766,0.77859 1.01741,0 1.82951,-0.18451 2.43734,-0.55598 0.60784,-0.37077 0.91158,-0.92746 0.91158,-1.66935 0,-0.83044 -0.35384,-1.45309 -1.05975,-1.86972 -0.70696,-0.41522 -1.85137,-0.87454 -3.43393,-1.37971 -1.52577,-0.47449 -2.77002,-0.94192 -3.73028,-1.40229 -0.96132,-0.45967 -1.79564,-1.15747 -2.50154,-2.09162 -0.70662,-0.93522 -1.0601,-2.15936 -1.0601,-3.67277 0,-1.95086 0.56515,-3.51508 1.69086,-4.69583 -0.82761,0.44485 -1.58609,0.9906 -2.27506,1.63795 -2.19886,2.06728 -3.29741,4.80377 -3.29741,8.20702 0,3.24944 1.02093,5.88857 3.05752,7.92515"
       style="fill:#ed3424;fill-opacity:1;fill-rule:nonzero;stroke:none;stroke-width:0.35277775"
       id="path26164"
       inkscape:connector-curvature="0" />
    <path
       d="m -133.85569,193.74082 c -0.16722,-0.15698 -0.33973,-0.30621 -0.51471,-0.4512 l -1.43827,3.01943 c -1.10208,-0.68228 -2.24049,-1.21603 -3.41242,-1.60267 -1.17334,-0.38488 -2.2546,-0.57785 -3.24309,-0.57785 -0.93309,0 -1.67499,0.17074 -2.22602,0.51152 -0.55069,0.34149 -0.82656,0.86784 -0.82656,1.5801 0,0.74224 0.34607,1.31303 1.03893,1.71379 0.69215,0.4004 1.78682,0.82338 3.28542,1.26824 1.58221,0.50517 2.88254,1.00189 3.89996,1.49154 1.01776,0.48966 1.90076,1.21708 2.65006,2.18123 0.74824,0.96449 1.12289,2.23343 1.12289,3.80611 0,1.76777 -0.496,3.22228 -1.48554,4.36775 0.40216,-0.2854 0.78634,-0.59655 1.14935,-0.93804 2.19921,-2.06728 3.29635,-4.78649 3.29635,-8.16257 0,-3.4036 -1.09714,-6.1401 -3.29635,-8.20738"
       style="fill:#ed3424;fill-opacity:1;fill-rule:nonzero;stroke:none;stroke-width:0.35277775"
       id="path26168"
       inkscape:connector-curvature="0" />
  </g>
</svg>
