<?xml version="1.0" encoding="UTF-8" standalone="no"?>
<!-- Generated by IcoMoon.io -->

<svg
   xmlns:dc="http://purl.org/dc/elements/1.1/"
   xmlns:cc="http://creativecommons.org/ns#"
   xmlns:rdf="http://www.w3.org/1999/02/22-rdf-syntax-ns#"
   xmlns:svg="http://www.w3.org/2000/svg"
   xmlns="http://www.w3.org/2000/svg"
   xmlns:sodipodi="http://sodipodi.sourceforge.net/DTD/sodipodi-0.dtd"
   xmlns:inkscape="http://www.inkscape.org/namespaces/inkscape"
   version="1.1"
   width="24"
   height="24"
   viewBox="0 0 24 24"
   id="svg2"
   inkscape:version="0.91 r13725"
   sodipodi:docname="star.svg">
  <metadata
     id="metadata12">
    <rdf:RDF>
      <cc:Work
         rdf:about="">
        <dc:format>image/svg+xml</dc:format>
        <dc:type
           rdf:resource="http://purl.org/dc/dcmitype/StillImage" />
      </cc:Work>
    </rdf:RDF>
  </metadata>
  <defs
     id="defs10" />
  <sodipodi:namedview
     pagecolor="#ffffff"
     bordercolor="#666666"
     borderopacity="1"
     objecttolerance="10"
     gridtolerance="10"
     guidetolerance="10"
     inkscape:pageopacity="0"
     inkscape:pageshadow="2"
     inkscape:window-width="1366"
     inkscape:window-height="705"
     id="namedview8"
     showgrid="true"
     inkscape:zoom="19.666667"
     inkscape:cx="13.028556"
     inkscape:cy="12"
     inkscape:window-x="-8"
     inkscape:window-y="-8"
     inkscape:window-maximized="1"
     inkscape:current-layer="svg2">
    <inkscape:grid
       type="xygrid"
       id="grid4134" />
  </sodipodi:namedview>
  <title
     id="title4">star</title>
  <path
     stroke-miterlimit="4"
     d="m 17.619609,20.898167 c -0.506036,0.390374 -4.945682,-3.032547 -5.573961,-3.027785 -0.627332,0 -5.0281255,3.482904 -5.5379504,3.099194 C 5.9978726,20.585867 7.7291927,15.09872 7.5311381,14.474119 7.3330834,13.84952 2.8195215,10.535143 3.0099952,9.9076852 3.2004688,9.2802291 8.7109375,9.3116496 9.2160243,8.9212746 9.7211114,8.5308998 11.332083,3.003763 11.959413,2.9999544 c 0.627331,0 2.301794,5.5023813 2.812567,5.8860913 0.510772,0.3837099 6.019346,0.2818316 6.217401,0.9073835 0.198054,0.6255528 -4.277603,3.9961068 -4.468077,4.6235628 -0.190474,0.627456 1.604339,6.091752 1.098305,6.482126 z"
     id="path6"
     style="fill:none;stroke:#000000;stroke-width:1.99990928;stroke-linecap:round;stroke-linejoin:round;stroke-miterlimit:4;stroke-dasharray:none"
     inkscape:connector-curvature="0" />
</svg>
