<?xml version="1.0" encoding="UTF-8" standalone="no"?>
<!-- Created with Inkscape (http://www.inkscape.org/) -->

<svg
   xmlns:dc="http://purl.org/dc/elements/1.1/"
   xmlns:cc="http://creativecommons.org/ns#"
   xmlns:rdf="http://www.w3.org/1999/02/22-rdf-syntax-ns#"
   xmlns:svg="http://www.w3.org/2000/svg"
   xmlns="http://www.w3.org/2000/svg"
   xmlns:sodipodi="http://sodipodi.sourceforge.net/DTD/sodipodi-0.dtd"
   xmlns:inkscape="http://www.inkscape.org/namespaces/inkscape"
   width="76.000114mm"
   height="22.052034mm"
   viewBox="0 0 269.29174 78.137129"
   id="svg5118"
   version="1.1"
   inkscape:version="0.91 r13725"
   sodipodi:docname="logo_cobis_2017.svg">
  <defs
     id="defs5120" />
  <sodipodi:namedview
     id="base"
     pagecolor="#ffffff"
     bordercolor="#666666"
     borderopacity="1.0"
     inkscape:pageopacity="0.0"
     inkscape:pageshadow="2"
     inkscape:zoom="0.35"
     inkscape:cx="622.50302"
     inkscape:cy="-266.64572"
     inkscape:document-units="px"
     inkscape:current-layer="layer1"
     showgrid="false"
     fit-margin-top="0"
     fit-margin-left="0"
     fit-margin-right="0"
     fit-margin-bottom="0"
     inkscape:window-width="1366"
     inkscape:window-height="705"
     inkscape:window-x="-8"
     inkscape:window-y="-8"
     inkscape:window-maximized="1" />
  <metadata
     id="metadata5123">
    <rdf:RDF>
      <cc:Work
         rdf:about="">
        <dc:format>image/svg+xml</dc:format>
        <dc:type
           rdf:resource="http://purl.org/dc/dcmitype/StillImage" />
        <dc:title></dc:title>
      </cc:Work>
    </rdf:RDF>
  </metadata>
  <g
     inkscape:label="Layer 1"
     inkscape:groupmode="layer"
     id="layer1"
     transform="translate(748.93159,-187.57935)">
    <g
       id="g82"
       transform="matrix(1.25,0,0,-1.25,-705.26022,220.76123)">
      <path
         d="m 0,0 -0.978,0.745 8.42,15.578 6.868,4.251 3.166,-3.253 L 13.369,10.333 0,0 Z"
         style="fill:#596164;fill-opacity:1;fill-rule:nonzero;stroke:none"
         id="path84"
         inkscape:connector-curvature="0" />
    </g>
    <g
       id="g86"
       transform="matrix(1.25,0,0,-1.25,-703.46497,223.08385)">
      <path
         d="m 0,0 -0.85,1.271 11.035,8.643 3.039,0.379 2.188,-3.8 L 12.847,4.066 0,0 Z"
         style="fill:#596164;fill-opacity:1;fill-rule:nonzero;stroke:none"
         id="path88"
         inkscape:connector-curvature="0" />
    </g>
    <g
       id="g90"
       transform="matrix(1.25,0,0,-1.25,-707.21547,187.57935)">
      <path
         d="m 0,0 -1.867,-7.157 -1.102,-18.066 0.194,-6.197 2.506,5.703 8.05,16.205 0.312,8.064 L 0,0 Z"
         style="fill:#596164;fill-opacity:1;fill-rule:nonzero;stroke:none"
         id="path92"
         inkscape:connector-curvature="0" />
    </g>
    <g
       id="g94"
       transform="matrix(1.25,0,0,-1.25,-725.35821,198.46123)">
      <path
         d="m 0,0 -0.306,6.034 8.78,1.76 1.34,-6.3 1.301,-17.696 -2.07,-0.562 L 0,0 Z"
         style="fill:#596164;fill-opacity:1;fill-rule:nonzero;stroke:none"
         id="path96"
         inkscape:connector-curvature="0" />
    </g>
    <g
       id="g98"
       transform="matrix(1.25,0,0,-1.25,-714.51609,219.65498)">
      <path
         d="m 0,0 -1.737,-1.356 -12.82,6.852 -3.054,5.656 5.727,3.743 4.093,-4.269 L 0,0 Z"
         style="fill:#596164;fill-opacity:1;fill-rule:nonzero;stroke:none"
         id="path100"
         inkscape:connector-curvature="0" />
    </g>
    <g
       id="g102"
       transform="matrix(1.25,0,0,-1.25,-748.93159,220.89848)">
      <path
         d="m 0,0 5.947,-3.434 18.456,0.732 1,1.877 L 9.324,6.854 3.511,8.631 0,0 Z"
         style="fill:#596164;fill-opacity:1;fill-rule:nonzero;stroke:none"
         id="path104"
         inkscape:connector-curvature="0" />
    </g>
    <g
       id="g106"
       transform="matrix(1.25,0,0,-1.25,-710.68409,226.8616)">
      <path
         d="m 0,0 -7.12,1.076 -16.581,-1.073 -6.526,-1.188 1.081,-10.011 8.022,-1.317 L -6.098,-1.328 0,0 Z"
         style="fill:#333332;fill-opacity:1;fill-rule:nonzero;stroke:none"
         id="path108"
         inkscape:connector-curvature="0" />
    </g>
    <g
       id="g110"
       transform="matrix(1.25,0,0,-1.25,-729.72109,255.33023)">
      <path
         d="m 0,0 -1.989,-4.502 6.721,-3.807 4.13,4.426 5.281,20.208 L 11.82,17.237 0,0 Z"
         style="fill:#596164;fill-opacity:1;fill-rule:nonzero;stroke:none"
         id="path112"
         inkscape:connector-curvature="0" />
    </g>
    <g
       id="g114"
       transform="matrix(1.25,0,0,-1.25,-709.04409,234.87685)">
      <path
         d="m 0,0 2.721,-17.554 -0.156,-4.889 -7.367,0.401 -0.909,4.495 3.969,17.426 L 0,0 Z"
         style="fill:#596164;fill-opacity:1;fill-rule:nonzero;stroke:none"
         id="path116"
         inkscape:connector-curvature="0" />
    </g>
    <g
       id="g118"
       transform="matrix(1.25,0,0,-1.25,-693.32871,253.4061)">
      <path
         d="m 0,0 1.936,-5.022 -7.571,-2.898 -2.495,4.748 -4.152,18.509 -1.602,5.899 3.167,-5.415 L 0,0 Z"
         style="fill:#596164;fill-opacity:1;fill-rule:nonzero;stroke:none"
         id="path120"
         inkscape:connector-curvature="0" />
    </g>
    <g
       id="g122"
       transform="matrix(1.25,0,0,-1.25,-705.97222,233.5491)">
      <path
         d="m 0,0 1.398,1.362 14.03,-9.59 2.619,-4.144 -3.329,-3.718 -4.57,2.03 L 0,0 Z"
         style="fill:#596164;fill-opacity:1;fill-rule:nonzero;stroke:none"
         id="path124"
         inkscape:connector-curvature="0" />
    </g>
    <g
       id="g126"
       transform="matrix(1.25,0,0,-1.25,-680.22734,234.90098)">
      <path
         d="M 0,0 1.979,-3.188 -0.113,-6.819 -3.851,-6.27 -19.407,3.345 -24.365,6.432 -18.52,4.499 0,0 Z"
         style="fill:#00a7cd;fill-opacity:1;fill-rule:nonzero;stroke:none"
         id="path128"
         inkscape:connector-curvature="0" />
    </g>
    <g
       id="g130"
       transform="matrix(1.25,0,0,-1.25,-703.14259,223.77548)">
      <path
         d="M 0,0 0.366,-1.393 19.348,-2.297 22.613,0.062 22.543,4.77 18.682,5.614 0,0 Z"
         style="fill:#596164;fill-opacity:1;fill-rule:nonzero;stroke:none"
         id="path132"
         inkscape:connector-curvature="0" />
    </g>
    <g
       id="g134"
       transform="matrix(1.25,0,0,-1.25,-718.26709,229.8656)">
      <path
         d="m 0,0 -14.675,-10.986 -1.705,-2.055 4.641,-5.837 3.34,1.934 L 2.011,-2.732 0,0 Z"
         style="fill:#333332;fill-opacity:1;fill-rule:nonzero;stroke:none"
         id="path136"
         inkscape:connector-curvature="0" />
    </g>
    <path
       inkscape:connector-curvature="0"
       id="path148"
       style="fill:#596164;fill-opacity:1;fill-rule:nonzero;stroke:none"
       d="m -622.82946,214.31835 -4.95876,1.7725 c -3.33625,-3.5475 -8.005,-5.32 -14.00875,-5.32 -4.55,0 -8.25624,1.1675 -11.12249,3.50125 -2.865,2.33625 -4.2975,5.3075 -4.2975,8.915 0,3.73125 1.41625,6.74 4.2525,9.03 2.835,2.28875 6.66499,3.43375 11.48499,3.43375 5.8225,0 10.40125,-1.80375 13.7375,-5.4125 l 4.685,2.59375 c -2.36625,2.75875 -5.0425,4.7525 -8.02875,5.98125 -2.98625,1.22875 -6.5575,1.84125 -10.71125,1.84125 -5.8225,0 -10.65999,-1.45625 -14.50999,-4.36625 -4.3975,-3.33625 -6.59625,-7.7025 -6.59625,-13.10125 0,-5.305 2.22875,-9.6425 6.68625,-13.00875 3.8825,-2.94 8.68874,-4.41125 14.41999,-4.41125 8.24751,0 14.57,2.85 18.96751,8.55125" />
    <path
       inkscape:connector-curvature="0"
       id="path152"
       style="fill:#596164;fill-opacity:1;fill-rule:nonzero;stroke:none"
       d="m -582.43709,223.2341 c 0,-3.85125 -1.6375,-6.97375 -4.9125,-9.37125 -2.82125,-2.0625 -6.3225,-3.0925 -10.5075,-3.0925 -4.57875,0 -8.31,1.175 -11.19,3.52625 -2.88125,2.34875 -4.32125,5.32875 -4.32125,8.9375 0,3.72875 1.41,6.73875 4.23,9.02875 2.82,2.29 6.58,3.435 11.28125,3.435 4.66875,0 8.4075,-1.1525 11.21125,-3.45875 2.805,-2.3025 4.20875,-5.305 4.20875,-9.005 m 5.685,0 c 0,5.3975 -2.21375,9.76375 -6.64125,13.09875 -3.88125,2.9125 -8.7025,4.3675 -14.46375,4.3675 -5.82125,0 -10.675,-1.47 -14.55625,-4.4125 -4.4275,-3.335 -6.64125,-7.6875 -6.64125,-13.05375 0,-5.2775 2.24375,-9.6125 6.7325,-13.01 3.94125,-2.97125 8.76375,-4.45625 14.465,-4.45625 5.7325,0 10.5375,1.485 14.4175,4.45625 4.45875,3.3975 6.6875,7.7325 6.6875,13.01" />
    <path
       inkscape:connector-curvature="0"
       id="path156"
       style="fill:#596164;fill-opacity:1;fill-rule:nonzero;stroke:none"
       d="m -544.82097,234.83248 c 4.5475,0 6.82251,-1.5 6.82251,-4.5025 0,-3.215 -1.98501,-4.8225 -5.95876,-4.8225 l -21.69625,0 0,9.325 20.8325,0 z m 0.40875,-14.2375 c 1.51625,0 2.78125,-0.43375 3.79875,-1.3025 1.015,-0.8675 1.525,-1.9275 1.525,-3.1775 0,-1.34125 -0.45625,-2.40875 -1.36625,-3.2 -0.91,-0.7925 -2.1525,-1.19 -3.72875,-1.19 l -21.47,0 0,8.87 21.24125,0 z m 6.3675,2.18375 c 3.76125,1.27375 5.64125,4.0475 5.64125,8.325 0,5.76125 -4.155,8.64125 -12.46375,8.64125 l -26.245,0 0,-32.9325 26.61,0 c 3.335,0 5.9575,0.81875 7.86875,2.45625 1.91,1.6375 2.86625,3.82125 2.86625,6.55 0,3.0025 -1.42625,5.3225 -4.2775,6.96" />
    <path
       d="m -521.21334,239.74485 -5.45875,0 0,-32.9325 5.45875,0 0,32.9325 z"
       style="fill:#596164;fill-opacity:1;fill-rule:nonzero;stroke:none"
       id="path158"
       inkscape:connector-curvature="0" />
    <path
       inkscape:connector-curvature="0"
       id="path162"
       style="fill:#596164;fill-opacity:1;fill-rule:nonzero;stroke:none"
       d="m -484.96234,214.54598 c -4.88125,-2.48625 -9.855,-3.73 -14.92,-3.73 -3.365,0 -5.9425,0.39375 -7.73125,1.1825 -1.79,0.7875 -2.685,1.88 -2.685,3.27625 0,1.45375 0.95625,2.5175 2.86625,3.1825 1.365,0.485 3.59375,0.8175 6.6875,1.00125 4.5475,0.3025 7.55,0.545 9.00625,0.72625 4.12375,0.54625 7.17125,1.56375 9.14125,3.04875 1.97125,1.48625 2.9575,3.5925 2.9575,6.3225 0,3.4875 -1.5475,6.18625 -4.63875,8.09625 -3.09375,1.91125 -7.53625,2.86625 -13.32875,2.86625 -8.39875,0 -14.935,-1.85 -19.60375,-5.54875 l 3.0025,-3.95875 c 5.15375,3.155 10.70375,4.73125 16.6475,4.73125 3.85,0 6.8375,-0.53 8.96,-1.59125 2.0325,-1.0325 3.0475,-2.44125 3.0475,-4.23125 0,-2.09125 -1.33375,-3.48625 -4.0025,-4.185 -1.395,-0.36375 -5.155,-0.7425 -11.28,-1.13625 -5.43,-0.36375 -9.23375,-1.0925 -11.4175,-2.18375 -2.5475,-1.27375 -3.82,-3.41125 -3.82,-6.41375 0,-3.0925 1.44625,-5.53375 4.34375,-7.32375 2.895,-1.78875 6.98125,-2.68375 12.2575,-2.68375 7.09625,0 13.03875,1.6225 17.83125,4.86875 l -3.32125,3.68375 z" />
    <path
       inkscape:connector-curvature="0"
       id="path166"
       style="fill:#596164;fill-opacity:1;fill-rule:nonzero;stroke:none"
       d="m -661.98509,252.25685 6.43,0 0,0.825 -5.46375,0 0,3.6625 4.85375,0 0,0.82125 -4.85375,0 0,4.8275 -0.96625,0 0,-10.13625 z" />
    <path
       d="m -653.10584,255.06985 0.89375,0 0,7.32375 -0.89375,0 0,-7.32375 z m 0,-2.8125 0.89375,0 0,1.43375 -0.89375,0 0,-1.43375 z"
       style="fill:#596164;fill-opacity:1;fill-rule:nonzero;stroke:none"
       id="path168"
       inkscape:connector-curvature="0" />
    <path
       inkscape:connector-curvature="0"
       id="path172"
       style="fill:#596164;fill-opacity:1;fill-rule:nonzero;stroke:none"
       d="m -649.09146,255.0691 0.895,0 0,1.26375 0.0275,0 c 0.3275,-0.88125 1.3075,-1.47625 2.3425,-1.47625 2.05749,0 2.68374,1.0775 2.68374,2.82375 l 0,4.7125 -0.895,0 0,-4.57125 c 0,-1.26375 -0.4125,-2.215 -1.86,-2.215 -1.41874,0 -2.27125,1.08125 -2.29875,2.51625 l 0,4.27 -0.89499,0 0,-7.32375 z" />
    <path
       inkscape:connector-curvature="0"
       id="path176"
       style="fill:#596164;fill-opacity:1;fill-rule:nonzero;stroke:none"
       d="m -635.35734,258.3911 -0.0275,0 c -0.115,0.2125 -0.51125,0.285 -0.7525,0.32375 -1.51875,0.2725 -3.4075,0.2575 -3.4075,1.69125 0,0.895 0.795,1.44875 1.63125,1.44875 1.36375,0 2.57,-0.86875 2.55625,-2.29875 l 0,-1.165 z m -4.77,-1.07875 c 0.085,-1.71875 1.29125,-2.45625 2.9675,-2.45625 1.29125,0 2.69625,0.3975 2.69625,2.3575 l 0,3.8875 c 0,0.34 0.17,0.54 0.52625,0.54 0.0988,0 0.2125,-0.0275 0.28375,-0.0575 l 0,0.7525 c -0.19875,0.0437 -0.34125,0.0563 -0.5825,0.0563 -0.90875,0 -1.05,-0.51 -1.05,-1.27625 l -0.0288,0 c -0.625,0.9525 -1.26375,1.49 -2.66875,1.49 -1.3475,0 -2.455,-0.6675 -2.455,-2.1425 0,-2.06 2,-2.13125 3.93125,-2.3575 0.73875,-0.0863 1.15,-0.185 1.15,-0.995 0,-1.20375 -0.865,-1.50375 -1.91625,-1.50375 -1.1075,0 -1.93125,0.5125 -1.95875,1.705 l -0.895,0 z" />
    <path
       inkscape:connector-curvature="0"
       id="path180"
       style="fill:#596164;fill-opacity:1;fill-rule:nonzero;stroke:none"
       d="m -631.27534,255.0691 0.895,0 0,1.26375 0.0275,0 c 0.3275,-0.88125 1.305,-1.47625 2.3425,-1.47625 2.0575,0 2.68375,1.0775 2.68375,2.82375 l 0,4.7125 -0.895,0 0,-4.57125 c 0,-1.26375 -0.4125,-2.215 -1.86,-2.215 -1.42,0 -2.27125,1.08125 -2.29875,2.51625 l 0,4.27 -0.895,0 0,-7.32375 z" />
    <path
       inkscape:connector-curvature="0"
       id="path184"
       style="fill:#596164;fill-opacity:1;fill-rule:nonzero;stroke:none"
       d="m -617.05772,257.3681 c -0.2425,-1.09375 -0.90875,-1.76125 -2.07375,-1.76125 -1.7175,0 -2.56875,1.56375 -2.56875,3.12375 0,1.56 0.85125,3.12375 2.56875,3.12375 1.1075,0 2.01625,-0.8675 2.12875,-2.0875 l 0.89501,0 c -0.24126,1.76125 -1.39,2.83875 -3.02376,2.83875 -2.24374,0 -3.46374,-1.77375 -3.46374,-3.875 0,-2.10125 1.22,-3.875 3.46374,-3.875 1.5625,0 2.76875,0.8375 2.96625,2.5125 l -0.8925,0 z" />
    <path
       d="m -613.43334,255.06985 0.895,0 0,7.32375 -0.895,0 0,-7.32375 z m 0,-2.8125 0.895,0 0,1.43375 -0.895,0 0,-1.43375 z"
       style="fill:#596164;fill-opacity:1;fill-rule:nonzero;stroke:none"
       id="path186"
       inkscape:connector-curvature="0" />
    <path
       inkscape:connector-curvature="0"
       id="path190"
       style="fill:#596164;fill-opacity:1;fill-rule:nonzero;stroke:none"
       d="m -604.71884,258.3911 -0.0288,0 c -0.11375,0.2125 -0.51125,0.285 -0.75125,0.32375 -1.51875,0.2725 -3.4075,0.2575 -3.4075,1.69125 0,0.895 0.795,1.44875 1.63125,1.44875 1.36375,0 2.57,-0.86875 2.55625,-2.29875 l 0,-1.165 z m -4.77,-1.07875 c 0.085,-1.71875 1.29125,-2.45625 2.96625,-2.45625 1.2925,0 2.6975,0.3975 2.6975,2.3575 l 0,3.8875 c 0,0.34 0.17125,0.54 0.52625,0.54 0.0988,0 0.2125,-0.0275 0.285,-0.0575 l 0,0.7525 c -0.2,0.0437 -0.3425,0.0563 -0.58375,0.0563 -0.90875,0 -1.05,-0.51 -1.05,-1.27625 l -0.0288,0 c -0.625,0.9525 -1.26375,1.49 -2.66875,1.49 -1.3475,0 -2.455,-0.6675 -2.455,-2.1425 0,-2.06 2,-2.13125 3.93125,-2.3575 0.73875,-0.0863 1.15,-0.185 1.15,-0.995 0,-1.20375 -0.86625,-1.50375 -1.91625,-1.50375 -1.1075,0 -1.93125,0.5125 -1.95875,1.705 l -0.895,0 z" />
    <path
       d="m -600.61084,252.25735 0.89375,0 0,10.13625 -0.89375,0 0,-10.13625 z"
       style="fill:#596164;fill-opacity:1;fill-rule:nonzero;stroke:none"
       id="path192"
       inkscape:connector-curvature="0" />
    <path
       inkscape:connector-curvature="0"
       id="path196"
       style="fill:#596164;fill-opacity:1;fill-rule:nonzero;stroke:none"
       d="m -589.61584,258.41873 3.98875,0 -1.95875,-5.195 -2.03,5.195 z m 1.53375,-6.16125 1.07875,0 3.97375,10.135 -1.035,0 -1.235,-3.15125 -4.615,0 -1.22,3.15125 -1.035,0 4.0875,-10.135 z" />
    <path
       inkscape:connector-curvature="0"
       id="path200"
       style="fill:#596164;fill-opacity:1;fill-rule:nonzero;stroke:none"
       d="m -575.56959,258.64735 c 0,-1.43375 -0.6675,-3.04125 -2.35625,-3.04125 -1.7025,0 -2.41375,1.52125 -2.41375,3.04125 0,1.47375 0.7675,2.9075 2.41375,2.9075 1.54625,0 2.35625,-1.4175 2.35625,-2.9075 m 0.89375,3.14875 c -0.0138,2.1875 -0.85125,3.5225 -3.25,3.5225 -1.4625,0 -2.90875,-0.655 -3.03875,-2.215 l 0.89625,0 c 0.1975,1.07875 1.14875,1.46125 2.1425,1.46125 1.6475,0 2.35625,-0.98 2.35625,-2.76875 l 0,-0.99125 -0.0288,0 c -0.41125,0.8925 -1.2775,1.50375 -2.3275,1.50375 -2.3425,0 -3.30875,-1.67375 -3.30875,-3.76375 0,-2.01375 1.19375,-3.68875 3.30875,-3.68875 1.065,0 1.9725,0.6675 2.3275,1.47625 l 0.0288,0 0,-1.26375 0.89375,0 0,6.7275 z" />
    <path
       d="m -571.54584,255.06985 0.89375,0 0,7.32375 -0.89375,0 0,-7.32375 z m 0,-2.8125 0.89375,0 0,1.43375 -0.89375,0 0,-1.43375 z"
       style="fill:#596164;fill-opacity:1;fill-rule:nonzero;stroke:none"
       id="path202"
       inkscape:connector-curvature="0" />
    <path
       d="m -567.50209,252.25735 0.89375,0 0,10.13625 -0.89375,0 0,-10.13625 z"
       style="fill:#596164;fill-opacity:1;fill-rule:nonzero;stroke:none"
       id="path204"
       inkscape:connector-curvature="0" />
    <path
       d="m -563.46084,255.06985 0.89375,0 0,7.32375 -0.89375,0 0,-7.32375 z m 0,-2.8125 0.89375,0 0,1.43375 -0.89375,0 0,-1.43375 z"
       style="fill:#596164;fill-opacity:1;fill-rule:nonzero;stroke:none"
       id="path206"
       inkscape:connector-curvature="0" />
    <path
       inkscape:connector-curvature="0"
       id="path210"
       style="fill:#596164;fill-opacity:1;fill-rule:nonzero;stroke:none"
       d="m -558.01347,255.0691 1.49125,0 0,0.75125 -1.49125,0 0,4.94125 c 0,0.58 0.085,0.92375 0.725,0.96375 0.255,0 0.51,-0.0125 0.76625,-0.04 l 0,0.76625 c -0.27,0 -0.52499,0.0275 -0.79624,0.0275 -1.19251,0 -1.60375,-0.39875 -1.58875,-1.6475 l 0,-5.01125 -1.27875,0 0,-0.75125 1.27875,0 0,-2.2 0.89375,0 0,2.2 z" />
    <path
       inkscape:connector-curvature="0"
       id="path214"
       style="fill:#596164;fill-opacity:1;fill-rule:nonzero;stroke:none"
       d="m -554.63859,255.0691 0.95125,0 2.41375,6.245 2.2575,-6.245 0.8925,0 -3.17875,8.445 c -0.51,1.23625 -0.80875,1.59125 -1.93,1.59125 -0.35625,-0.015 -0.54,-0.015 -0.6825,-0.0712 l 0,-0.75375 c 0.21375,0.0437 0.41125,0.0713 0.61125,0.0713 0.795,0 0.98,-0.46625 1.2775,-1.15 l 0.31125,-0.8375 -2.92375,-7.295 z" />
    <path
       inkscape:connector-curvature="0"
       id="path218"
       style="fill:#596164;fill-opacity:1;fill-rule:nonzero;stroke:none"
       d="m -539.33184,257.22598 3.32125,0 c 1.33625,0 2.2575,-0.68 2.2575,-2.07375 0,-1.39 -0.92125,-2.07 -2.2575,-2.07 l -3.32125,0 0,4.14375 z m -0.96375,-4.96875 4.49875,0 c 1.8175,0 3.01,1.06625 3.01,2.895 0,1.8325 -1.1925,2.89875 -3.01,2.89875 l -3.535,0 0,4.34125 -0.96375,0 0,-10.135 z" />
    <path
       inkscape:connector-curvature="0"
       id="path222"
       style="fill:#596164;fill-opacity:1;fill-rule:nonzero;stroke:none"
       d="m -525.42959,258.3911 -0.0275,0 c -0.115,0.2125 -0.51125,0.285 -0.7525,0.32375 -1.51875,0.2725 -3.4075,0.2575 -3.4075,1.69125 0,0.895 0.795,1.44875 1.6325,1.44875 1.3625,0 2.56875,-0.86875 2.555,-2.29875 l 0,-1.165 z m -4.77,-1.07875 c 0.0863,-1.71875 1.2925,-2.45625 2.96625,-2.45625 1.2925,0 2.69875,0.3975 2.69875,2.3575 l 0,3.8875 c 0,0.34 0.17,0.54 0.525,0.54 0.0987,0 0.2125,-0.0275 0.285,-0.0575 l 0,0.7525 c -0.2,0.0437 -0.3425,0.0563 -0.58375,0.0563 -0.90875,0 -1.05,-0.51 -1.05,-1.27625 l -0.0275,0 c -0.62625,0.9525 -1.26375,1.49 -2.67,1.49 -1.3475,0 -2.455,-0.6675 -2.455,-2.1425 0,-2.06 2,-2.13125 3.9325,-2.3575 0.7375,-0.0863 1.14875,-0.185 1.14875,-0.995 0,-1.20375 -0.865,-1.50375 -1.91625,-1.50375 -1.1075,0 -1.93125,0.5125 -1.95875,1.705 l -0.895,0 z" />
    <path
       inkscape:connector-curvature="0"
       id="path226"
       style="fill:#596164;fill-opacity:1;fill-rule:nonzero;stroke:none"
       d="m -521.33334,255.0691 0.82375,0 0,1.7175 0.0275,0 c 0.45375,-1.18 1.44875,-1.875 2.76875,-1.81625 l 0,0.8925 c -1.6175,-0.0838 -2.72625,1.10625 -2.72625,2.6275 l 0,3.9025 -0.89375,0 0,-7.32375 z" />
    <path
       inkscape:connector-curvature="0"
       id="path230"
       style="fill:#596164;fill-opacity:1;fill-rule:nonzero;stroke:none"
       d="m -514.02684,255.0691 1.49125,0 0,0.75125 -1.49125,0 0,4.94125 c 0,0.58 0.085,0.92375 0.725,0.96375 0.255,0 0.50875,-0.0125 0.76625,-0.04 l 0,0.76625 c -0.27,0 -0.525,0.0275 -0.79625,0.0275 -1.1925,0 -1.60375,-0.39875 -1.58875,-1.6475 l 0,-5.01125 -1.27875,0 0,-0.75125 1.27875,0 0,-2.2 0.89375,0 0,2.2 z" />
    <path
       inkscape:connector-curvature="0"
       id="path234"
       style="fill:#596164;fill-opacity:1;fill-rule:nonzero;stroke:none"
       d="m -509.84459,255.0691 0.895,0 0,1.26375 0.0275,0 c 0.3275,-0.88125 1.3075,-1.47625 2.3425,-1.47625 2.0575,0 2.68375,1.0775 2.68375,2.82375 l 0,4.7125 -0.89375,0 0,-4.57125 c 0,-1.26375 -0.41375,-2.215 -1.86125,-2.215 -1.41875,0 -2.27125,1.08125 -2.29875,2.51625 l 0,4.27 -0.895,0 0,-7.32375 z" />
    <path
       inkscape:connector-curvature="0"
       id="path238"
       style="fill:#596164;fill-opacity:1;fill-rule:nonzero;stroke:none"
       d="m -495.52759,258.22098 c -0.0437,-1.35 -0.88125,-2.61375 -2.32875,-2.61375 -1.46125,0 -2.27125,1.27875 -2.4125,2.61375 l 4.74125,0 z m -4.74125,0.75125 c 0.0138,1.3075 0.695,2.8825 2.4125,2.8825 1.305,0 2.01625,-0.76625 2.29875,-1.875 l 0.895,0 c -0.3825,1.6625 -1.34875,2.62625 -3.19375,2.62625 -2.32875,0 -3.3075,-1.78875 -3.3075,-3.875 0,-1.93125 0.97875,-3.875 3.3075,-3.875 2.35625,0 3.295,2.0575 3.2225,4.11625 l -5.635,0 z" />
    <path
       inkscape:connector-curvature="0"
       id="path242"
       style="fill:#596164;fill-opacity:1;fill-rule:nonzero;stroke:none"
       d="m -492.01447,255.0691 0.82375,0 0,1.7175 0.0275,0 c 0.45375,-1.18 1.45,-1.875 2.76875,-1.81625 l 0,0.8925 c -1.6175,-0.0838 -2.72625,1.10625 -2.72625,2.6275 l 0,3.9025 -0.89375,0 0,-7.32375 z" />
    <path
       inkscape:connector-curvature="0"
       id="path246"
       style="fill:#596164;fill-opacity:1;fill-rule:nonzero;stroke:none"
       d="m -481.74272,257.21335 c -0.0412,-1.10875 -0.895,-1.60625 -1.91625,-1.60625 -0.795,0 -1.73125,0.315 -1.73125,1.26375 0,0.79625 0.9075,1.0775 1.51875,1.235 l 1.1925,0.27 c 1.02125,0.1575 2.085,0.75375 2.085,2.03 0,1.59125 -1.57375,2.2 -2.93625,2.2 -1.70375,0 -2.8675,-0.79375 -3.01,-2.58375 l 0.895,0 c 0.0713,1.20875 0.96375,1.8325 2.15625,1.8325 0.8375,0 2.0025,-0.37 2.0025,-1.39 0,-0.8525 -0.795,-1.1375 -1.605,-1.335 l -1.15,-0.25625 c -1.1625,-0.3125 -2.04375,-0.71125 -2.04375,-1.96 0,-1.48875 1.4625,-2.0575 2.755,-2.0575 1.46125,0 2.625,0.76625 2.68125,2.3575 l -0.89375,0 z" />
  </g>
</svg>
